<?xml version="1.0" standalone="no"?>
<!DOCTYPE svg PUBLIC "-//W3C//DTD SVG 1.1//EN" "http://www.w3.org/Graphics/SVG/1.1/DTD/svg11.dtd" >
<svg xmlns="http://www.w3.org/2000/svg" xmlns:xlink="http://www.w3.org/1999/xlink" version="1.1">
<metadata>
Created by FontForge 20161013 at Sun Jun 29 04:26:52 2014
 By ,,,
RODRIGO ARAYA SALAS_ WWW.RODRIGOTYPO.COM
</metadata>
<defs>
<font id="Pintanina" horiz-adv-x="690" >
  <font-face 
    font-family="Pintanina"
    font-weight="400"
    font-stretch="normal"
    units-per-em="2048"
    panose-1="0 0 0 0 0 0 0 0 0 0"
    ascent="1536"
    descent="-512"
    x-height="1430"
    cap-height="1430"
    bbox="-136 -384 1817 1824"
    underline-thickness="0"
    underline-position="0"
    unicode-range="U+0020-FB06"
  />
<missing-glyph horiz-adv-x="610" 
 />
    <glyph glyph-name="uniFB00" unicode="ff" horiz-adv-x="1105" 
d="M612 1348l471 75l-20 -219l-252 -30v-388l205 48v-150l-203 -25l16 -610l-239 -49q0 152 8 678l-338 -19l16 -610l-239 -49q7 604 22 1348l471 75l-20 -219l-252 -30v-388l342 37q8 265 12 525z" />
    <glyph glyph-name="uniFB01" unicode="fi" horiz-adv-x="886" 
d="M475 1312v2q0 -64 29 -111l-246 -28v-388l358 41v271l211 12l-22 -1069l-189 -41v680l-356 -21l16 -610l-239 -49q7 604 22 1348l447 71q-31 -43 -31 -108zM752 1460h2q79 0 110 -34q32 -34 30 -87t-46 -103q-45 -51 -135 -51t-129 30t-39 77q0 168 207 168z" />
    <glyph glyph-name="uniFB02" unicode="fl" horiz-adv-x="1062" 
d="M641 1393l217 41l-31 -1233l246 65l-51 -231l-385 -35l2 682l-379 -23l16 -610l-239 -49q7 604 22 1348l471 75l-20 -219l-252 -30v-388l381 43z" />
    <glyph glyph-name="uniFB03" unicode="ffi" horiz-adv-x="1437" 
d="M1305 1456l-1 -1q72 0 102 -35t29 -86q-2 -52 -42 -101q-41 -50 -125 -50t-120 30t-36 77q0 166 193 166zM1379 1109l-22 -1069l-189 -40v681l-356 -23l16 -610l-239 -48q0 151 8 677l-338 -19l16 -610l-239 -48q7 604 22 1347l471 75l-20 -219l-252 -30v-388l342 37
q7 264 12 525l471 75l-20 -219l-252 -30v-367l358 45v246z" />
    <glyph glyph-name="uniFB04" unicode="ffl" horiz-adv-x="1615" 
d="M612 1348l799 96l-31 -1243l246 65l-51 -231l-385 -35l2 1206l-381 -32v-388l205 48v-150l-203 -25l16 -610l-239 -49q0 152 8 678l-336 -19v-610l-225 -49l22 1348l471 75l-20 -219l-252 -30v-388l342 35q5 232 12 527z" />
    <glyph glyph-name="C_K.liga" unicode="CK" horiz-adv-x="1146" 
d="M733 94v-48l-139 -29l68 68l63 184l-197 154l37 962l228 50l-50 -744q79 145 149 351q71 210 77 353l223 39q-6 -119 -88 -339q-78 -210 -160 -382l-78 -164q29 -86 142 -180q114 -95 198 -150l-166 -215q-185 150 -264 340l-37 -12q-6 -83 -6 -238zM440 1l-4 -2
q-50 0 -89 7q-41 7 -103 42q-60 34 -103 95q-41 59 -73 175q-31 114 -31 285q0 170 30 323q31 156 97 293q61 125 135 189l29 25l145 -172q-109 -118 -172 -285q-63 -166 -63 -339t42 -303q42 -131 126 -131q46 0 78 41q32 40 39 81l8 41l156 -109q-19 -97 -86 -177
q-66 -79 -161 -79z" />
    <glyph glyph-name=".notdef" horiz-adv-x="610" 
 />
    <glyph glyph-name=".null" horiz-adv-x="0" 
 />
    <glyph glyph-name="nonmarkingreturn" horiz-adv-x="682" 
 />
    <glyph glyph-name="space" unicode=" " horiz-adv-x="307" 
 />
    <glyph glyph-name="exclam" unicode="!" horiz-adv-x="442" 
d="M111 233l20 1174l252 25l-80 -1199h-192zM170 -140l2 -2q-72 0 -102 35q-30 34 -28 86q2 50 42 101t123 51t119 -30t36 -76q2 -165 -192 -165z" />
    <glyph glyph-name="quotedbl" unicode="&#x22;" horiz-adv-x="546" 
d="M82 1040v371l158 27v-398h-158zM328 1040v371l157 27v-398h-157z" />
    <glyph glyph-name="numbersign" unicode="#" horiz-adv-x="1001" 
d="M76 408v131l129 8l51 323l-180 -8v185l211 14l57 362l174 19l-61 -371l161 19l54 333l174 19l-58 -340l164 10l-20 -209l-178 -8l-54 -311l211 14l-14 -203h-233l-60 -395h-155l55 401h-168l-60 -401h-155l55 408h-100zM424 877l-55 -320l170 16l49 316z" />
    <glyph glyph-name="dollar" unicode="$" horiz-adv-x="714" 
d="M334 926l3 1q0 -31 14 -56q13 -23 129 -133t116 -255q0 -108 -137 -216l12 -266h-160v170q-65 -39 -151 -81l-62 186q164 66 220 129q55 62 55 102t-40 92q-42 54 -90 95q-49 42 -90 105q-40 62 -40 128q0 156 221 264l-10 240l155 8l-8 -193l113 29l82 -146
q-6 -2 -36 -10q-21 -6 -79 -27q-62 -23 -101 -43q-45 -23 -80 -57q-36 -34 -36 -66z" />
    <glyph glyph-name="percent" unicode="%" horiz-adv-x="1273" 
d="M815 1427l223 27l-589 -1454h-199zM448 776l-1 -2q-66 -75 -177 -72q-205 7 -180 366q16 237 105 300q87 62 206 57q35 -2 60 -25q26 -25 52 -87q26 -63 14 -261q-12 -200 -79 -276zM317 1309l1 -1q-19 2 -33 -14t-24 -51q-20 -71 -26 -167q-6 -97 9 -178t44 -87
q27 0 57 81t36 164q6 85 -7 167q-14 85 -57 86zM1093 72l1 -1q-65 -73 -176 -71q-205 7 -181 367q17 237 104 299q88 62 185 59q38 -1 51 -6q14 -5 63 -52q49 -48 33 -322q-12 -197 -80 -273zM965 605l1 -1q-19 2 -33 -14t-24 -51q-20 -71 -26 -167q-6 -97 9 -178t44 -87
q27 0 57 81t36 164q6 85 -7 167q-14 85 -57 86z" />
    <glyph glyph-name="ampersand" unicode="&#x26;" horiz-adv-x="839" 
d="M306 0q-114 0 -189 110t-75 255q0 225 195 393q-49 51 -96 159q-46 107 -46 222q0 113 72 205q72 91 192 91q121 0 185 -82q65 -83 65 -192t-48 -216t-124 -184l223 -406l138 86l45 -198q-31 -23 -87 -57l57 -135q-1 1 -81 -48q-79 -48 -79 -53l-69 134
q-163 -84 -278 -84zM193 410l-1 -2q0 -80 39 -141t109 -61t156 47l-197 379q-106 -91 -106 -222zM273 1124h-1q0 -105 95 -247q33 28 60 104q27 75 27 146q0 118 -74 141q-11 4 -25 4q-82 -1 -82 -148z" />
    <glyph glyph-name="quotesingle" unicode="'" horiz-adv-x="331" 
d="M82 1040v371l158 27v-398h-158z" />
    <glyph glyph-name="parenleft" unicode="(" horiz-adv-x="606" 
d="M293 688l-2 -5q0 -173 26 -308q25 -131 60 -205q34 -72 83 -121q47 -47 82 -62q34 -15 69 -21v-239q-45 6 -101 23t-143 79q-89 63 -156 156q-67 90 -118 270q-51 179 -51 390q0 209 35 367q34 154 89 253q53 96 122 171q67 73 170 129q102 55 174 63l35 4l-19 -231
q-50 0 -121 -57q-69 -56 -118 -129q-47 -71 -82 -212q-34 -137 -34 -315z" />
    <glyph glyph-name="parenright" unicode=")" horiz-adv-x="665" 
d="M635 648l-5 2q0 -210 -51 -389q-51 -180 -117 -271q-65 -92 -155 -156q-87 -62 -143 -79q-51 -16 -101 -22v239q35 6 68 21q32 13 81 62t83 121q35 74 60 205q26 135 26 308t-35 315q-35 140 -81 212q-47 72 -117 129t-121 57l-19 231q36 0 112 -25q79 -26 136 -61
q60 -37 132 -109t124 -171q51 -98 87 -253q36 -156 36 -366z" />
    <glyph glyph-name="asterisk" unicode="*" horiz-adv-x="598" 
d="M387 958h1q0 -1 12.5 -20t43 -68t63.5 -102l-115 -76l-102 211q-9 -15 -51 -71q-43 -57 -75 -102l-103 94l174 154q-80 20 -206 63q1 1 15 50t27 65l204 -84l-20 213l152 -12l-54 -205q135 22 195 36q2 -10 36 -146h-197z" />
    <glyph glyph-name="plus" unicode="+" horiz-adv-x="583" 
d="M223 940l152 4l-8 -176l190 8v-135l-199 -8l-8 -203l-145 -6l10 201l-195 -9v136l197 8z" />
    <glyph glyph-name="comma" unicode="," horiz-adv-x="319" 
d="M124 -1v-1q-29 0 -55 29q-27 30 -27 73t27 76t77 33q123 0 123 -125q0 -89 -63 -176t-139 -87v90q61 7 93 91q-8 -3 -36 -3z" />
    <glyph glyph-name="hyphen" unicode="-" horiz-adv-x="626" 
d="M528 641l-454 -25v136l454 24v-135z" />
    <glyph glyph-name="period" unicode="." horiz-adv-x="321" 
d="M154 207q43 0 64 -22q21 -23 21 -54q0 -119 -113 -131h-12q-43 0 -67 21t-27 53v16q0 105 121 117h13z" />
    <glyph glyph-name="slash" unicode="/" horiz-adv-x="626" 
d="M373 1407l223 27l-344 -1434h-199z" />
    <glyph glyph-name="zero" unicode="0" horiz-adv-x="833" 
d="M379 1417l-1 1q122 0 258 -151t136 -573q0 -297 -87 -495t-228 -198q-63 0 -114 15q-50 15 -166 114q-115 99 -115 605q0 176 28 306q28 132 66 201t98 122q61 53 125 53zM392 1177l3 -1q-52 0 -88 -115t-36 -327q0 -209 26 -328q25 -116 59 -151q33 -35 80 -35
q62 0 96 135q35 137 35 340q0 207 -46 344q-47 138 -129 138z" />
    <glyph glyph-name="one" unicode="1" horiz-adv-x="567" 
d="M352 1409l154 23v-1387l-219 -50v1158l-226 -90v258z" />
    <glyph glyph-name="two" unicode="2" horiz-adv-x="839" 
d="M487 1208q-89 0 -184 -297l-190 146q102 221 174 292q71 70 168 70q200 0 261 -130q62 -132 62 -303q0 -304 -291 -663q240 28 269 30l-29 -272q-117 10 -184 10q-63 0 -172 -25q-114 -26 -170 -52l-58 -25l-82 199q178 182 338 400q73 98 119 230q47 133 47 212
q0 178 -78 178z" />
    <glyph glyph-name="three" unicode="3" horiz-adv-x="796" 
d="M727 1077v-1q0 -187 -176 -384q184 -72 184 -288q0 -215 -102 -310q-101 -94 -253 -94t-321 66l97 237q89 -53 181 -53q193 0 193 149q0 46 -41 81t-81 35q-65 0 -136 -20l-24 -7q-35 196 -35 246q113 0 218 118q105 119 105 232q0 46 -25 83q-26 38 -57 38
q-56 0 -115 -89q-58 -88 -96 -185l-166 110q92 254 164 323t179 69q106 0 206 -106q101 -107 101 -250z" />
    <glyph glyph-name="four" unicode="4" horiz-adv-x="894" 
d="M834 588v-264h-127v-279l-207 -50v337h-396l-43 227l435 834l209 41v-856q110 10 129 10zM502 578v409q-189 -360 -213 -409h213z" />
    <glyph glyph-name="five" unicode="5" horiz-adv-x="776" 
d="M434 868l-2 -4q119 0 200 -101t81 -309t-111 -336q-110 -126 -289 -126t-253 71l11 213q45 -5 147 -5q106 0 147 9t110 42t69 162t-166 129q-76 0 -161 -25q-87 -26 -138 -54v806q88 25 441 63l129 14l-20 -254l-336 -30v-302q67 37 141 37z" />
    <glyph glyph-name="six" unicode="6" horiz-adv-x="823" 
d="M480 750l-4 -1q118 0 201 -93q82 -92 82 -233t-94 -281q-95 -141 -270 -141q-252 0 -317 401q-40 256 5 543q45 285 160 378t228 93q200 0 261 -268l-192 -195q-14 101 -48 152t-75 51t-75 -52t-58 -172t-24 -277q103 95 220 95zM508 536l-2 -1q-80 0 -155 -63t-75 -141
q0 -141 120 -142q66 0 135 79q69 80 69 147q0 119 -92 121z" />
    <glyph glyph-name="seven" unicode="7" horiz-adv-x="669" 
d="M387 1212l1 1q-244 -25 -327 -33l35 237l506 15q0 -187 5 -189q3 -1 -204 -913l-69 -305l-221 -30z" />
    <glyph glyph-name="eight" unicode="8" horiz-adv-x="782" 
d="M346 1417l-3 -2q167 0 255 -108q88 -107 88 -261q0 -97 -37 -183q-38 -88 -105 -140q172 -84 172 -326q0 -163 -94 -279q-94 -117 -259 -117t-241 105q-76 104 -76 261q0 95 35 189q34 92 98 151q-125 98 -125 309q0 162 79 281q79 120 213 120zM308 877h1q79 0 156 63
q76 63 76 140q0 141 -121 142q-66 0 -135 -79t-69 -147q0 -119 92 -119zM309 221h1q80 0 156 63t76 141q0 141 -121 141q-66 0 -135 -78t-69 -146q0 -121 92 -121z" />
    <glyph glyph-name="nine" unicode="9" horiz-adv-x="823" 
d="M343 666l-1 -1q-118 0 -201 93q-82 92 -82 233q0 139 95 281q94 141 270 141q254 0 317 -401q41 -255 -6 -544q-47 -286 -160 -377t-227 -91q-200 0 -261 267l193 195q13 -103 50 -153q36 -49 76 -49t75 53q34 51 58 171q24 118 24 276q-101 -94 -220 -94zM310 878h1
q79 0 156 63q76 63 76 140q0 141 -121 142q-66 0 -135 -79q-69 -80 -69 -147q0 -119 92 -119z" />
    <glyph glyph-name="colon" unicode=":" horiz-adv-x="339" 
d="M197 588v1q50 0 74 -28q24 -29 24 -63q0 -139 -133 -154h-15q-49 0 -78 24q-30 25 -30 62v21q0 123 143 137h15zM197 937v-1q50 0 74 -27t24 -62q0 -139 -133 -154h-15q-49 0 -78 24q-30 25 -30 62v21q0 123 143 137h15z" />
    <glyph glyph-name="semicolon" unicode=";" horiz-adv-x="319" 
d="M124 -1v-1q-29 0 -55 29q-27 30 -27 73t27 76t77 33q123 0 123 -125q0 -89 -63 -176t-139 -87v90q61 7 93 91q-8 -3 -36 -3zM180 529v2q47 0 68 -24q23 -26 23 -54q1 -121 -122 -135h-13q-44 0 -70 21q-27 22 -27 53v17q0 107 129 120h12z" />
    <glyph glyph-name="less" unicode="&#x3c;" horiz-adv-x="651" 
d="M272 606q104 -40 324 -180v-186q-112 63 -531 288l2 150l526 297v-205q-194 -98 -321 -164z" />
    <glyph glyph-name="equal" unicode="=" horiz-adv-x="626" 
d="M528 682l-454 -25v136l454 24v-135zM528 416l-454 -25v135l454 25v-135z" />
    <glyph glyph-name="greater" unicode="&#x3e;" horiz-adv-x="651" 
d="M594 678l3 -150q-419 -225 -531 -288v186q14 9 63 39t80 49q104 64 180 92q-127 66 -321 164v205z" />
    <glyph glyph-name="question" unicode="?" horiz-adv-x="763" 
d="M113 624l-2 -3q0 48 38 94q37 45 93 78t150 90t102 179q-16 141 -282 141q-90 0 -176 -12q2 13 9 69q8 58 24 155q104 23 202 23q197 0 326 -96t129 -304q0 -91 -41 -164q-41 -72 -98 -116t-114 -78q-63 -38 -98 -64q-42 -31 -41 -59l18 -297h-221q-18 315 -18 364z
M227 -143l1 -2q-72 0 -102 35q-30 34 -28 86q2 50 42 101t123 51t120 -30t37 -76q0 -165 -193 -165z" />
    <glyph glyph-name="at" unicode="@" horiz-adv-x="1052" 
d="M870 750v2q0 505 -290 507q-172 0 -274 -176q-102 -175 -102 -486t45 -405t141 -94q51 0 141 39l23 10l20 -179q-83 -65 -194 -65q-142 2 -240 152q-99 153 -99 485q0 897 534 897q151 0 299 -135q149 -135 149 -487q0 -310 -50 -393q-49 -82 -104 -114q-53 -31 -122 -31
q-68 0 -123 31q-69 -45 -141 -45q-71 0 -121 84q-49 83 -49 225q0 471 244 471q72 0 158 -43l28 -14q0 -10 -1 -28q-2 -28 -3 -73q0 -4 -1.5 -50t-2.5 -79q-3 -82 -3 -237q18 -74 57 -74t60 95q21 94 21 210zM557 833q-52 0 -76 -53q-24 -52 -24 -176q0 -123 73 -123l41 8
l19 340q-23 4 -33 4z" />
    <glyph glyph-name="A" unicode="A" 
d="M469 1434l221 -1395l-188 -39l-51 297l-236 -49l-37 -211l-178 -37l262 1389zM240 393l186 39l-78 541z" />
    <glyph glyph-name="B" unicode="B" horiz-adv-x="602" 
d="M598 1167l-1 -2q0 -205 -227 -612q63 0 138 -36t75 -162q0 -84 -44 -154q-43 -69 -141 -123q-96 -53 -198 -67l-45 -6l-99 -5q-4 7 -6 356l-2 328q-1 291 14 635q46 46 127 80q84 35 153 35q256 -1 256 -267zM335 1249h1q-34 0 -74 -30l-20 -603q158 286 156 543
q0 90 -63 90zM379 331h2q0 47 -27 85q-27 37 -73 37q-17 0 -36 -6v-285q13 0 41 11q27 11 45 27t33 50q15 33 15 81z" />
    <glyph glyph-name="C" unicode="C" horiz-adv-x="655" 
d="M440 0l-4 -2q-50 0 -89 7q-41 7 -103 42q-60 34 -103 95q-41 59 -73 175q-31 114 -31 285q0 170 30 323q31 156 97 293q61 125 135 189l29 25l145 -172q-109 -118 -172 -285t-63 -339t42 -303t126 -131q46 0 78 41t39 81l8 41l156 -109q-19 -97 -86 -177
q-66 -79 -161 -79z" />
    <glyph glyph-name="D" unicode="D" horiz-adv-x="647" 
d="M649 1098h1q0 -335 -389 -1063l-192 -35l41 1288q46 58 128 102t153 44q258 0 258 -336zM470 1090v-1q0 51 -27 83t-58 32t-75 -39l-47 -864q207 477 207 789z" />
    <glyph glyph-name="E" unicode="E" horiz-adv-x="552" 
d="M516 1212l-1 2q-25 -1 -129 -11t-128 -11v-404l205 48v-150l-205 -25v-454q171 35 272 60l-14 -223q-236 -17 -479 -42q0 46 9 327q9 280 9 994l475 111z" />
    <glyph glyph-name="F" unicode="F" horiz-adv-x="552" 
d="M59 1348l471 75l-20 -219l-252 -30v-388l205 48v-150l-203 -25l16 -610l-239 -49q7 604 22 1348z" />
    <glyph glyph-name="G" unicode="G" horiz-adv-x="731" 
d="M418 0l-4 -1q-110 0 -187 62q-78 63 -135 213t-57 354q0 205 49 356q50 154 163 279q115 127 276 167l90 -160q-113 -56 -192 -132t-135 -195q-55 -117 -55 -265t28 -269q29 -124 73 -176q45 -52 110 -52q43 0 70 48t27 137v98l-142 -12l11 172l297 26q21 0 16 -284
q-3 -125 -39 -210q-66 -156 -264 -156z" />
    <glyph glyph-name="H" unicode="H" horiz-adv-x="679" 
d="M627 1430l-39 -1389l-189 -39l11 457l-152 -21l-6 -399l-189 -39v1397l211 37l-14 -859l156 19v809z" />
    <glyph glyph-name="I" unicode="I" horiz-adv-x="333" 
d="M274 1110l-22 -1069l-189 -41v1098zM199 1456l-2 -1q72 0 102 -35t29 -86q-2 -52 -42 -101q-41 -50 -123 -50q-83 0 -120 30t-37 77q0 166 193 166z" />
    <glyph glyph-name="J" unicode="J" horiz-adv-x="616" 
d="M285 0q-297 0 -304 375l148 153q51 -303 135 -303q44 0 59 114t15 395q0 227 -2 441l-213 -23v205l569 78v-213l-157 -23v-782q0 -327 -96 -372t-154 -45z" />
    <glyph glyph-name="K" unicode="K" horiz-adv-x="692" 
d="M242 94l-1 -48l-219 -45l51 1384l227 50l-49 -744q79 145 149 351q71 210 77 353l223 39q-6 -119 -88 -339t-159 -382l-78 -164q29 -86 142 -180q114 -95 198 -150l-166 -215q-185 150 -264 340l-37 -12q-2 -27 -6 -238z" />
    <glyph glyph-name="L" unicode="L" horiz-adv-x="509" 
d="M88 1393l217 41l-31 -1233l246 65l-51 -231l-385 -35z" />
    <glyph glyph-name="M" unicode="M" horiz-adv-x="788" 
d="M457 0h-118q-12 126 -47 290q-30 139 -63 255l-28 96l20 -604l-178 -37q21 368 33 1143l4 266l201 25l114 -830h4l117 793l201 37q12 -1019 37 -1397l-181 -35l23 639q-112 -346 -139 -641z" />
    <glyph glyph-name="N" unicode="N" horiz-adv-x="634" 
d="M53 1386l175 34l177 -962v942l200 31l-39 -1389l-202 -42q-19 130 -61 285q-36 133 -78 256l-32 94l51 -598l-191 -35v1384z" />
    <glyph glyph-name="O" unicode="O" horiz-adv-x="665" 
d="M638 1036v-4q0 -31 1.5 -98t1.5 -129.5t-3 -122.5q-10 -202 -42 -342q-31 -138 -83 -210q-52 -71 -108 -98q-55 -26 -127 -23q-285 13 -252 721q24 512 159 607q137 96 254 93q45 -2 63 -10q20 -9 51 -51q32 -43 53 -114q32 -110 32 -219zM346 1195q-32 2 -56 -48
t-40 -153t-24 -258q-10 -192 12 -348q22 -155 63 -169q38 -2 81 157t51 323q8 167 -10 329q-18 164 -77 167z" />
    <glyph glyph-name="P" unicode="P" horiz-adv-x="647" 
d="M643 1167v-2q0 -158 -120 -404q-121 -249 -265 -459q-6 -74 -6 -261l-197 -41l54 1319q46 46 126 80q82 35 152 35q256 -1 256 -267zM444 1159q0 90 -63 90q-33 0 -74 -30l-47 -603q184 334 184 543z" />
    <glyph glyph-name="Q" unicode="Q" horiz-adv-x="665" 
d="M457 66h-1q90 -96 211 -163l-150 -193q-149 149 -235 300h-4q-286 0 -252 721q24 512 159 607q137 96 254 93q45 -2 63 -10q21 -10 92 -103q72 -94 46 -604q-26 -512 -183 -648zM345 1200q-32 2 -56 -48t-40 -153t-24 -258q-11 -192 12 -348q22 -155 63 -169
q38 -2 81 157t51 323q8 167 -10 329q-18 164 -77 167z" />
    <glyph glyph-name="R" unicode="R" horiz-adv-x="673" 
d="M387 1434v-1q256 0 256 -267q0 -103 -67 -271q-58 -145 -138 -286l-67 -118q6 -15 16 -37q12 -26 90 -102q79 -77 199 -156l-150 -193q-167 135 -237 307l-31 -8q-6 -74 -6 -261l-197 -41l54 1319q46 46 126 80q82 35 152 35zM444 1160q0 90 -63 90q-33 0 -74 -30
l-47 -603q184 334 184 543z" />
    <glyph glyph-name="S" unicode="S" horiz-adv-x="559" 
d="M37 207l1 2q250 150 250 284q0 47 -37 111t-81 117t-81 130t-37 162q0 84 44 161q44 76 144 150q78 57 198 99l43 15l76 -179q-190 -63 -247 -138t-57 -109q0 -33 11 -63q10 -27 24 -49t43 -61q46 -63 53 -73q107 -168 107 -297q0 -127 -96 -241q-97 -115 -303 -251
q-7 26 -55 230z" />
    <glyph glyph-name="T" unicode="T" horiz-adv-x="514" 
d="M387 41l-194 -41v1174l-193 -23v205l549 78v-213l-162 -23v-1157z" />
    <glyph glyph-name="U" unicode="U" horiz-adv-x="700" 
d="M252 0l-1 1q-193 0 -193 385q0 173 9 497q10 354 11 459q11 5 38 15q24 9 75 30q45 18 83 33l35 13q-35 -511 -35 -820q0 -317 21 -381t87 -64q119 0 119 471v731q101 40 176 60q0 -700 -2 -778t-2 -111q0 -45 -5 -123q-4 -67 -29 -157q-24 -88 -67 -138
q-44 -51 -124 -87q-81 -36 -196 -36z" />
    <glyph glyph-name="V" unicode="V" horiz-adv-x="610" 
d="M330 457l170 942l157 35l-262 -1395l-186 -39l-220 1376l199 56z" />
    <glyph glyph-name="W" unicode="W" horiz-adv-x="1099" 
d="M766 457l145 942l179 35l-228 -1393l-200 -41l-136 954l-149 -919l-160 -33l-192 1374l174 56l123 -975l147 921l172 54z" />
    <glyph glyph-name="X" unicode="X" horiz-adv-x="821" 
d="M29 0l270 722q-133 349 -287 631l215 78l183 -578l172 555q109 7 217 24q-29 -76 -123 -330t-150 -390q60 -132 283 -669l-209 -43l-180 582l-182 -539z" />
    <glyph glyph-name="Y" unicode="Y" horiz-adv-x="688" 
d="M-83 1286l244 101l221 -620q18 79 144 625q129 21 220 41q-23 -82 -49 -173t-57.5 -201t-48.5 -170q-77 -269 -144 -504q-77 -268 -100 -346l-213 -37l168 604q-56 113 -192 334q-134 217 -193 346z" />
    <glyph glyph-name="Z" unicode="Z" horiz-adv-x="671" 
d="M39 1376l562 57l-305 -1225q22 4 156 39t171 42v-242l-598 -47l329 1188l-315 -33v221z" />
    <glyph glyph-name="bracketleft" unicode="[" horiz-adv-x="538" 
d="M338 1403v-1472l201 41v-233l-400 -45v1895l361 49v-213z" />
    <glyph glyph-name="backslash" unicode="\" horiz-adv-x="626" 
d="M53 1434l223 -27l320 -1407h-199z" />
    <glyph glyph-name="bracketright" unicode="]" horiz-adv-x="468" 
d="M223 -69v1451h-162v215l361 -20v-1883h-399v237h200z" />
    <glyph glyph-name="asciicircum" unicode="^" 
d="M313 1731l93 16l161 -234l-131 -18l-78 160l-77 -160l-142 -14z" />
    <glyph glyph-name="underscore" unicode="_" horiz-adv-x="655" 
d="M618 6l-577 -23v134l577 24v-135z" />
    <glyph glyph-name="grave" unicode="`" 
d="M176 1747h170l72 -236l-135 -26z" />
    <glyph glyph-name="a" unicode="a" 
d="M469 1434l221 -1395l-188 -39l-51 297l-236 -49l-37 -211l-178 -37l262 1389zM240 393l186 39l-78 541z" />
    <glyph glyph-name="b" unicode="b" horiz-adv-x="602" 
d="M598 1167l-1 -2q0 -205 -227 -612q63 0 138 -36t75 -162q0 -84 -44 -154q-43 -69 -141 -123q-96 -53 -198 -67l-45 -6l-99 -5q-4 7 -6 356l-2 328q-1 291 14 635q46 46 127 80q84 35 153 35q256 -1 256 -267zM335 1249h1q-34 0 -74 -30l-20 -603q158 286 156 543
q0 90 -63 90zM379 331h2q0 47 -27 85q-27 37 -73 37q-17 0 -36 -6v-285q13 0 41 11q27 11 45 27t33 50q15 33 15 81z" />
    <glyph glyph-name="c" unicode="c" horiz-adv-x="655" 
d="M440 0l-4 -2q-50 0 -89 7q-41 7 -103 42q-60 34 -103 95q-41 59 -73 175q-31 114 -31 285q0 170 30 323q31 156 97 293q61 125 135 189l29 25l145 -172q-109 -118 -172 -285t-63 -339t42 -303t126 -131q46 0 78 41t39 81l8 41l156 -109q-19 -97 -86 -177
q-66 -79 -161 -79z" />
    <glyph glyph-name="d" unicode="d" horiz-adv-x="647" 
d="M649 1098h1q0 -335 -389 -1063l-192 -35l41 1288q46 58 128 102t153 44q258 0 258 -336zM470 1090v-1q0 51 -27 83t-58 32t-75 -39l-47 -864q207 477 207 789z" />
    <glyph glyph-name="e" unicode="e" horiz-adv-x="552" 
d="M516 1212l-1 2q-25 -1 -129 -11t-128 -11v-404l205 48v-150l-205 -25v-454q171 35 272 60l-14 -223q-236 -17 -479 -42q0 46 9 327q9 280 9 994l475 111z" />
    <glyph glyph-name="f" unicode="f" horiz-adv-x="552" 
d="M59 1348l471 75l-20 -219l-252 -30v-388l205 48v-150l-203 -25l16 -610l-239 -49q7 604 22 1348z" />
    <glyph glyph-name="g" unicode="g" horiz-adv-x="731" 
d="M418 0l-4 -1q-110 0 -187 62q-78 63 -135 213t-57 354q0 205 49 356q50 154 163 279q115 127 276 167l90 -160q-113 -56 -192 -132t-135 -195q-55 -117 -55 -265t28 -269q29 -124 73 -176q45 -52 110 -52q43 0 70 48t27 137v98l-142 -12l11 172l297 26q21 0 16 -284
q-3 -125 -39 -210q-66 -156 -264 -156z" />
    <glyph glyph-name="h" unicode="h" horiz-adv-x="679" 
d="M627 1430l-39 -1389l-189 -39l11 457l-152 -21l-6 -399l-189 -39v1397l211 37l-14 -859l156 19v809z" />
    <glyph glyph-name="i" unicode="i" horiz-adv-x="333" 
d="M274 1110l-22 -1069l-189 -41v1098zM199 1456l-2 -1q72 0 102 -35t29 -86q-2 -52 -42 -101q-41 -50 -123 -50q-83 0 -120 30t-37 77q0 166 193 166z" />
    <glyph glyph-name="j" unicode="j" horiz-adv-x="616" 
d="M285 0q-297 0 -304 375l148 153q51 -303 135 -303q44 0 59 114t15 395q0 227 -2 441l-213 -23v205l569 78v-213l-157 -23v-782q0 -327 -96 -372t-154 -45z" />
    <glyph glyph-name="k" unicode="k" horiz-adv-x="692" 
d="M242 94l-1 -48l-219 -45l51 1384l227 50l-49 -744q79 145 149 351q71 210 77 353l223 39q-6 -119 -88 -339t-159 -382l-78 -164q29 -86 142 -180q114 -95 198 -150l-166 -215q-185 150 -264 340l-37 -12q-2 -27 -6 -238z" />
    <glyph glyph-name="l" unicode="l" horiz-adv-x="509" 
d="M88 1393l217 41l-31 -1233l246 65l-51 -231l-385 -35z" />
    <glyph glyph-name="m" unicode="m" horiz-adv-x="788" 
d="M457 0h-118q-12 126 -47 290q-30 139 -63 255l-28 96l20 -604l-178 -37q21 368 33 1143l4 266l201 25l114 -830h4l117 793l201 37q12 -1019 37 -1397l-181 -35l23 639q-112 -346 -139 -641z" />
    <glyph glyph-name="n" unicode="n" horiz-adv-x="634" 
d="M53 1386l175 34l177 -962v942l200 31l-39 -1389l-202 -42q-19 130 -61 285q-36 133 -78 256l-32 94l51 -598l-191 -35v1384z" />
    <glyph glyph-name="o" unicode="o" horiz-adv-x="665" 
d="M638 1036v-4q0 -31 1.5 -98t1.5 -129.5t-3 -122.5q-10 -202 -42 -342q-31 -138 -83 -210q-52 -71 -108 -98q-55 -26 -127 -23q-285 13 -252 721q24 512 159 607q137 96 254 93q45 -2 63 -10q20 -9 51 -51q32 -43 53 -114q32 -110 32 -219zM346 1195q-32 2 -56 -48
t-40 -153t-24 -258q-10 -192 12 -348q22 -155 63 -169q38 -2 81 157t51 323q8 167 -10 329q-18 164 -77 167z" />
    <glyph glyph-name="p" unicode="p" horiz-adv-x="647" 
d="M643 1167v-2q0 -158 -120 -404q-121 -249 -265 -459q-6 -74 -6 -261l-197 -41l54 1319q46 46 126 80q82 35 152 35q256 -1 256 -267zM444 1159q0 90 -63 90q-33 0 -74 -30l-47 -603q184 334 184 543z" />
    <glyph glyph-name="q" unicode="q" horiz-adv-x="665" 
d="M457 66h-1q90 -96 211 -163l-150 -193q-149 149 -235 300h-4q-286 0 -252 721q24 512 159 607q137 96 254 93q45 -2 63 -10q21 -10 92 -103q72 -94 46 -604q-26 -512 -183 -648zM345 1200q-32 2 -56 -48t-40 -153t-24 -258q-11 -192 12 -348q22 -155 63 -169
q38 -2 81 157t51 323q8 167 -10 329q-18 164 -77 167z" />
    <glyph glyph-name="r" unicode="r" horiz-adv-x="673" 
d="M387 1434v-1q256 0 256 -267q0 -103 -67 -271q-58 -145 -138 -286l-67 -118q6 -15 16 -37q12 -26 90 -102q79 -77 199 -156l-150 -193q-167 135 -237 307l-31 -8q-6 -74 -6 -261l-197 -41l54 1319q46 46 126 80q82 35 152 35zM444 1160q0 90 -63 90q-33 0 -74 -30
l-47 -603q184 334 184 543z" />
    <glyph glyph-name="s" unicode="s" horiz-adv-x="559" 
d="M37 207l1 2q250 150 250 284q0 47 -37 111t-81 117t-81 130t-37 162q0 84 44 161q44 76 144 150q78 57 198 99l43 15l76 -179q-190 -63 -247 -138t-57 -109q0 -33 11 -63q10 -27 24 -49t43 -61q46 -63 53 -73q107 -168 107 -297q0 -127 -96 -241q-97 -115 -303 -251
q-7 26 -55 230z" />
    <glyph glyph-name="t" unicode="t" horiz-adv-x="514" 
d="M387 41l-194 -41v1174l-193 -23v205l549 78v-213l-162 -23v-1157z" />
    <glyph glyph-name="u" unicode="u" horiz-adv-x="700" 
d="M252 0l-1 1q-193 0 -193 385q0 173 9 497q10 354 11 459q11 5 38 15q24 9 75 30q45 18 83 33l35 13q-35 -511 -35 -820q0 -317 21 -381t87 -64q119 0 119 471v731q101 40 176 60q0 -700 -2 -778t-2 -111q0 -45 -5 -123q-4 -67 -29 -157q-24 -88 -67 -138
q-44 -51 -124 -87q-81 -36 -196 -36z" />
    <glyph glyph-name="v" unicode="v" horiz-adv-x="610" 
d="M330 457l170 942l157 35l-262 -1395l-186 -39l-220 1376l199 56z" />
    <glyph glyph-name="w" unicode="w" horiz-adv-x="1099" 
d="M766 457l145 942l179 35l-228 -1393l-200 -41l-136 954l-149 -919l-160 -33l-192 1374l174 56l123 -975l147 921l172 54z" />
    <glyph glyph-name="x" unicode="x" horiz-adv-x="821" 
d="M29 0l270 722q-133 349 -287 631l215 78l183 -578l172 555q109 7 217 24q-29 -76 -123 -330t-150 -390q60 -132 283 -669l-209 -43l-180 582l-182 -539z" />
    <glyph glyph-name="y" unicode="y" horiz-adv-x="688" 
d="M-83 1286l244 101l221 -620q18 79 144 625q129 21 220 41q-23 -82 -49 -173t-57.5 -201t-48.5 -170q-77 -269 -144 -504q-77 -268 -100 -346l-213 -37l168 604q-56 113 -192 334q-134 217 -193 346z" />
    <glyph glyph-name="z" unicode="z" horiz-adv-x="671" 
d="M39 1376l562 57l-305 -1225q22 4 156 39t171 42v-242l-598 -47l329 1188l-315 -33v221z" />
    <glyph glyph-name="braceleft" unicode="{" horiz-adv-x="567" 
d="M397 570h-1q0 -62 -40 -207t-40 -201q0 -54 6 -75t37 -55t213 -34v-221q-44 -2 -94 -2q-224 0 -315 62q-90 61 -90 170t45 264q48 164 53 186q5 21 17 65q2 8 5.5 19.5t5.5 19t3 12.5l-237 19v207l237 18l-13 52q-15 56 -17 66q-6 24 -53 188q-45 156 -45 265
q0 110 90 171q91 62 315 62q50 0 94 -2v-221q-181 0 -213 -35q-31 -34 -37 -55t-6 -75q0 -56 40 -201t40 -208q0 -62 -49 -124v-8q49 -61 49 -122z" />
    <glyph glyph-name="bar" unicode="|" horiz-adv-x="430" 
d="M315 1622l-22 -1846l-191 -41v1875z" />
    <glyph glyph-name="braceright" unicode="}" horiz-adv-x="567" 
d="M141 570l-1 1q0 61 49 122v8q-49 64 -49 124q0 61 40 208t40 202q0 52 -5 75q-5 22 -36 56q-32 35 -212 35v221q44 2 93 2q226 0 315 -61q90 -61 90 -184q0 -90 -59 -300q-58 -209 -69 -258l237 -18v-207l-237 -19q17 -77 72 -270q56 -195 56 -303q0 -106 -90 -168
q-89 -61 -316 -61q-49 0 -93 2v221q183 0 214 34q32 34 36 54q5 22 5 75q0 57 -40 202t-40 207z" />
    <glyph glyph-name="asciitilde" unicode="~" 
d="M228 1671h-2q48 0 124 -30t99 -30q39 0 51 23q11 20 25 63l115 -15q-28 -174 -192 -174q-50 0 -115 24q-64 24 -88 24q-55 0 -72 -57l-111 29q17 50 68 97q49 46 98 46z" />
    <glyph glyph-name="exclamdown" unicode="&#xa1;" horiz-adv-x="442" 
d="M311 1057l-20 -1173l-252 -24l80 1197h192zM252 1432l-2 1q72 0 102 -35t29 -86t-42 -102t-123 -51t-120 30q-37 30 -37 77q0 166 193 166z" />
    <glyph glyph-name="cent" unicode="&#xa2;" horiz-adv-x="708" 
d="M66 680l-1 -2q0 188 69 348q69 161 192 206l-23 192h195l-27 -190q59 -22 102 -84t60 -129l-141 -98q0 11 -24 78q-24 68 -95 68q-62 0 -105 -130q-43 -129 -43 -280t37 -243q38 -93 111 -93q43 0 73 36q28 34 38 74l9 35l141 -96q-17 -80 -67 -144q-51 -65 -124 -78
l-6 -144l-137 -6l8 162q-118 45 -180 188q-62 144 -62 330z" />
    <glyph glyph-name="sterling" unicode="&#xa3;" horiz-adv-x="890" 
d="M213 760h-1q0 292 72 429q72 136 263 136q161 0 246 -63l-103 -123q-45 26 -104 26q-114 -2 -146 -93q-33 -93 -33 -367l227 40v-165l-223 -43q5 -277 9 -314q150 -57 182 -57t51 15t27 30q9 19 20 48q12 32 18 43l178 -22q-26 -146 -108 -210t-178 -64q-95 0 -195 38
t-135 38q-88 0 -114 -87l-173 44q23 69 91 138q66 67 147 81q-12 241 -12 248l-180 -31v166l174 31v88z" />
    <glyph glyph-name="yen" unicode="&#xa5;" horiz-adv-x="688" 
d="M-83 1286l246 100l221 -620q18 79 144 625q129 21 220 41q-19 -67 -238 -832h78l-8 -131h-109l-37 -133h135l-10 -131h-164q-44 -149 -48 -166l-213 -37l58 209h-89l11 131h114l37 133h-143l10 131h170q-56 113 -192 334q-134 217 -193 346z" />
    <glyph glyph-name="section" unicode="&#xa7;" horiz-adv-x="692" 
d="M416 1120v-3q0 -29 12 -50q10 -18 107 -124q95 -104 95 -229q2 -128 -210 -264q18 -51 18 -95q0 -92 -85 -174q-87 -84 -271 -182q-6 17 -49 167q139 70 181 123t42 91q0 40 -52 101q-49 57 -105 131q-52 68 -52 143q0 160 219 256q-30 53 -30 114t39 117t126 108
q72 43 181 75l39 11l67 -131q-7 -3 -28 -10q-26 -9 -65 -25q-51 -22 -83 -40q-36 -21 -66 -51t-30 -59zM446 730h1q0 61 -84 154q-137 -66 -137 -133q0 -35 21 -63q19 -26 83 -96q116 77 116 138z" />
    <glyph glyph-name="dieresis" unicode="&#xa8;" horiz-adv-x="548" 
d="M156 1647l1 -2q37 0 54 -18q18 -20 18 -43q1 -49 -24 -76.5t-72 -27.5h-10q-78 0 -78 57v14q0 85 102 96h9zM419 1665q69 0 71 -63q1 -94 -96 -103h-14q-72 0 -72 58v14q0 83 103 94h8z" />
    <glyph glyph-name="copyright" unicode="&#xa9;" horiz-adv-x="1216" 
d="M723 1253l-1 -2q291 2 335 -156q44 -159 44 -369q0 -211 -111 -358t-363 -147q-166 0 -270 26q-101 25 -139 60q-37 34 -69 101q-31 66 -30 232q0 168 13 258q14 94 48 158q35 65 108 131q74 66 435 66zM640 447l-3 2q-49 0 -73 77q-24 76 -24 168q0 220 137 372l-86 100
q-23 -15 -96 -114q-73 -98 -73 -376q0 -112 26 -188q26 -75 80 -116q55 -41 120 -41t104 45t51 104l-90 64q-7 -40 -27 -69q-19 -28 -46 -28z" />
    <glyph glyph-name="ordfeminine" unicode="&#xaa;" horiz-adv-x="385" 
d="M260 1434l113 -713l-97 -21l-26 152l-119 -25l-20 -108l-91 -19l134 711zM143 901l95 21l-39 276z" />
    <glyph glyph-name="guillemotleft" unicode="&#xab;" horiz-adv-x="919" 
d="M51 528v152l402 297v-205q-218 -146 -246 -166q67 -34 143 -95q85 -68 106 -85v-186q-106 80 -405 288zM614 606q85 -44 248 -180v-186q-22 16 -405 288l2 152l401 297v-205q-218 -144 -246 -166z" />
    <glyph glyph-name="logicalnot" unicode="&#xac;" horiz-adv-x="849" 
d="M713 776l12 -299l-158 -8v166l-493 -19v136z" />
    <glyph glyph-name="uni00AD" unicode="&#xad;" horiz-adv-x="626" 
d="M528 641l-454 -25v136l454 24v-135z" />
    <glyph glyph-name="registered" unicode="&#xae;" horiz-adv-x="1234" 
d="M723 1253l-1 -2q291 2 335 -156q44 -159 44 -369q0 -211 -111 -358t-363 -147q-166 0 -270 26q-101 25 -139 60q-37 34 -69 101q-31 66 -30 232q0 168 13 258q14 94 48 158q35 65 108 131q74 66 435 66zM783 1014h1q0 162 -157 162q-43 0 -93 -21t-78 -49l-33 -803
l121 25q0 120 4 159l18 7q44 -104 147 -189l90 117q-75 51 -120 94q-49 47 -57 66l-9 20q166 286 166 412zM625 1065q37 0 37 -55q0 -129 -111 -330l29 367q26 18 45 18z" />
    <glyph glyph-name="macron" unicode="&#xaf;" 
d="M633 1552l-549 -77v122l549 78v-123z" />
    <glyph glyph-name="uni00B2" unicode="&#xb2;" horiz-adv-x="442" 
d="M272 1226v-1q0 99 -43 99q-44 0 -93 -151l-98 73q62 140 102 164q41 24 74 24q166 0 166 -222q0 -160 -150 -340q18 1 72 8q55 7 68 8l-15 -141q-42 6 -84 6q-44 0 -99 -13q-50 -12 -86 -27l-31 -13l-43 103q260 266 260 423z" />
    <glyph glyph-name="uni00B3" unicode="&#xb3;" horiz-adv-x="432" 
d="M230 1434q53 0 104 -54t51 -139t-90 -186q94 -39 94 -148q0 -207 -188 -207q-71 0 -159 33l51 123q44 -29 92 -29q51 0 76.5 19.5t24.5 58.5q0 25 -21 43t-48 18l-76 -15q-18 97 -18 126q57 0 111 60t54 117q0 23 -13 42q-14 20 -30 20q-52 0 -109 -139l-84 55
q26 70 42 105q16 34 50 66q32 31 86 31z" />
    <glyph glyph-name="acute" unicode="&#xb4;" horiz-adv-x="563" 
d="M264 1735h170l-117 -224l-147 -32z" />
    <glyph glyph-name="uni00B5" unicode="&#xb5;" horiz-adv-x="788" 
d="M457 0h-118q-12 126 -47 290q-30 139 -63 255l-28 96l20 -604l-178 -37q21 368 33 1143l4 266l201 25l114 -830h4l117 793l201 37q12 -1019 37 -1397l-181 -35l23 639q-112 -346 -139 -641z" />
    <glyph glyph-name="paragraph" unicode="&#xb6;" horiz-adv-x="880" 
d="M55 1167h1q0 266 256 267q66 0 165 -38q101 -39 344 -150l-24 -227l-68 33l59 -1175l-77 14l-49 1195l-66 33l47 -1219h-197q0 330 -6 404q-144 210 -265 459q-120 246 -120 404z" />
    <glyph glyph-name="cedilla" unicode="&#xb8;" horiz-adv-x="542" 
d="M446 -209l-1 -1q0 -117 -95 -143q-96 -26 -207 -26v113q176 0 176 57q0 43 -50 66q-49 22 -107 24l14 181l103 5l-11 -133q100 0 139 -44t39 -99z" />
    <glyph glyph-name="uni00B9" unicode="&#xb9;" horiz-adv-x="380" 
d="M211 1421l78 11v-705l-111 -27v590l-117 -45v131z" />
    <glyph glyph-name="ordmasculine" unicode="&#xba;" horiz-adv-x="423" 
d="M377 1051v-1q0 -185 -67 -276q-54 -73 -145 -70q-171 7 -150 366q14 225 81 294q66 68 177 63q86 -3 98 -137q6 -68 6 -239zM203 1310h-1q-15 2 -27 -14t-21 -51q-19 -71 -23 -167q-4 -97 9 -178t38 -87q23 0 47 81q25 83 29 165q5 84 -6 167q-11 84 -45 84z" />
    <glyph glyph-name="guillemotright" unicode="&#xbb;" horiz-adv-x="919" 
d="M862 680l1 -152q-299 -208 -405 -288v186q32 26 108 87t141 93q-28 22 -246 166v205zM454 680v-153q-382 -271 -405 -288v186q5 4 29.5 24t39.5 32q25 20 77 62q40 32 103 63q-28 22 -246 166v205z" />
    <glyph glyph-name="onequarter" unicode="&#xbc;" horiz-adv-x="972" 
d="M170 1421l78 11v-707l-111 -27v592l-117 -45v131zM496 1407l223 27l-344 -1434h-199zM958 182h-71v-153l-113 -29v186h-219l-23 127l240 459l115 23v-471l71 4v-146zM774 324v225q-78 -147 -117 -225h117z" />
    <glyph glyph-name="onehalf" unicode="&#xbd;" horiz-adv-x="964" 
d="M170 1421l78 11v-707l-111 -27v592l-117 -45v131zM496 1407l223 27l-344 -1434h-199zM827 524v1q0 103 -41 103q-25 1 -49 -39t-47 -119l-100 78q62 145 103 167q43 23 75 23q172 0 172 -227q0 -161 -154 -351q64 8 142 16l-15 -143l-73 6q-102 8 -205 -40l-29 -14
l-43 103q106 112 178 211q86 118 86 225z" />
    <glyph glyph-name="threequarters" unicode="&#xbe;" horiz-adv-x="1196" 
d="M268 1434v-3q56 0 111 -55q56 -56 56 -144t-96 -192q102 -39 102 -151q0 -213 -202 -213q-81 0 -171 35l53 125q47 -29 110 -29q95 0 97 80q0 26 -22 42q-23 17 -51 17l-84 -12q-18 100 -18 129q63 0 120 63t57 122q0 22 -14 44q-13 21 -38 21q-24 0 -58 -48
q-34 -47 -52 -97l-92 60q26 72 43 106q18 36 56 68t93 32zM664 1404l223 27l-344 -1433h-199zM1063 312h1q45 0 69 7v-144h-68v-151l-113 -28v183h-215l-24 123l237 455l113 20v-465zM953 312v224q-111 -219 -114 -224h114z" />
    <glyph glyph-name="questiondown" unicode="&#xbf;" horiz-adv-x="763" 
d="M651 674l2 -1q0 -49 -38 -93q-38 -45 -93 -77l-150 -90q-95 -57 -102 -178q16 -142 282 -142q90 0 176 12q-12 -84 -33 -224q-95 -21 -202 -21q-198 2 -326 95q-129 93 -129 302q0 91 41 165q40 73 98 117q60 46 114 77q56 33 98 65q42 33 41 60l-18 297h221
q18 -315 18 -364zM537 1439l-1 1q72 0 102 -35t29 -86t-42 -102t-125 -51t-120 30t-36 77q0 166 193 166z" />
    <glyph glyph-name="Agrave" unicode="&#xc0;" 
d="M176 1747h170l72 -236l-135 -26zM469 1434l221 -1395l-188 -39l-51 297l-236 -49l-37 -211l-178 -37l262 1389zM240 393l186 39l-78 541z" />
    <glyph glyph-name="Aacute" unicode="&#xc1;" horiz-adv-x="694" 
d="M379 1735h170l-117 -224l-147 -32zM469 1434l221 -1395l-188 -39l-51 297l-236 -49l-37 -211l-178 -37l262 1389zM240 393l186 39l-78 541z" />
    <glyph glyph-name="Acircumflex" unicode="&#xc2;" 
d="M469 1434l221 -1395l-188 -39l-51 297l-236 -49l-37 -211l-178 -37l262 1389zM240 393l186 39l-78 541zM313 1731l93 16l161 -234l-131 -18l-78 160l-77 -160l-142 -14z" />
    <glyph glyph-name="Atilde" unicode="&#xc3;" 
d="M228 1671h-2q48 0 124 -30t99 -30q39 0 51 23q11 20 25 63l115 -15q-28 -174 -192 -174q-50 0 -115 24q-64 24 -88 24q-55 0 -72 -57l-111 29q17 50 68 97q49 46 98 46zM467 1434l221 -1395l-188 -39l-51 297l-236 -49l-37 -211l-177 -37l261 1389zM238 393l186 39
l-78 541z" />
    <glyph glyph-name="Adieresis" unicode="&#xc4;" 
d="M246 1647l1 -2q37 0 54 -18q18 -20 18 -43q1 -49 -24 -76.5t-72 -27.5h-10q-78 0 -78 57v14q0 85 103 96h8zM509 1665q71 0 72 -63q3 -94 -97 -103h-14q-72 0 -72 58v14q0 83 103 94h8zM470 1432l221 -1395l-188 -38l-51 296l-236 -49l-37 -211l-178 -36l262 1388z
M241 391l186 39l-78 541z" />
    <glyph glyph-name="Aring" unicode="&#xc5;" 
d="M371 1759l2 -2q57 0 84 -28q29 -31 29 -67q1 -79 -39 -124.5t-116 -45.5h-17q-55 0 -88 27q-36 29 -36 68v19q0 133 164 153h17zM356 1669l-7 -3q-55 -7 -55 -54q0 -39 41 -39h8q55 0 55 60q0 12 -12 24t-30 12zM472 1429l221 -1395l-188 -38l-51 296l-236 -49l-37 -211
l-178 -36l262 1388zM243 388l186 39l-78 541z" />
    <glyph glyph-name="AE" unicode="&#xc6;" horiz-adv-x="1243" 
d="M469 1434l221 -1395l-188 -39l-51 297l-236 -49l-37 -211l-178 -37l262 1389zM240 393l186 39l-78 541zM1206 1212l-1 2q-25 -1 -129 -11t-128 -11v-404l205 48v-150l-205 -25v-454q168 35 273 60l-15 -223q-236 -17 -479 -42q0 46 9 327q9 280 9 994l476 111z" />
    <glyph glyph-name="Ccedilla" unicode="&#xc7;" horiz-adv-x="655" 
d="M440 0l-3 -2q-28 0 -54 2l-4 -68q100 0 139 -44t39 -99q0 -117 -96 -143q-98 -26 -207 -26v113q176 0 176 57q0 43 -50 66q-50 22 -108 24l11 147q-246 107 -246 565q0 180 30 333q31 156 97 293q61 125 135 189l29 25l145 -172q-109 -118 -172 -285t-63 -339t42 -303
t126 -131q46 0 78 41t39 81l8 41l156 -109q-19 -97 -86 -177q-66 -79 -161 -79z" />
    <glyph glyph-name="Egrave" unicode="&#xc8;" horiz-adv-x="552" 
d="M516 1212l-1 2q-25 -1 -129 -11t-128 -11v-404l205 48v-150l-205 -25v-454q171 35 272 60l-14 -223q-236 -17 -479 -42q0 46 9 327q9 280 9 994l475 111zM89 1700h170l72 -236l-135 -26z" />
    <glyph glyph-name="Eacute" unicode="&#xc9;" horiz-adv-x="552" 
d="M516 1212l-1 2q-25 -1 -129 -11t-128 -11v-404l205 48v-150l-205 -25v-454q171 35 272 60l-14 -223q-236 -17 -479 -42q0 46 9 327q9 280 9 994l475 111zM257 1692h170l-117 -224l-147 -32z" />
    <glyph glyph-name="Ecircumflex" unicode="&#xca;" horiz-adv-x="552" 
d="M516 1212l-1 2q-25 -1 -129 -11t-128 -11v-404l205 48v-150l-205 -25v-454q171 35 272 60l-14 -223q-236 -17 -479 -42q0 46 9 327q9 280 9 994l475 111zM226 1718l92 17l162 -234l-131 -18l-78 159l-77 -159l-142 -15z" />
    <glyph glyph-name="Edieresis" unicode="&#xcb;" horiz-adv-x="552" 
d="M516 1212l-1 2q-25 -1 -129 -11t-128 -11v-404l205 48v-150l-205 -25v-454q171 35 272 60l-14 -223q-236 -17 -479 -42q0 46 9 327q9 280 9 994l475 111zM163 1634l-1 -1q37 0 55 -18q20 -20 20 -42q1 -96 -97 -105h-10q-78 0 -78 58v14q0 83 103 94h8zM424 1654
q71 0 72 -64q2 -48 -23.5 -75t-73.5 -27h-14q-72 0 -72 57v15q0 83 103 94h8z" />
    <glyph glyph-name="Igrave" unicode="&#xcc;" horiz-adv-x="333" 
d="M274 1110l-22 -1069l-189 -41v1098zM-62 1503h209l117 -297l-182 -6z" />
    <glyph glyph-name="Iacute" unicode="&#xcd;" horiz-adv-x="333" 
d="M274 1110l-22 -1069l-189 -41v1098zM197 1503h211l-146 -303l-182 -14z" />
    <glyph glyph-name="Icircumflex" unicode="&#xce;" horiz-adv-x="333" 
d="M274 1110l-22 -1069l-189 -41v1098zM100 1513l109 23l190 -313l-155 -25l-90 215l-93 -215l-164 -20z" />
    <glyph glyph-name="Idieresis" unicode="&#xcf;" horiz-adv-x="333" 
d="M274 1110l-22 -1069l-189 -41v1098zM53 1405l-1 -1q40 0 59 -22q21 -24 21 -51q1 -115 -104 -126h-11q-37 0 -60 21q-24 22 -24 50v16q0 101 110 113h10zM337 1429h1q39 0 57 -24q20 -27 20 -52q1 -112 -105 -123h-16q-70 0 -78 69v17q0 101 111 113h10z" />
    <glyph glyph-name="Eth" unicode="&#xd0;" 
d="M692 1098h1q0 -335 -389 -1063l-192 -35l22 750l-144 -27v121l148 28l15 416q46 58 128 102t153 44q258 0 258 -336zM513 1090v-1q0 51 -27 83t-58 32q-32 0 -75 -39l-14 -256l63 13v-123l-69 -15l-27 -483q207 477 207 789z" />
    <glyph glyph-name="Ntilde" unicode="&#xd1;" horiz-adv-x="634" 
d="M53 1386l175 34l177 -962v942l200 31l-39 -1389l-202 -42q-19 130 -61 285q-36 133 -78 256l-32 94l51 -598l-191 -35v1384zM165 1674v-1q47 0 123 -30q77 -30 98 -30q38 0 52 26q12 23 25 60l115 -14q-28 -173 -192 -175q-52 0 -114 25t-88 25q-56 0 -72 -58l-111 29
q17 50 68 97q49 46 96 46z" />
    <glyph glyph-name="Ograve" unicode="&#xd2;" horiz-adv-x="665" 
d="M638 1036v-4q0 -31 1.5 -98t1.5 -129.5t-3 -122.5q-10 -202 -42 -342q-31 -138 -83 -210q-52 -71 -108 -98q-55 -26 -127 -23q-285 13 -252 721q24 512 159 607q137 96 254 93q45 -2 63 -10q20 -9 51 -51q32 -43 53 -114q32 -110 32 -219zM346 1195q-32 2 -56 -48
t-40 -153t-24 -258q-10 -192 12 -348q22 -155 63 -169q38 -2 81 157t51 323q8 167 -10 329q-18 164 -77 167zM201 1764h170l71 -235l-135 -27z" />
    <glyph glyph-name="Oacute" unicode="&#xd3;" horiz-adv-x="665" 
d="M638 1036v-4q0 -31 1.5 -98t1.5 -129.5t-3 -122.5q-10 -202 -42 -342q-31 -138 -83 -210q-52 -71 -108 -98q-55 -26 -127 -23q-285 13 -252 721q24 512 159 607q137 96 254 93q45 -2 63 -10q20 -9 51 -51q32 -43 53 -114q32 -110 32 -219zM346 1195q-32 2 -56 -48
t-40 -153t-24 -258q-10 -192 12 -348q22 -155 63 -169q38 -2 81 157t51 323q8 167 -10 329q-18 164 -77 167zM369 1746h170l-117 -223l-148 -33z" />
    <glyph glyph-name="Ocircumflex" unicode="&#xd4;" horiz-adv-x="665" 
d="M638 1036v-4q0 -31 1.5 -98t1.5 -129.5t-3 -122.5q-10 -202 -42 -342q-31 -138 -83 -210q-52 -71 -108 -98q-55 -26 -127 -23q-285 13 -252 721q24 512 159 607q137 96 254 93q45 -2 63 -10q20 -9 51 -51q32 -43 53 -114q32 -110 32 -219zM346 1195q-32 2 -56 -48
t-40 -153t-24 -258q-10 -192 12 -348q22 -155 63 -169q38 -2 81 157t51 323q8 167 -10 329q-18 164 -77 167zM322 1734l92 16l161 -233l-131 -19l-77 160l-78 -160l-142 -14z" />
    <glyph glyph-name="Otilde" unicode="&#xd5;" horiz-adv-x="665" 
d="M638 1036v-4q0 -31 1.5 -98t1.5 -129.5t-3 -122.5q-10 -202 -42 -342q-31 -138 -83 -210q-52 -71 -108 -98q-55 -26 -127 -23q-285 13 -252 721q24 512 159 607q137 96 254 93q45 -2 63 -10q20 -9 51 -51q32 -43 53 -114q32 -110 32 -219zM346 1195q-32 2 -56 -48
t-40 -153t-24 -258q-10 -192 12 -348q22 -155 63 -169q38 -2 81 157t51 323q8 167 -10 329q-18 164 -77 167zM234 1654l-1 1q49 0 124 -31t99 -31q38 0 50 23q13 25 26 63l115 -14q-29 -174 -192 -174q-51 0 -115 24q-65 24 -88 24q-56 0 -72 -57l-110 29q18 51 67 97t97 46
z" />
    <glyph glyph-name="Odieresis" unicode="&#xd6;" horiz-adv-x="665" 
d="M638 1036v-4q0 -31 1.5 -98t1.5 -129.5t-3 -122.5q-10 -202 -42 -342q-31 -138 -83 -210q-52 -71 -108 -98q-55 -26 -127 -23q-285 13 -252 721q24 512 159 607q137 96 254 93q45 -2 63 -10q20 -9 51 -51q32 -43 53 -114q32 -110 32 -219zM346 1195q-32 2 -56 -48
t-40 -153t-24 -258q-10 -192 12 -348q22 -155 63 -169q38 -2 81 157t51 323q8 167 -10 329q-18 164 -77 167zM252 1660l-1 -1q37 0 55 -18q20 -20 20 -42q1 -96 -97 -105h-10q-78 0 -78 57v15q0 83 103 94h8zM513 1680v-1q71 0 72 -64q2 -48 -23.5 -75t-73.5 -27h-14
q-72 0 -72 57v14q0 85 103 96h8z" />
    <glyph glyph-name="multiply" unicode="&#xd7;" horiz-adv-x="632" 
d="M432 907l117 -96l-119 -127l150 -119l-88 -102l-156 123l-137 -150l-115 90l137 146l-153 119l88 104l153 -121z" />
    <glyph glyph-name="Oslash" unicode="&#xd8;" horiz-adv-x="665" 
d="M463 1430l-1 1q20 0 39 -9q21 -10 92 -103q72 -95 45 -630q-12 -253 -63 -408t-115 -210t-153 -60l-12 -146h-80l12 152q-232 63 -201 715q16 350 99 504t213 183l8 105l92 32l-10 -126h35zM431 693v1q0 184 -5.5 281t-25.5 160l-73 -889q35 50 66 186q38 165 38 261z
M318 1192q-74 -62 -89 -384q-15 -324 22 -487z" />
    <glyph glyph-name="Ugrave" unicode="&#xd9;" horiz-adv-x="700" 
d="M252 0l-1 1q-193 0 -193 385q0 173 9 497q10 354 11 459q11 5 38 15q24 9 75 30q45 18 83 33l35 13q-35 -511 -35 -820q0 -317 21 -381t87 -64q119 0 119 471v731q101 40 176 60q0 -700 -2 -778t-2 -111q0 -45 -5 -123q-4 -67 -29 -157q-24 -88 -67 -138
q-44 -51 -124 -87q-81 -36 -196 -36zM220 1746h170l72 -236l-135 -26z" />
    <glyph glyph-name="Uacute" unicode="&#xda;" horiz-adv-x="700" 
d="M252 0l-1 1q-193 0 -193 385q0 173 9 497q10 354 11 459q11 5 38 15q24 9 75 30q45 18 83 33l35 13q-35 -511 -35 -820q0 -317 21 -381t87 -64q119 0 119 471v731q101 40 176 60q0 -700 -2 -778t-2 -111q0 -45 -5 -123q-4 -67 -29 -157q-24 -88 -67 -138
q-44 -51 -124 -87q-81 -36 -196 -36zM433 1695h170l-117 -224l-147 -32z" />
    <glyph glyph-name="Ucircumflex" unicode="&#xdb;" horiz-adv-x="700" 
d="M252 0l-1 1q-193 0 -193 385q0 173 9 497q10 354 11 459q11 5 38 15q24 9 75 30q45 18 83 33l35 13q-35 -511 -35 -820q0 -317 21 -381t87 -64q119 0 119 471v731q101 40 176 60q0 -700 -2 -778t-2 -111q0 -45 -5 -123q-4 -67 -29 -157q-24 -88 -67 -138
q-44 -51 -124 -87q-81 -36 -196 -36zM345 1738l92 16l162 -233l-131 -19l-78 160l-78 -160l-141 -14z" />
    <glyph glyph-name="Udieresis" unicode="&#xdc;" horiz-adv-x="700" 
d="M266 1647l-1 -2q37 0 55 -18q20 -20 20 -43q1 -49 -24 -76.5t-72 -27.5h-11q-77 0 -77 57v14q0 85 102 96h8zM527 1665q71 0 72 -63q3 -94 -96 -103h-15q-71 0 -71 58v14q0 83 102 94h8zM251 -1l-1 1q-193 0 -193 384q0 173 9 497q10 354 11 459q11 5 38 15q24 9 75 30
q45 18 83 33l35 13q-35 -511 -35 -820q0 -317 21 -381t87 -64q119 0 119 471v731q101 40 176 60q0 -700 -2 -778t-2 -111q0 -45 -5 -123q-4 -67 -29 -157q-24 -88 -67 -138q-44 -51 -124 -87q-79 -35 -196 -35z" />
    <glyph glyph-name="Yacute" unicode="&#xdd;" horiz-adv-x="688" 
d="M-83 1286l244 101l221 -620q18 79 144 625q129 21 220 41q-23 -82 -49 -173t-57.5 -201t-48.5 -170q-77 -269 -144 -504q-77 -268 -100 -346l-213 -37l168 604q-56 113 -192 334q-134 217 -193 346zM359 1662h170l-116 -223l-148 -33z" />
    <glyph glyph-name="germandbls" unicode="&#xdf;" horiz-adv-x="722" 
d="M477 129l3 -3q34 0 63 66q29 67 29 158q0 186 -288 238v80l34 71q95 199 97 420q0 90 -64 90q-89 0 -145 -30v-1180l-172 -33v1325q50 38 153 70q100 31 170 31q256 0 256 -267q0 -160 -170 -486q137 -7 213 -105q77 -98 77 -249q0 -152 -82 -249t-196 -97q-71 0 -117 68
q-46 69 -63 155l113 96q0 -61 27 -115t62 -54z" />
    <glyph glyph-name="agrave" unicode="&#xe0;" 
d="M246 1647l1 -2q37 0 54 -18q18 -20 18 -43q1 -49 -24 -76.5t-72 -27.5h-10q-78 0 -78 57v14q0 85 103 96h8zM509 1665q71 0 72 -63q3 -94 -97 -103h-14q-72 0 -72 58v14q0 83 103 94h8zM470 1432l221 -1395l-188 -38l-51 296l-236 -49l-37 -211l-178 -36l262 1388z
M241 391l186 39l-78 541z" />
    <glyph glyph-name="aacute" unicode="&#xe1;" horiz-adv-x="694" 
d="M379 1735h170l-117 -224l-147 -32zM469 1434l221 -1395l-188 -39l-51 297l-236 -49l-37 -211l-178 -37l262 1389zM240 393l186 39l-78 541z" />
    <glyph glyph-name="acircumflex" unicode="&#xe2;" 
d="M469 1434l221 -1395l-188 -39l-51 297l-236 -49l-37 -211l-178 -37l262 1389zM240 393l186 39l-78 541zM313 1731l93 16l161 -234l-131 -18l-78 160l-77 -160l-142 -14z" />
    <glyph glyph-name="atilde" unicode="&#xe3;" 
d="M228 1671h-2q48 0 124 -30t99 -30q39 0 51 23q11 20 25 63l115 -15q-28 -174 -192 -174q-50 0 -115 24q-64 24 -88 24q-55 0 -72 -57l-111 29q17 50 68 97q49 46 98 46zM467 1434l221 -1395l-188 -39l-51 297l-236 -49l-37 -211l-177 -37l261 1389zM238 393l186 39
l-78 541z" />
    <glyph glyph-name="adieresis" unicode="&#xe4;" 
d="M176 1747h170l72 -236l-135 -26zM469 1434l221 -1395l-188 -39l-51 297l-236 -49l-37 -211l-178 -37l262 1389zM240 393l186 39l-78 541z" />
    <glyph glyph-name="aring" unicode="&#xe5;" 
d="M371 1759l2 -2q57 0 84 -28q29 -31 29 -67q1 -79 -39 -124.5t-116 -45.5h-17q-55 0 -88 27q-36 29 -36 68v19q0 133 164 153h17zM356 1669l-7 -3q-55 -7 -55 -54q0 -39 41 -39h8q55 0 55 60q0 12 -12 24t-30 12zM472 1429l221 -1395l-188 -38l-51 296l-236 -49l-37 -211
l-178 -36l262 1388zM243 388l186 39l-78 541z" />
    <glyph glyph-name="ae" unicode="&#xe6;" horiz-adv-x="1193" 
d="M1151 1212l-2 1q-25 -1 -129 -11t-128 -11v-404l205 48v-150l-205 -25v-454q171 35 272 60l-14 -223q-126 -8 -350 -29l-76 551q2 85 -16 329q-18 249 -18 429l475 111zM514 1435l221 -1395l-188 -39l-51 297l-236 -49l-37 -211l-178 -37l262 1389zM285 394l186 39
l-78 541z" />
    <glyph glyph-name="ccedilla" unicode="&#xe7;" horiz-adv-x="655" 
d="M440 0l-3 -2q-28 0 -54 2l-4 -68q100 0 139 -44t39 -99q0 -117 -96 -143q-98 -26 -207 -26v113q176 0 176 57q0 43 -50 66q-50 22 -108 24l11 147q-246 107 -246 565q0 180 30 333q31 156 97 293q61 125 135 189l29 25l145 -172q-109 -118 -172 -285t-63 -339t42 -303
t126 -131q46 0 78 41t39 81l8 41l156 -109q-19 -97 -86 -177q-66 -79 -161 -79z" />
    <glyph glyph-name="egrave" unicode="&#xe8;" horiz-adv-x="552" 
d="M516 1212l-1 2q-25 -1 -129 -11t-128 -11v-404l205 48v-150l-205 -25v-454q171 35 272 60l-14 -223q-236 -17 -479 -42q0 46 9 327q9 280 9 994l475 111zM89 1700h170l72 -236l-135 -26z" />
    <glyph glyph-name="eacute" unicode="&#xe9;" horiz-adv-x="552" 
d="M516 1212l-1 2q-25 -1 -129 -11t-128 -11v-404l205 48v-150l-205 -25v-454q171 35 272 60l-14 -223q-236 -17 -479 -42q0 46 9 327q9 280 9 994l475 111zM257 1692h170l-117 -224l-147 -32z" />
    <glyph glyph-name="ecircumflex" unicode="&#xea;" horiz-adv-x="552" 
d="M516 1212l-1 2q-25 -1 -129 -11t-128 -11v-404l205 48v-150l-205 -25v-454q171 35 272 60l-14 -223q-236 -17 -479 -42q0 46 9 327q9 280 9 994l475 111zM226 1718l92 17l162 -234l-131 -18l-78 159l-77 -159l-142 -15z" />
    <glyph glyph-name="edieresis" unicode="&#xeb;" horiz-adv-x="552" 
d="M516 1212l-1 2q-25 -1 -129 -11t-128 -11v-404l205 48v-150l-205 -25v-454q171 35 272 60l-14 -223q-236 -17 -479 -42q0 46 9 327q9 280 9 994l475 111zM163 1634l-1 -1q37 0 55 -18q20 -20 20 -42q1 -96 -97 -105h-10q-78 0 -78 58v14q0 83 103 94h8zM424 1654
q71 0 72 -64q2 -48 -23.5 -75t-73.5 -27h-14q-72 0 -72 57v15q0 83 103 94h8z" />
    <glyph glyph-name="igrave" unicode="&#xec;" horiz-adv-x="333" 
d="M274 1110l-22 -1069l-189 -41v1098zM-62 1503h209l117 -297l-182 -6z" />
    <glyph glyph-name="iacute" unicode="&#xed;" horiz-adv-x="333" 
d="M274 1110l-22 -1069l-189 -41v1098zM197 1503h211l-146 -303l-182 -14z" />
    <glyph glyph-name="icircumflex" unicode="&#xee;" horiz-adv-x="333" 
d="M274 1110l-22 -1069l-189 -41v1098zM100 1513l109 23l190 -313l-155 -25l-90 215l-93 -215l-164 -20z" />
    <glyph glyph-name="idieresis" unicode="&#xef;" horiz-adv-x="333" 
d="M274 1110l-22 -1069l-189 -41v1098zM53 1405l-1 -1q40 0 59 -22q21 -24 21 -51q1 -115 -104 -126h-11q-37 0 -60 21q-24 22 -24 50v16q0 101 110 113h10zM337 1429h1q39 0 57 -24q20 -27 20 -52q1 -112 -105 -123h-16q-70 0 -78 69v17q0 101 111 113h10z" />
    <glyph glyph-name="eth" unicode="&#xf0;" horiz-adv-x="823" 
d="M313 967l105 124q-67 90 -125 72q-84 -27 -60 -239l-233 141q-10 61 9 147q21 85 62 131q41 45 102 63q205 61 375 -158l100 121l221 -49l-223 -234q73 -142 116 -300q48 -177 57 -280q7 -79 5 -201q-2 -97 -57 -189q-54 -89 -190 -112q-136 -20 -252 83
q-118 105 -156 245q-38 141 13 257t162 151q110 34 238 -29q-39 131 -80 225l-70 -74zM375 517l-2 1q-37 -10 -55 -45q-18 -34 -4 -85q22 -84 110 -144q86 -60 148 -40q114 37 76 174q-21 81 -108 122q-89 42 -165 17z" />
    <glyph glyph-name="ntilde" unicode="&#xf1;" horiz-adv-x="634" 
d="M53 1386l175 34l177 -962v942l200 31l-39 -1389l-202 -42q-19 130 -61 285q-36 133 -78 256l-32 94l51 -598l-191 -35v1384zM165 1674v-1q47 0 123 -30q77 -30 98 -30q38 0 52 26q12 23 25 60l115 -14q-28 -173 -192 -175q-52 0 -114 25t-88 25q-56 0 -72 -58l-111 29
q17 50 68 97q49 46 96 46z" />
    <glyph glyph-name="ograve" unicode="&#xf2;" horiz-adv-x="665" 
d="M638 1036v-4q0 -31 1.5 -98t1.5 -129.5t-3 -122.5q-10 -202 -42 -342q-31 -138 -83 -210q-52 -71 -108 -98q-55 -26 -127 -23q-285 13 -252 721q24 512 159 607q137 96 254 93q45 -2 63 -10q20 -9 51 -51q32 -43 53 -114q32 -110 32 -219zM346 1195q-32 2 -56 -48
t-40 -153t-24 -258q-10 -192 12 -348q22 -155 63 -169q38 -2 81 157t51 323q8 167 -10 329q-18 164 -77 167zM201 1764h170l71 -235l-135 -27z" />
    <glyph glyph-name="oacute" unicode="&#xf3;" horiz-adv-x="665" 
d="M638 1036v-4q0 -31 1.5 -98t1.5 -129.5t-3 -122.5q-10 -202 -42 -342q-31 -138 -83 -210q-52 -71 -108 -98q-55 -26 -127 -23q-285 13 -252 721q24 512 159 607q137 96 254 93q45 -2 63 -10q20 -9 51 -51q32 -43 53 -114q32 -110 32 -219zM346 1195q-32 2 -56 -48
t-40 -153t-24 -258q-10 -192 12 -348q22 -155 63 -169q38 -2 81 157t51 323q8 167 -10 329q-18 164 -77 167zM369 1746h170l-117 -223l-148 -33z" />
    <glyph glyph-name="ocircumflex" unicode="&#xf4;" horiz-adv-x="665" 
d="M638 1036v-4q0 -31 1.5 -98t1.5 -129.5t-3 -122.5q-10 -202 -42 -342q-31 -138 -83 -210q-52 -71 -108 -98q-55 -26 -127 -23q-285 13 -252 721q24 512 159 607q137 96 254 93q45 -2 63 -10q20 -9 51 -51q32 -43 53 -114q32 -110 32 -219zM346 1195q-32 2 -56 -48
t-40 -153t-24 -258q-10 -192 12 -348q22 -155 63 -169q38 -2 81 157t51 323q8 167 -10 329q-18 164 -77 167zM322 1734l92 16l161 -233l-131 -19l-77 160l-78 -160l-142 -14z" />
    <glyph glyph-name="otilde" unicode="&#xf5;" horiz-adv-x="665" 
d="M638 1036v-4q0 -31 1.5 -98t1.5 -129.5t-3 -122.5q-10 -202 -42 -342q-31 -138 -83 -210q-52 -71 -108 -98q-55 -26 -127 -23q-285 13 -252 721q24 512 159 607q137 96 254 93q45 -2 63 -10q20 -9 51 -51q32 -43 53 -114q32 -110 32 -219zM346 1195q-32 2 -56 -48
t-40 -153t-24 -258q-10 -192 12 -348q22 -155 63 -169q38 -2 81 157t51 323q8 167 -10 329q-18 164 -77 167zM234 1654l-1 1q49 0 124 -31t99 -31q38 0 50 23q13 25 26 63l115 -14q-29 -174 -192 -174q-51 0 -115 24q-65 24 -88 24q-56 0 -72 -57l-110 29q18 51 67 97t97 46
z" />
    <glyph glyph-name="odieresis" unicode="&#xf6;" horiz-adv-x="665" 
d="M638 1036v-4q0 -31 1.5 -98t1.5 -129.5t-3 -122.5q-10 -202 -42 -342q-31 -138 -83 -210q-52 -71 -108 -98q-55 -26 -127 -23q-285 13 -252 721q24 512 159 607q137 96 254 93q45 -2 63 -10q20 -9 51 -51q32 -43 53 -114q32 -110 32 -219zM346 1195q-32 2 -56 -48
t-40 -153t-24 -258q-10 -192 12 -348q22 -155 63 -169q38 -2 81 157t51 323q8 167 -10 329q-18 164 -77 167zM252 1660l-1 -1q37 0 55 -18q20 -20 20 -42q1 -96 -97 -105h-10q-78 0 -78 57v15q0 83 103 94h8zM513 1680v-1q71 0 72 -64q2 -48 -23.5 -75t-73.5 -27h-14
q-72 0 -72 57v14q0 85 103 96h8z" />
    <glyph glyph-name="divide" unicode="&#xf7;" horiz-adv-x="802" 
d="M434 530v-1q50 0 74 -27t24 -62q0 -140 -133 -153h-14q-49 0 -78 24q-31 26 -31 62v20q0 123 144 137h14zM434 1123v-1q50 0 74 -27t24 -62q0 -140 -133 -153h-14q-49 0 -78 24q-31 26 -31 62v20q0 123 144 137h14zM731 639l-659 -25v136l659 24v-135z" />
    <glyph glyph-name="oslash" unicode="&#xf8;" horiz-adv-x="665" 
d="M463 1430l-1 1q20 0 39 -9q21 -10 92 -103q72 -95 45 -630q-12 -253 -63 -408t-115 -210t-153 -60l-12 -146h-80l12 152q-232 63 -201 715q16 350 99 504t213 183l8 105l92 32l-10 -126h35zM431 693v1q0 184 -5.5 281t-25.5 160l-73 -889q35 50 66 186q38 165 38 261z
M318 1192q-74 -62 -89 -384q-15 -324 22 -487z" />
    <glyph glyph-name="ugrave" unicode="&#xf9;" horiz-adv-x="700" 
d="M252 0l-1 1q-193 0 -193 385q0 173 9 497q10 354 11 459q11 5 38 15q24 9 75 30q45 18 83 33l35 13q-35 -511 -35 -820q0 -317 21 -381t87 -64q119 0 119 471v731q101 40 176 60q0 -700 -2 -778t-2 -111q0 -45 -5 -123q-4 -67 -29 -157q-24 -88 -67 -138
q-44 -51 -124 -87q-81 -36 -196 -36zM298 1744h119l-90 -209l-117 -31zM509 1744h119l-109 -209l-114 -23z" />
    <glyph glyph-name="uacute" unicode="&#xfa;" horiz-adv-x="700" 
d="M252 0l-1 1q-193 0 -193 385q0 173 9 497q10 354 11 459q11 5 38 15q24 9 75 30q45 18 83 33l35 13q-35 -511 -35 -820q0 -317 21 -381t87 -64q119 0 119 471v731q101 40 176 60q0 -700 -2 -778t-2 -111q0 -45 -5 -123q-4 -67 -29 -157q-24 -88 -67 -138
q-44 -51 -124 -87q-81 -36 -196 -36zM433 1695h170l-117 -224l-147 -32z" />
    <glyph glyph-name="ucircumflex" unicode="&#xfb;" horiz-adv-x="700" 
d="M252 0l-1 1q-193 0 -193 385q0 173 9 497q10 354 11 459q11 5 38 15q24 9 75 30q45 18 83 33l35 13q-35 -511 -35 -820q0 -317 21 -381t87 -64q119 0 119 471v731q101 40 176 60q0 -700 -2 -778t-2 -111q0 -45 -5 -123q-4 -67 -29 -157q-24 -88 -67 -138
q-44 -51 -124 -87q-81 -36 -196 -36zM345 1738l92 16l162 -233l-131 -19l-78 160l-78 -160l-141 -14z" />
    <glyph glyph-name="udieresis" unicode="&#xfc;" horiz-adv-x="700" 
d="M266 1647l-1 -2q37 0 55 -18q20 -20 20 -43q1 -49 -24 -76.5t-72 -27.5h-11q-77 0 -77 57v14q0 85 102 96h8zM527 1665q71 0 72 -63q3 -94 -96 -103h-15q-71 0 -71 58v14q0 83 102 94h8zM251 -1l-1 1q-193 0 -193 384q0 173 9 497q10 354 11 459q11 5 38 15q24 9 75 30
q45 18 83 33l35 13q-35 -511 -35 -820q0 -317 21 -381t87 -64q119 0 119 471v731q101 40 176 60q0 -700 -2 -778t-2 -111q0 -45 -5 -123q-4 -67 -29 -157q-24 -88 -67 -138q-44 -51 -124 -87q-79 -35 -196 -35z" />
    <glyph glyph-name="yacute" unicode="&#xfd;" horiz-adv-x="688" 
d="M-83 1286l244 101l221 -620q18 79 144 625q129 21 220 41q-23 -82 -49 -173t-57.5 -201t-48.5 -170q-77 -269 -144 -504q-77 -268 -100 -346l-213 -37l168 604q-56 113 -192 334q-134 217 -193 346zM359 1662h170l-116 -223l-148 -33z" />
    <glyph glyph-name="ydieresis" unicode="&#xff;" horiz-adv-x="688" 
d="M225 1647l-1 -2q37 0 55 -18q20 -20 20 -43q1 -49 -24 -76.5t-72 -27.5h-10q-78 0 -78 57v14q0 85 102 96h8zM486 1665q70 0 72 -63q3 -94 -96 -103h-14q-72 0 -72 58v14q0 83 102 94h8zM-84 1284l244 101l221 -620q18 79 144 625q129 21 220 41q-23 -82 -49 -173
t-57.5 -201t-48.5 -170q-76 -269 -144 -504q-77 -268 -100 -346l-213 -37l168 604q-56 113 -192 334q-134 217 -193 346z" />
    <glyph glyph-name="Amacron" unicode="&#x100;" 
d="M633 1552l-549 -77v122l549 78v-123zM469 1434l221 -1395l-188 -39l-51 297l-236 -49l-37 -211l-178 -37l262 1389zM240 393l186 39l-78 541z" />
    <glyph glyph-name="amacron" unicode="&#x101;" 
d="M633 1552l-549 -77v122l549 78v-123zM469 1434l221 -1395l-188 -39l-51 297l-236 -49l-37 -211l-178 -37l262 1389zM240 393l186 39l-78 541z" />
    <glyph glyph-name="Abreve" unicode="&#x102;" 
d="M285 1493l-23 -1q-56 -2 -84 24t-27 78q0 42 2 80l129 11v-62q0 -56 10 -72t48 -16q76 0 76 127v31l123 8v-53q0 -117 -85 -136q-67 -15 -169 -19zM467 1433l221 -1395l-188 -38l-51 296l-236 -49l-37 -211l-177 -36l261 1388zM238 392l186 39l-78 541z" />
    <glyph glyph-name="abreve" unicode="&#x103;" 
d="M285 1493l-23 -1q-56 -2 -84 24t-27 78q0 42 2 80l129 11v-62q0 -56 10 -72t48 -16q76 0 76 127v31l123 8v-53q0 -117 -85 -136q-67 -15 -169 -19zM467 1433l221 -1395l-188 -38l-51 296l-236 -49l-37 -211l-177 -36l261 1388zM238 392l186 39l-78 541z" />
    <glyph glyph-name="Aogonek" unicode="&#x104;" 
d="M537 -110l-1 -2q0 -57 161 -57h15v-113q-220 0 -261 57q-41 58 -41 116q0 95 88 128l-47 277l-236 -49l-37 -211l-178 -36l262 1388l207 45l225 -1453q-58 -2 -107 -24q-50 -23 -50 -66zM239 391l186 39l-78 541z" />
    <glyph glyph-name="aogonek" unicode="&#x105;" 
d="M537 -110l-1 -2q0 -57 161 -57h15v-113q-220 0 -261 57q-41 58 -41 116q0 95 88 128l-47 277l-236 -49l-37 -211l-178 -36l262 1388l207 45l225 -1453q-58 -2 -107 -24q-50 -23 -50 -66zM239 391l186 39l-78 541z" />
    <glyph glyph-name="Cacute" unicode="&#x106;" horiz-adv-x="655" 
d="M440 0l-4 -2q-50 0 -89 7q-41 7 -103 42q-60 34 -103 95q-41 59 -73 175q-31 114 -31 285q0 170 30 323q31 156 97 293q61 125 135 189l29 25l145 -172q-109 -118 -172 -285t-63 -339t42 -303t126 -131q46 0 78 41t39 81l8 41l156 -109q-19 -97 -86 -177
q-66 -79 -161 -79zM354 1730h170l-116 -224l-148 -32z" />
    <glyph glyph-name="cacute" unicode="&#x107;" horiz-adv-x="655" 
d="M440 0l-4 -2q-50 0 -89 7q-41 7 -103 42q-60 34 -103 95q-41 59 -73 175q-31 114 -31 285q0 170 30 323q31 156 97 293q61 125 135 189l29 25l145 -172q-109 -118 -172 -285t-63 -339t42 -303t126 -131q46 0 78 41t39 81l8 41l156 -109q-19 -97 -86 -177
q-66 -79 -161 -79zM354 1730h170l-116 -224l-148 -32z" />
    <glyph glyph-name="Ccircumflex" unicode="&#x108;" horiz-adv-x="655" 
d="M440 0l-4 -2q-50 0 -89 7q-41 7 -103 42q-60 34 -103 95q-41 59 -73 175q-31 114 -31 285q0 170 30 323q31 156 97 293q61 125 135 189l29 25l145 -172q-109 -118 -172 -285t-63 -339t42 -303t126 -131q46 0 78 41t39 81l8 41l156 -109q-19 -97 -86 -177
q-66 -79 -161 -79zM307 1744l103 18l180 -260l-145 -20l-89 178l-86 -178l-157 -17z" />
    <glyph glyph-name="ccircumflex" unicode="&#x109;" horiz-adv-x="655" 
d="M440 0l-4 -2q-50 0 -89 7q-41 7 -103 42q-60 34 -103 95q-41 59 -73 175q-31 114 -31 285q0 170 30 323q31 156 97 293q61 125 135 189l29 25l145 -172q-109 -118 -172 -285t-63 -339t42 -303t126 -131q46 0 78 41t39 81l8 41l156 -109q-19 -97 -86 -177
q-66 -79 -161 -79zM307 1744l103 18l180 -260l-145 -20l-89 178l-86 -178l-157 -17z" />
    <glyph glyph-name="Cdotaccent" unicode="&#x10a;" horiz-adv-x="655" 
d="M440 0l-4 -2q-50 0 -89 7q-41 7 -103 42q-60 34 -103 95q-41 59 -73 175q-31 114 -31 285q0 170 30 323q31 156 97 293q61 125 135 189l29 25l145 -172q-109 -118 -172 -285t-63 -339t42 -303t126 -131q46 0 78 41t39 81l8 41l156 -109q-19 -97 -86 -177
q-66 -79 -161 -79zM348 1750v2q47 0 68 -24q23 -26 23 -55q1 -121 -122 -133h-13q-44 0 -70 21q-27 22 -27 53v16q0 106 129 120h12z" />
    <glyph glyph-name="cdotaccent" unicode="&#x10b;" horiz-adv-x="655" 
d="M440 0l-4 -2q-50 0 -89 7q-41 7 -103 42q-60 34 -103 95q-41 59 -73 175q-31 114 -31 285q0 170 30 323q31 156 97 293q61 125 135 189l29 25l145 -172q-109 -118 -172 -285t-63 -339t42 -303t126 -131q46 0 78 41t39 81l8 41l156 -109q-19 -97 -86 -177
q-66 -79 -161 -79zM348 1750v2q47 0 68 -24q23 -26 23 -55q1 -121 -122 -133h-13q-44 0 -70 21q-27 22 -27 53v16q0 106 129 120h12z" />
    <glyph glyph-name="Ccaron" unicode="&#x10c;" horiz-adv-x="655" 
d="M440 0l-4 -2q-50 0 -89 7q-41 7 -103 42q-60 34 -103 95q-41 59 -73 175q-31 114 -31 285q0 170 30 323q31 156 97 293q61 125 135 189l29 25l145 -172q-109 -118 -172 -285t-63 -339t42 -303t126 -131q46 0 78 41t39 81l8 41l156 -109q-19 -97 -86 -177
q-66 -79 -161 -79zM379 1498l-92 -16l-162 233l131 19l78 -160l78 160l141 14z" />
    <glyph glyph-name="ccaron" unicode="&#x10d;" horiz-adv-x="655" 
d="M440 0l-4 -2q-50 0 -89 7q-41 7 -103 42q-60 34 -103 95q-41 59 -73 175q-31 114 -31 285q0 170 30 323q31 156 97 293q61 125 135 189l29 25l145 -172q-109 -118 -172 -285t-63 -339t42 -303t126 -131q46 0 78 41t39 81l8 41l156 -109q-19 -97 -86 -177
q-66 -79 -161 -79zM379 1498l-92 -16l-162 233l131 19l78 -160l78 160l141 14z" />
    <glyph glyph-name="Dcaron" unicode="&#x10e;" horiz-adv-x="647" 
d="M649 1098h1q0 -335 -389 -1063l-192 -35l41 1288q46 58 128 102t153 44q258 0 258 -336zM470 1090v-1q0 51 -27 83t-58 32t-75 -39l-47 -864q207 477 207 789zM394 1519l-92 -17l-162 234l131 18l78 -160l78 160l141 14z" />
    <glyph glyph-name="dcaron" unicode="&#x10f;" horiz-adv-x="647" 
d="M649 1098h1q0 -335 -389 -1063l-192 -35l41 1288q46 58 128 102t153 44q258 0 258 -336zM470 1090v-1q0 51 -27 83t-58 32t-75 -39l-47 -864q207 477 207 789zM394 1519l-92 -17l-162 234l131 18l78 -160l78 160l141 14z" />
    <glyph glyph-name="Dcroat" unicode="&#x110;" 
d="M692 1098h1q0 -335 -389 -1063l-192 -35l22 750l-144 -27v121l148 28l15 416q46 58 128 102t153 44q258 0 258 -336zM513 1090v-1q0 51 -27 83t-58 32q-32 0 -75 -39l-14 -256l63 13v-123l-69 -15l-27 -483q207 477 207 789z" />
    <glyph glyph-name="dcroat" unicode="&#x111;" 
d="M692 1098h1q0 -335 -389 -1063l-192 -35l22 750l-144 -27v121l148 28l15 416q46 58 128 102t153 44q258 0 258 -336zM513 1090v-1q0 51 -27 83t-58 32q-32 0 -75 -39l-14 -256l63 13v-123l-69 -15l-27 -483q207 477 207 789z" />
    <glyph glyph-name="Emacron" unicode="&#x112;" horiz-adv-x="552" 
d="M516 1212l-1 2q-25 -1 -129 -11t-128 -11v-404l205 48v-150l-205 -25v-454q171 35 272 60l-14 -223q-236 -17 -479 -42q0 46 9 327q9 280 9 994l475 111zM548 1546l-548 -78v123l548 78v-123z" />
    <glyph glyph-name="emacron" unicode="&#x113;" horiz-adv-x="552" 
d="M516 1212l-1 2q-25 -1 -129 -11t-128 -11v-404l205 48v-150l-205 -25v-454q171 35 272 60l-14 -223q-236 -17 -479 -42q0 46 9 327q9 280 9 994l475 111zM548 1546l-548 -78v123l548 78v-123z" />
    <glyph glyph-name="Ebreve" unicode="&#x114;" horiz-adv-x="552" 
d="M516 1212l-1 2q-25 -1 -129 -11t-128 -11v-404l205 48v-150l-205 -25v-454q171 35 272 60l-14 -223q-236 -17 -479 -42q0 46 9 327q9 280 9 994l475 111zM198 1468l-23 -1q-56 -2 -84 24.5t-27 78.5q0 42 2 80l129 10v-62q0 -56 10 -72t48 -16q76 0 76 127v31l123 8v-53
q0 -117 -85 -136q-67 -15 -169 -19z" />
    <glyph glyph-name="ebreve" unicode="&#x115;" horiz-adv-x="552" 
d="M516 1212l-1 2q-25 -1 -129 -11t-128 -11v-404l205 48v-150l-205 -25v-454q171 35 272 60l-14 -223q-236 -17 -479 -42q0 46 9 327q9 280 9 994l475 111zM198 1468l-23 -1q-56 -2 -84 24.5t-27 78.5q0 42 2 80l129 10v-62q0 -56 10 -72t48 -16q76 0 76 127v31l123 8v-53
q0 -117 -85 -136q-67 -15 -169 -19z" />
    <glyph glyph-name="Edotaccent" unicode="&#x116;" horiz-adv-x="552" 
d="M516 1212l-1 2q-25 -1 -129 -11t-128 -11v-404l205 48v-150l-205 -25v-454q171 35 272 60l-14 -223q-236 -17 -479 -42q0 46 9 327q9 280 9 994l475 111zM298 1667v2q47 0 68 -24q23 -26 23 -55q1 -121 -123 -133h-12q-44 0 -70 21q-27 22 -27 53v16q0 107 129 120h12z
" />
    <glyph glyph-name="edotaccent" unicode="&#x117;" horiz-adv-x="552" 
d="M516 1212l-1 2q-25 -1 -129 -11t-128 -11v-404l205 48v-150l-205 -25v-454q171 35 272 60l-14 -223q-236 -17 -479 -42q0 46 9 327q9 280 9 994l475 111zM298 1667v2q47 0 68 -24q23 -26 23 -55q1 -121 -123 -133h-12q-44 0 -70 21q-27 22 -27 53v16q0 107 129 120h12z
" />
    <glyph glyph-name="Eogonek" unicode="&#x118;" horiz-adv-x="552" 
d="M358 -44q0 -57 162 -57h15v-113q-220 0 -262 57t-42 103q0 45 15 75l-209 -18q0 47 9 327q9 281 9 994l475 111l-14 -222q-25 -1 -129 -11t-128 -11v-404l205 48v-150l-205 -25v-454q171 35 272 60l-14 -221v-2q-15 -4 -48 -4q-111 -19 -111 -83z" />
    <glyph glyph-name="eogonek" unicode="&#x119;" horiz-adv-x="552" 
d="M358 -44q0 -57 162 -57h15v-113q-220 0 -262 57t-42 103q0 45 15 75l-209 -18q0 47 9 327q9 281 9 994l475 111l-14 -222q-25 -1 -129 -11t-128 -11v-404l205 48v-150l-205 -25v-454q171 35 272 60l-14 -221v-2q-15 -4 -48 -4q-111 -19 -111 -83z" />
    <glyph glyph-name="Ecaron" unicode="&#x11a;" horiz-adv-x="552" 
d="M307 1473l-92 -17l-162 234l131 18l78 -160l78 160l141 14zM516 1212l-1 2q-25 -1 -129 -11t-128 -11v-404l205 48v-150l-205 -25v-454q171 35 272 60l-14 -223q-236 -17 -479 -42q0 46 9 327q9 280 9 994l475 111z" />
    <glyph glyph-name="ecaron" unicode="&#x11b;" horiz-adv-x="552" 
d="M307 1473l-92 -17l-162 234l131 18l78 -160l78 160l141 14zM516 1212l-1 2q-25 -1 -129 -11t-128 -11v-404l205 48v-150l-205 -25v-454q171 35 272 60l-14 -223q-236 -17 -479 -42q0 46 9 327q9 280 9 994l475 111z" />
    <glyph glyph-name="Gcircumflex" unicode="&#x11c;" horiz-adv-x="731" 
d="M418 0l-4 -1q-110 0 -187 62q-78 63 -135 213t-57 354q0 205 49 356q50 154 163 279q115 127 276 167l90 -160q-113 -56 -192 -132t-135 -195q-55 -117 -55 -265t28 -269q29 -124 73 -176q45 -52 110 -52q43 0 70 48t27 137v98l-142 -12l11 172l297 26q21 0 16 -284
q-3 -125 -39 -210q-66 -156 -264 -156zM424 1706l92 16l162 -233l-131 -18l-78 159l-78 -159l-141 -15z" />
    <glyph glyph-name="gcircumflex" unicode="&#x11d;" horiz-adv-x="731" 
d="M418 0l-4 -1q-110 0 -187 62q-78 63 -135 213t-57 354q0 205 49 356q50 154 163 279q115 127 276 167l90 -160q-113 -56 -192 -132t-135 -195q-55 -117 -55 -265t28 -269q29 -124 73 -176q45 -52 110 -52q43 0 70 48t27 137v98l-142 -12l11 172l297 26q21 0 16 -284
q-3 -125 -39 -210q-66 -156 -264 -156zM424 1706l92 16l162 -233l-131 -18l-78 159l-78 -159l-141 -15z" />
    <glyph glyph-name="Gbreve" unicode="&#x11e;" horiz-adv-x="731" 
d="M371 1501l-23 -1q-56 -2 -84 24.5t-27 78.5q0 41 2 79l129 11v-62q0 -56 10 -72t48 -16q76 0 76 127v31l123 8v-53q0 -117 -85 -136q-67 -15 -169 -19zM416 0l-4 -2q-110 0 -187 62q-78 63 -135 213t-57 354q0 205 49 356q50 154 163 279q115 127 276 167l90 -160
q-113 -55 -192 -132t-135 -195q-55 -117 -55 -265t28 -269q29 -124 73 -176q45 -52 110 -52q43 0 70 48t27 137v98l-142 -12l11 172l297 26q21 0 16 -284q-3 -125 -39 -210q-66 -155 -264 -155z" />
    <glyph glyph-name="gbreve" unicode="&#x11f;" horiz-adv-x="731" 
d="M371 1501l-23 -1q-56 -2 -84 24.5t-27 78.5q0 41 2 79l129 11v-62q0 -56 10 -72t48 -16q76 0 76 127v31l123 8v-53q0 -117 -85 -136q-67 -15 -169 -19zM416 0l-4 -2q-110 0 -187 62q-78 63 -135 213t-57 354q0 205 49 356q50 154 163 279q115 127 276 167l90 -160
q-113 -55 -192 -132t-135 -195q-55 -117 -55 -265t28 -269q29 -124 73 -176q45 -52 110 -52q43 0 70 48t27 137v98l-142 -12l11 172l297 26q21 0 16 -284q-3 -125 -39 -210q-66 -155 -264 -155z" />
    <glyph glyph-name="Gdotaccent" unicode="&#x120;" horiz-adv-x="731" 
d="M418 0l-4 -1q-110 0 -187 62q-78 63 -135 213t-57 354q0 205 49 356q50 154 163 279q115 127 276 167l90 -160q-113 -56 -192 -132t-135 -195q-55 -117 -55 -265t28 -269q29 -124 73 -176q45 -52 110 -52q43 0 70 48t27 137v98l-142 -12l11 172l297 26q21 0 16 -284
q-3 -125 -39 -210q-66 -156 -264 -156zM490 1700v2q47 0 68 -24q23 -26 23 -55q1 -121 -123 -133h-12q-46 0 -71 21q-27 22 -27 53v16q0 106 129 120h13z" />
    <glyph glyph-name="gdotaccent" unicode="&#x121;" horiz-adv-x="731" 
d="M418 0l-4 -1q-110 0 -187 62q-78 63 -135 213t-57 354q0 205 49 356q50 154 163 279q115 127 276 167l90 -160q-113 -56 -192 -132t-135 -195q-55 -117 -55 -265t28 -269q29 -124 73 -176q45 -52 110 -52q43 0 70 48t27 137v98l-142 -12l11 172l297 26q21 0 16 -284
q-3 -125 -39 -210q-66 -156 -264 -156zM490 1700v2q47 0 68 -24q23 -26 23 -55q1 -121 -123 -133h-12q-46 0 -71 21q-27 22 -27 53v16q0 106 129 120h13z" />
    <glyph glyph-name="Gcommaaccent" unicode="&#x122;" horiz-adv-x="731" 
d="M418 0l-4 -1q-110 0 -187 62q-78 63 -135 213t-57 354q0 205 49 356q50 154 163 279q115 127 276 167l90 -160q-113 -56 -192 -132t-135 -195q-55 -117 -55 -265t28 -269q29 -124 73 -176q45 -52 110 -52q43 0 70 48t27 137v98l-142 -12l11 172l297 26q21 0 16 -284
q-3 -125 -39 -210q-66 -156 -264 -156zM415 -234l2 -1q-28 0 -55 24t-27 60q0 37 27 65q27 29 77 29q123 0 123 -105q0 -78 -63 -150t-141 -72v76q60 4 93 78q-7 -4 -36 -4z" />
    <glyph glyph-name="gcommaaccent" unicode="&#x123;" horiz-adv-x="731" 
d="M418 0l-4 -1q-110 0 -187 62q-78 63 -135 213t-57 354q0 205 49 356q50 154 163 279q115 127 276 167l90 -160q-113 -56 -192 -132t-135 -195q-55 -117 -55 -265t28 -269q29 -124 73 -176q45 -52 110 -52q43 0 70 48t27 137v98l-142 -12l11 172l297 26q21 0 16 -284
q-3 -125 -39 -210q-66 -156 -264 -156zM415 -234l2 -1q-28 0 -55 24t-27 60q0 37 27 65q27 29 77 29q123 0 123 -105q0 -78 -63 -150t-141 -72v76q60 4 93 78q-7 -4 -36 -4z" />
    <glyph glyph-name="Hcircumflex" unicode="&#x124;" horiz-adv-x="679" 
d="M627 1430l-39 -1389l-189 -39l11 457l-152 -21l-6 -399l-189 -39v1397l211 37l-14 -859l156 19v809zM315 1755l93 17l161 -234l-131 -18l-78 159l-77 -159l-142 -15z" />
    <glyph glyph-name="hcircumflex" unicode="&#x125;" horiz-adv-x="679" 
d="M627 1430l-39 -1389l-189 -39l11 457l-152 -21l-6 -399l-189 -39v1397l211 37l-14 -859l156 19v809zM315 1755l93 17l161 -234l-131 -18l-78 159l-77 -159l-142 -15z" />
    <glyph glyph-name="Hbar" unicode="&#x126;" horiz-adv-x="679" 
d="M627 1430l-15 -492l93 10v-127l-97 -10l-20 -770l-189 -39l11 457l-152 -21l-6 -399l-189 -39v756l-119 -13v125l119 13v516l211 37l-10 -533l152 17v485zM260 575l156 19v197l-154 -15z" />
    <glyph glyph-name="hbar" unicode="&#x127;" horiz-adv-x="679" 
d="M627 1430l-15 -492l93 10v-127l-97 -10l-20 -770l-189 -39l11 457l-152 -21l-6 -399l-189 -39v756l-119 -13v125l119 13v516l211 37l-10 -533l152 17v485zM260 575l156 19v197l-154 -15z" />
    <glyph glyph-name="Itilde" unicode="&#x128;" horiz-adv-x="333" 
d="M274 1110l-22 -1069l-189 -41v1098zM37 1403q33 0 110 -39t95 -39t36 9q19 9 38 99l113 -19q-14 -119 -66 -170q-53 -51 -112 -51t-123 32t-85 32q-55 0 -71 -73l-108 37q18 65 66 124q48 58 107 58z" />
    <glyph glyph-name="itilde" unicode="&#x129;" horiz-adv-x="333" 
d="M274 1110l-22 -1069l-189 -41v1098zM37 1403q33 0 110 -39t95 -39t36 9q19 9 38 99l113 -19q-14 -119 -66 -170q-53 -51 -112 -51t-123 32t-85 32q-55 0 -71 -73l-108 37q18 65 66 124q48 58 107 58z" />
    <glyph glyph-name="Imacron" unicode="&#x12a;" horiz-adv-x="350" 
d="M274 1110l-22 -1069l-189 -41v1098zM393 1245l-466 -43v168l466 41v-166z" />
    <glyph glyph-name="imacron" unicode="&#x12b;" horiz-adv-x="350" 
d="M274 1110l-22 -1069l-189 -41v1098zM393 1245l-466 -43v168l466 41v-166z" />
    <glyph glyph-name="Ibreve" unicode="&#x12c;" horiz-adv-x="333" 
d="M274 1110l-22 -1069l-189 -41v1098zM104 1214l-21 1q-57 3 -84.5 27.5t-27.5 75.5q0 42 2 80l128 10v-61q0 -55 11 -72t48 -17q76 0 76 127v31l122 8v-53q0 -119 -85 -138q-100 -23 -169 -19z" />
    <glyph glyph-name="ibreve" unicode="&#x12d;" horiz-adv-x="333" 
d="M274 1110l-22 -1069l-189 -41v1098zM104 1214l-21 1q-57 3 -84.5 27.5t-27.5 75.5q0 42 2 80l128 10v-61q0 -55 11 -72t48 -17q76 0 76 127v31l122 8v-53q0 -119 -85 -138q-100 -23 -169 -19z" />
    <glyph glyph-name="Iogonek" unicode="&#x12e;" horiz-adv-x="333" 
d="M199 1456l-2 -1q72 0 102 -35t29 -86q-2 -52 -42 -101q-41 -50 -123 -50q-83 0 -120 30t-37 77q0 166 193 166zM102 -72l1 -1q0 -57 162 -57h15v-113q-220 0 -262 57q-41 58 -41 116q0 89 85 128v1039l211 12l-12 -1092q-56 -1 -108 -23q-51 -22 -51 -66z" />
    <glyph glyph-name="iogonek" unicode="&#x12f;" horiz-adv-x="333" 
d="M199 1456l-2 -1q72 0 102 -35t29 -86q-2 -52 -42 -101q-41 -50 -123 -50q-83 0 -120 30t-37 77q0 166 193 166zM102 -72l1 -1q0 -57 162 -57h15v-113q-220 0 -262 57q-41 58 -41 116q0 89 85 128v1039l211 12l-12 -1092q-56 -1 -108 -23q-51 -22 -51 -66z" />
    <glyph glyph-name="Idotaccent" unicode="&#x130;" horiz-adv-x="333" 
d="M274 1110l-22 -1069l-189 -41v1098zM195 1475l2 1q55 0 79 -27q26 -29 26 -64q1 -139 -141 -153h-15q-51 0 -81 24q-29 23 -34 59v20q0 122 149 140h15z" />
    <glyph glyph-name="IJ" unicode="&#x132;" horiz-adv-x="950" 
d="M274 1110l-22 -1069l-189 -41v1098zM199 1456l-2 -1q72 0 102 -35t29 -86q-2 -52 -42 -101q-41 -50 -123 -50q-83 0 -120 30t-37 77q0 166 193 166zM616 0v-1q-298 0 -305 374l150 153q51 -303 135 -303q44 0 59 114t15 395q0 227 -2 441l-213 -23v205l569 78v-213
l-158 -23v-782q0 -329 -96 -372q-95 -43 -154 -43z" />
    <glyph glyph-name="ij" unicode="&#x133;" horiz-adv-x="950" 
d="M274 1110l-22 -1069l-189 -41v1098zM199 1456l-2 -1q72 0 102 -35t29 -86q-2 -52 -42 -101q-41 -50 -123 -50q-83 0 -120 30t-37 77q0 166 193 166zM616 0v-1q-298 0 -305 374l150 153q51 -303 135 -303q44 0 59 114t15 395q0 227 -2 441l-213 -23v205l569 78v-213
l-158 -23v-782q0 -329 -96 -372q-95 -43 -154 -43z" />
    <glyph glyph-name="Jcircumflex" unicode="&#x134;" horiz-adv-x="616" 
d="M285 0q-297 0 -304 375l148 153q51 -303 135 -303q44 0 59 114t15 395q0 227 -2 441l-213 -23v205l569 78v-213l-157 -23v-782q0 -327 -96 -372t-154 -45zM332 1726l92 17l162 -234l-131 -18l-78 160l-78 -160l-141 -14z" />
    <glyph glyph-name="jcircumflex" unicode="&#x135;" horiz-adv-x="616" 
d="M285 0q-297 0 -304 375l148 153q51 -303 135 -303q44 0 59 114t15 395q0 227 -2 441l-213 -23v205l569 78v-213l-157 -23v-782q0 -327 -96 -372t-154 -45zM332 1726l92 17l162 -234l-131 -18l-78 160l-78 -160l-141 -14z" />
    <glyph glyph-name="Kcommaaccent" unicode="&#x136;" horiz-adv-x="692" 
d="M242 94l-1 -48l-219 -45l51 1384l227 50l-49 -744q79 145 149 351q71 210 77 353l223 39q-6 -119 -88 -339t-159 -382l-78 -164q29 -86 142 -180q114 -95 198 -150l-166 -215q-185 150 -264 340l-37 -12q-2 -27 -6 -238zM251 -106l2 -1q0 35 27 64q27 28 77 28
q123 0 123 -105q0 -78 -63 -150t-141 -72v76q60 4 93 78q-7 -4 -36 -4t-55 25q-27 25 -27 61z" />
    <glyph glyph-name="kcommaaccent" unicode="&#x137;" horiz-adv-x="692" 
d="M242 94l-1 -48l-219 -45l51 1384l227 50l-49 -744q79 145 149 351q71 210 77 353l223 39q-6 -119 -88 -339t-159 -382l-78 -164q29 -86 142 -180q114 -95 198 -150l-166 -215q-185 150 -264 340l-37 -12q-2 -27 -6 -238zM251 -106l2 -1q0 35 27 64q27 28 77 28
q123 0 123 -105q0 -78 -63 -150t-141 -72v76q60 4 93 78q-7 -4 -36 -4t-55 25q-27 25 -27 61z" />
    <glyph glyph-name="kgreenlandic" unicode="&#x138;" horiz-adv-x="692" 
d="M242 94l-1 -48l-219 -45l51 1384l227 50l-49 -744q79 145 149 351q71 210 77 353l223 39q-6 -119 -88 -339t-159 -382l-78 -164q29 -86 142 -180q114 -95 198 -150l-166 -215q-185 150 -264 340l-37 -12q-2 -27 -6 -238z" />
    <glyph glyph-name="Lacute" unicode="&#x139;" horiz-adv-x="509" 
d="M88 1393l217 41l-31 -1233l246 65l-51 -231l-385 -35zM203 1759h170l-117 -223l-147 -33z" />
    <glyph glyph-name="lacute" unicode="&#x13a;" horiz-adv-x="509" 
d="M88 1393l217 41l-31 -1233l246 65l-51 -231l-385 -35zM203 1759h170l-117 -223l-147 -33z" />
    <glyph glyph-name="Lcommaaccent" unicode="&#x13b;" horiz-adv-x="509" 
d="M88 1393l217 41l-31 -1233l246 65l-51 -231l-385 -35zM243 -214h2q-28 0 -55 24t-27 62t27 65t77 27q123 0 123 -104q0 -78 -63 -151t-141 -73v76q60 4 93 78q-7 -4 -36 -4z" />
    <glyph glyph-name="lcommaaccent" unicode="&#x13c;" horiz-adv-x="509" 
d="M88 1393l217 41l-31 -1233l246 65l-51 -231l-385 -35zM243 -214h2q-28 0 -55 24t-27 62t27 65t77 27q123 0 123 -104q0 -78 -63 -151t-141 -73v76q60 4 93 78q-7 -4 -36 -4z" />
    <glyph glyph-name="Lcaron" unicode="&#x13d;" horiz-adv-x="632" 
d="M88 1393l217 41l-31 -1233l246 65l-51 -231l-385 -35zM480 1311v-1q-28 0 -55 30t-27 73q0 44 28 76q28 33 78 33q123 0 123 -125q0 -90 -63 -177t-141 -87v90q61 7 93 92q-7 -4 -36 -4z" />
    <glyph glyph-name="lcaron" unicode="&#x13e;" horiz-adv-x="632" 
d="M88 1393l217 41l-31 -1233l246 65l-51 -231l-385 -35zM480 1311v-1q-28 0 -55 30t-27 73q0 44 28 76q28 33 78 33q123 0 123 -125q0 -90 -63 -177t-141 -87v90q61 7 93 92q-7 -4 -36 -4z" />
    <glyph glyph-name="Ldot" unicode="&#x13f;" horiz-adv-x="587" 
d="M88 1393l217 41l-31 -1233l246 65l-51 -231l-385 -35zM475 786l-1 2q40 0 61 -21q23 -23 23 -49q1 -110 -110 -121h-13q-41 0 -63 18q-24 19 -24 47v16q0 96 117 108h10z" />
    <glyph glyph-name="ldot" unicode="&#x140;" horiz-adv-x="587" 
d="M88 1393l217 41l-31 -1233l246 65l-51 -231l-385 -35zM475 786l-1 2q40 0 61 -21q23 -23 23 -49q1 -110 -110 -121h-13q-41 0 -63 18q-24 19 -24 47v16q0 96 117 108h10z" />
    <glyph glyph-name="Lslash" unicode="&#x141;" horiz-adv-x="509" 
d="M88 1393l217 41l-16 -652l143 47l37 -129l-184 -61l-11 -438l246 65l-51 -231l-385 -35l2 573l-116 -38l-37 129l153 51z" />
    <glyph glyph-name="lslash" unicode="&#x142;" horiz-adv-x="509" 
d="M88 1393l217 41l-16 -652l143 47l37 -129l-184 -61l-11 -438l246 65l-51 -231l-385 -35l2 573l-116 -38l-37 129l153 51z" />
    <glyph glyph-name="Nacute" unicode="&#x143;" horiz-adv-x="634" 
d="M53 1386l175 34l177 -962v942l200 31l-39 -1389l-202 -42q-19 130 -61 285q-36 133 -78 256l-32 94l51 -598l-191 -35v1384zM351 1707h170l-116 -223l-148 -33z" />
    <glyph glyph-name="nacute" unicode="&#x144;" horiz-adv-x="634" 
d="M53 1386l175 34l177 -962v942l200 31l-39 -1389l-202 -42q-19 130 -61 285q-36 133 -78 256l-32 94l51 -598l-191 -35v1384zM351 1707h170l-116 -223l-148 -33z" />
    <glyph glyph-name="Ncommaaccent" unicode="&#x145;" horiz-adv-x="634" 
d="M53 1386l175 34l177 -962v942l200 31l-39 -1389l-202 -42q-19 130 -61 285q-36 133 -78 256l-32 94l51 -598l-191 -35v1384zM283 -215h3q-28 0 -55 24t-27 62t27 65t77 27q123 0 123 -104q0 -77 -63 -151q-63 -73 -141 -73v76q59 5 92 78q-7 -4 -36 -4z" />
    <glyph glyph-name="ncommaaccent" unicode="&#x146;" horiz-adv-x="634" 
d="M53 1386l175 34l177 -962v942l200 31l-39 -1389l-202 -42q-19 130 -61 285q-36 133 -78 256l-32 94l51 -598l-191 -35v1384zM283 -215h3q-28 0 -55 24t-27 62t27 65t77 27q123 0 123 -104q0 -77 -63 -151q-63 -73 -141 -73v76q59 5 92 78q-7 -4 -36 -4z" />
    <glyph glyph-name="Ncaron" unicode="&#x147;" horiz-adv-x="634" 
d="M53 1386l175 34l177 -962v942l200 31l-39 -1389l-202 -42q-19 130 -61 285q-36 133 -78 256l-32 94l51 -598l-191 -35v1384zM376 1494l-92 -16l-162 233l131 19l78 -160l78 160l141 14z" />
    <glyph glyph-name="ncaron" unicode="&#x148;" horiz-adv-x="634" 
d="M53 1386l175 34l177 -962v942l200 31l-39 -1389l-202 -42q-19 130 -61 285q-36 133 -78 256l-32 94l51 -598l-191 -35v1384zM376 1494l-92 -16l-162 233l131 19l78 -160l78 160l141 14z" />
    <glyph glyph-name="napostrophe" unicode="&#x149;" horiz-adv-x="886" 
d="M305 1386l177 35l176 -962v942l201 31l-39 -1389l-203 -43q-41 281 -138 541l-35 94l52 -598l-191 -35v1384zM109 1356h3q-28 0 -55 24t-27 62t27 65t77 27q123 0 123 -104q0 -78 -63 -151t-141 -73v76q59 5 92 78q-7 -4 -36 -4z" />
    <glyph glyph-name="Omacron" unicode="&#x14c;" horiz-adv-x="665" 
d="M638 1036v-4q0 -31 1.5 -98t1.5 -129.5t-3 -122.5q-10 -202 -42 -342q-31 -138 -83 -210q-52 -71 -108 -98q-55 -26 -127 -23q-285 13 -252 721q24 512 159 607q137 96 254 93q45 -2 63 -10q20 -9 51 -51q32 -43 53 -114q32 -110 32 -219zM346 1195q-32 2 -56 -48
t-40 -153t-24 -258q-10 -192 12 -348q22 -155 63 -169q38 -2 81 157t51 323q8 167 -10 329q-18 164 -77 167zM627 1554l-549 -78v123l549 77v-122z" />
    <glyph glyph-name="omacron" unicode="&#x14d;" horiz-adv-x="665" 
d="M638 1036v-4q0 -31 1.5 -98t1.5 -129.5t-3 -122.5q-10 -202 -42 -342q-31 -138 -83 -210q-52 -71 -108 -98q-55 -26 -127 -23q-285 13 -252 721q24 512 159 607q137 96 254 93q45 -2 63 -10q20 -9 51 -51q32 -43 53 -114q32 -110 32 -219zM346 1195q-32 2 -56 -48
t-40 -153t-24 -258q-10 -192 12 -348q22 -155 63 -169q38 -2 81 157t51 323q8 167 -10 329q-18 164 -77 167zM627 1554l-549 -78v123l549 77v-122z" />
    <glyph glyph-name="Obreve" unicode="&#x14e;" horiz-adv-x="665" 
d="M638 1036v-4q0 -31 1.5 -98t1.5 -129.5t-3 -122.5q-10 -202 -42 -342q-31 -138 -83 -210q-52 -71 -108 -98q-55 -26 -127 -23q-285 13 -252 721q24 512 159 607q137 96 254 93q45 -2 63 -10q20 -9 51 -51q32 -43 53 -114q32 -110 32 -219zM346 1195q-32 2 -56 -48
t-40 -153t-24 -258q-10 -192 12 -348q22 -155 63 -169q38 -2 81 157t51 323q8 167 -10 329q-18 164 -77 167zM303 1517l-21 -1q-56 -3 -84.5 23.5t-28.5 78.5q0 42 2 80l129 10v-61q0 -55 11 -72q10 -16 47 -16q76 0 76 127v30l123 9v-54q0 -118 -85 -136q-57 -12 -169 -18z
" />
    <glyph glyph-name="obreve" unicode="&#x14f;" horiz-adv-x="665" 
d="M638 1036v-4q0 -31 1.5 -98t1.5 -129.5t-3 -122.5q-10 -202 -42 -342q-31 -138 -83 -210q-52 -71 -108 -98q-55 -26 -127 -23q-285 13 -252 721q24 512 159 607q137 96 254 93q45 -2 63 -10q20 -9 51 -51q32 -43 53 -114q32 -110 32 -219zM346 1195q-32 2 -56 -48
t-40 -153t-24 -258q-10 -192 12 -348q22 -155 63 -169q38 -2 81 157t51 323q8 167 -10 329q-18 164 -77 167zM303 1517l-21 -1q-56 -3 -84.5 23.5t-28.5 78.5q0 42 2 80l129 10v-61q0 -55 11 -72q10 -16 47 -16q76 0 76 127v30l123 9v-54q0 -118 -85 -136q-57 -12 -169 -18z
" />
    <glyph glyph-name="Ohungarumlaut" unicode="&#x150;" horiz-adv-x="665" 
d="M283 1726h118l-90 -208l-116 -31zM494 1726h118l-108 -208l-115 -23zM638 1036v-4q0 -31 1.5 -98t1.5 -129.5t-3 -122.5q-10 -202 -42 -342q-31 -138 -83 -210q-52 -71 -108 -98q-55 -26 -127 -23q-285 13 -252 721q24 512 159 607q137 96 254 93q45 -2 63 -10
q20 -9 51 -51q32 -43 53 -114q32 -110 32 -219zM346 1195q-32 2 -56 -48t-40 -153t-24 -258q-10 -192 12 -348q22 -155 63 -169q38 -2 81 157t51 323q8 167 -10 329q-18 164 -77 167z" />
    <glyph glyph-name="ohungarumlaut" unicode="&#x151;" horiz-adv-x="665" 
d="M283 1726h118l-90 -208l-116 -31zM494 1726h118l-108 -208l-115 -23zM638 1036v-4q0 -31 1.5 -98t1.5 -129.5t-3 -122.5q-10 -202 -42 -342q-31 -138 -83 -210q-52 -71 -108 -98q-55 -26 -127 -23q-285 13 -252 721q24 512 159 607q137 96 254 93q45 -2 63 -10
q20 -9 51 -51q32 -43 53 -114q32 -110 32 -219zM346 1195q-32 2 -56 -48t-40 -153t-24 -258q-10 -192 12 -348q22 -155 63 -169q38 -2 81 157t51 323q8 167 -10 329q-18 164 -77 167z" />
    <glyph glyph-name="OE" unicode="&#x152;" horiz-adv-x="1218" 
d="M638 1036v-4q0 -31 1.5 -98t1.5 -129.5t-3 -122.5q-10 -202 -42 -342q-31 -138 -83 -210q-52 -71 -108 -98q-55 -26 -127 -23q-285 13 -252 721q24 512 159 607q137 96 254 93q45 -2 63 -10q20 -9 51 -51q32 -43 53 -114q32 -110 32 -219zM346 1195q-32 2 -56 -48
t-40 -153t-24 -258q-10 -192 12 -348q22 -155 63 -169q38 -2 81 157t51 323q8 167 -10 329q-18 164 -77 167zM1182 1207v3q-24 -1 -130 -11q-107 -10 -127 -11v-404l204 48v-150l-204 -25v-454q171 35 272 60l-14 -223q-220 -15 -480 -41q0 45 9 314t9 1005l475 111z" />
    <glyph glyph-name="oe" unicode="&#x153;" horiz-adv-x="1161" 
d="M750 616l-1 1q0 541 -86 708l434 111l-15 -222q-25 -1 -129 -11t-128 -11v-404l205 48v-150l-205 -25v-454q168 35 273 60l-15 -223q-165 -14 -481 -37q8 17 29 77q3 8 27.5 76.5t43.5 121.5q48 135 48 334zM661 1017h-3q12 -151 2 -350q-10 -202 -42 -343
q-31 -139 -83 -211q-51 -71 -107 -98q-55 -25 -128 -22q-285 12 -252 720q24 510 159 605q137 96 255 93q44 -1 63 -9q19 -7 51 -50q31 -41 52 -115t33 -220zM366 1181l-3 -2q-28 2 -49 -31t-34 -100q-27 -135 -36 -327q-9 -189 14 -348q22 -156 63 -168q38 -2 81 157
t51 323q8 167 -10 329q-18 165 -77 167z" />
    <glyph glyph-name="Racute" unicode="&#x154;" horiz-adv-x="673" 
d="M387 1434v-1q256 0 256 -267q0 -103 -67 -271q-58 -145 -138 -286l-67 -118q6 -15 16 -37q12 -26 90 -102q79 -77 199 -156l-150 -193q-167 135 -237 307l-31 -8q-6 -74 -6 -261l-197 -41l54 1319q46 46 126 80q82 35 152 35zM444 1160q0 90 -63 90q-33 0 -74 -30
l-47 -603q184 334 184 543zM338 1760h170l-117 -223l-147 -33z" />
    <glyph glyph-name="racute" unicode="&#x155;" horiz-adv-x="673" 
d="M387 1434v-1q256 0 256 -267q0 -103 -67 -271q-58 -145 -138 -286l-67 -118q6 -15 16 -37q12 -26 90 -102q79 -77 199 -156l-150 -193q-167 135 -237 307l-31 -8q-6 -74 -6 -261l-197 -41l54 1319q46 46 126 80q82 35 152 35zM444 1160q0 90 -63 90q-33 0 -74 -30
l-47 -603q184 334 184 543zM338 1760h170l-117 -223l-147 -33z" />
    <glyph glyph-name="Rcommaaccent" unicode="&#x156;" horiz-adv-x="673" 
d="M387 1434v-1q256 0 256 -267q0 -103 -67 -271q-58 -145 -138 -286l-67 -118q6 -15 16 -37q12 -26 90 -102q79 -77 199 -156l-150 -193q-167 135 -237 307l-31 -8q-6 -74 -6 -261l-197 -41l54 1319q46 46 126 80q82 35 152 35zM444 1160q0 90 -63 90q-33 0 -74 -30
l-47 -603q184 334 184 543zM304 -215h1q-28 0 -55 24t-27 62t28 65q29 27 78 27q123 0 123 -104q0 -77 -63 -151q-63 -73 -141 -73v76q59 5 92 78q-7 -4 -36 -4z" />
    <glyph glyph-name="rcommaaccent" unicode="&#x157;" horiz-adv-x="673" 
d="M387 1434v-1q256 0 256 -267q0 -103 -67 -271q-58 -145 -138 -286l-67 -118q6 -15 16 -37q12 -26 90 -102q79 -77 199 -156l-150 -193q-167 135 -237 307l-31 -8q-6 -74 -6 -261l-197 -41l54 1319q46 46 126 80q82 35 152 35zM444 1160q0 90 -63 90q-33 0 -74 -30
l-47 -603q184 334 184 543zM304 -215h1q-28 0 -55 24t-27 62t28 65q29 27 78 27q123 0 123 -104q0 -77 -63 -151q-63 -73 -141 -73v76q59 5 92 78q-7 -4 -36 -4z" />
    <glyph glyph-name="Rcaron" unicode="&#x158;" horiz-adv-x="673" 
d="M387 1434v-1q256 0 256 -267q0 -103 -67 -271q-58 -145 -138 -286l-67 -118q6 -15 16 -37q12 -26 90 -102q79 -77 199 -156l-150 -193q-167 135 -237 307l-31 -8q-6 -74 -6 -261l-197 -41l54 1319q46 46 126 80q82 35 152 35zM444 1160q0 90 -63 90q-33 0 -74 -30
l-47 -603q184 334 184 543zM346 1510l-92 -16l-162 234l131 18l78 -160l78 160l141 14z" />
    <glyph glyph-name="rcaron" unicode="&#x159;" horiz-adv-x="673" 
d="M387 1434v-1q256 0 256 -267q0 -103 -67 -271q-58 -145 -138 -286l-67 -118q6 -15 16 -37q12 -26 90 -102q79 -77 199 -156l-150 -193q-167 135 -237 307l-31 -8q-6 -74 -6 -261l-197 -41l54 1319q46 46 126 80q82 35 152 35zM444 1160q0 90 -63 90q-33 0 -74 -30
l-47 -603q184 334 184 543zM346 1510l-92 -16l-162 234l131 18l78 -160l78 160l141 14z" />
    <glyph glyph-name="Sacute" unicode="&#x15a;" horiz-adv-x="559" 
d="M287 481h-3q0 58 -37 122q-37 65 -81 117q-44 53 -81 130t-37 162t46 162q47 78 104 122q58 44 143 86t138 54l76 -179l-76 -30q-73 -29 -151 -94q-75 -63 -75 -121t24 -96t54 -78q46 -63 53 -73q107 -168 107 -297q0 -127 -96 -241q-97 -115 -303 -251q-7 26 -55 230
l61 39q62 40 126 110q63 69 63 126zM321 1779h170l-117 -224l-148 -32z" />
    <glyph glyph-name="sacute" unicode="&#x15b;" horiz-adv-x="559" 
d="M287 481h-3q0 58 -37 122q-37 65 -81 117q-44 53 -81 130t-37 162t46 162q47 78 104 122q58 44 143 86t138 54l76 -179l-76 -30q-73 -29 -151 -94q-75 -63 -75 -121t24 -96t54 -78q46 -63 53 -73q107 -168 107 -297q0 -127 -96 -241q-97 -115 -303 -251q-7 26 -55 230
l61 39q62 40 126 110q63 69 63 126zM423 1824h170l-117 -223l-147 -33z" />
    <glyph glyph-name="Scircumflex" unicode="&#x15c;" horiz-adv-x="559" 
d="M287 481h-3q0 58 -37 122q-37 65 -81 117q-44 53 -81 130t-37 162t46 162q47 78 104 122q58 44 143 86t138 54l76 -179l-76 -30q-73 -29 -151 -94q-75 -63 -75 -121t24 -96t54 -78q46 -63 53 -73q107 -168 107 -297q0 -127 -96 -241q-97 -115 -303 -251q-7 26 -55 230
l61 39q62 40 126 110q63 69 63 126zM368 1723l92 17l162 -234l-131 -18l-78 160l-78 -160l-141 -14z" />
    <glyph glyph-name="scircumflex" unicode="&#x15d;" horiz-adv-x="559" 
d="M287 481h-3q0 58 -37 122q-37 65 -81 117q-44 53 -81 130t-37 162t46 162q47 78 104 122q58 44 143 86t138 54l76 -179l-76 -30q-73 -29 -151 -94q-75 -63 -75 -121t24 -96t54 -78q46 -63 53 -73q107 -168 107 -297q0 -127 -96 -241q-97 -115 -303 -251q-7 26 -55 230
l61 39q62 40 126 110q63 69 63 126zM368 1723l92 17l162 -234l-131 -18l-78 160l-78 -160l-141 -14z" />
    <glyph glyph-name="Scedilla" unicode="&#x15e;" horiz-adv-x="559" 
d="M37 207h1q250 150 250 284q0 47 -37 111t-81 117t-81 130t-37 162q0 84 44 161q44 76 144 150q78 57 198 99l43 15l76 -179q-190 -63 -247 -138t-57 -109q0 -33 11 -63q10 -27 24 -49t43 -61q46 -63 53 -73q107 -168 107 -290q0 -119 -74 -219t-228 -212v-2
q96 -1 141 -50t45 -105q0 -118 -98 -144q-96 -25 -204 -25v113q176 0 176 57q0 44 -49 66q-50 23 -108 24q-7 26 -55 230z" />
    <glyph glyph-name="scedilla" unicode="&#x15f;" horiz-adv-x="559" 
d="M37 207h1q250 150 250 284q0 47 -37 111t-81 117t-81 130t-37 162q0 84 44 161q44 76 144 150q78 57 198 99l43 15l76 -179q-190 -63 -247 -138t-57 -109q0 -33 11 -63q10 -27 24 -49t43 -61q46 -63 53 -73q107 -168 107 -290q0 -119 -74 -219t-228 -212v-2
q96 -1 141 -50t45 -105q0 -118 -98 -144q-96 -25 -204 -25v113q176 0 176 57q0 44 -49 66q-50 23 -108 24q-7 26 -55 230z" />
    <glyph glyph-name="Scaron" unicode="&#x160;" horiz-adv-x="559" 
d="M287 481h-3q0 58 -37 122q-37 65 -81 117q-44 53 -81 130t-37 162t46 162q47 78 104 122q58 44 143 86t138 54l76 -179l-76 -30q-73 -29 -151 -94q-75 -63 -75 -121t24 -96t54 -78q46 -63 53 -73q107 -168 107 -297q0 -127 -96 -241q-97 -115 -303 -251q-7 26 -55 230
l61 39q62 40 126 110q63 69 63 126zM372 1523l-92 -17l-162 234l131 18l78 -160l78 160l141 15z" />
    <glyph glyph-name="scaron" unicode="&#x161;" horiz-adv-x="559" 
d="M287 481h-3q0 58 -37 122q-37 65 -81 117q-44 53 -81 130t-37 162t46 162q47 78 104 122q58 44 143 86t138 54l76 -179l-76 -30q-73 -29 -151 -94q-75 -63 -75 -121t24 -96t54 -78q46 -63 53 -73q107 -168 107 -297q0 -127 -96 -241q-97 -115 -303 -251q-7 26 -55 230
l61 39q62 40 126 110q63 69 63 126zM415 1551l-92 -16l-162 233l131 19l78 -160l78 160l141 14z" />
    <glyph glyph-name="Tcommaaccent" unicode="&#x162;" horiz-adv-x="514" 
d="M387 41l-194 -41v1174l-193 -23v205l549 78v-213l-162 -23v-1157zM261 -214h1q-28 0 -55 24t-27 62t28 65t78 27q123 0 123 -104q0 -78 -63 -151t-141 -73v76q59 5 92 78q-7 -4 -36 -4z" />
    <glyph glyph-name="tcommaaccent" unicode="&#x163;" horiz-adv-x="514" 
d="M387 41l-194 -41v1174l-193 -23v205l549 78v-213l-162 -23v-1157zM261 -214h1q-28 0 -55 24t-27 62t28 65t78 27q123 0 123 -104q0 -78 -63 -151t-141 -73v76q59 5 92 78q-7 -4 -36 -4z" />
    <glyph glyph-name="Tcaron" unicode="&#x164;" horiz-adv-x="514" 
d="M387 41l-194 -41v1174l-193 -23v205l549 78v-213l-162 -23v-1157zM293 1479l-92 -17l-162 234l131 18l78 -160l78 160l141 15z" />
    <glyph glyph-name="tcaron" unicode="&#x165;" horiz-adv-x="514" 
d="M387 41l-194 -41v1174l-193 -23v205l549 78v-213l-162 -23v-1157zM293 1479l-92 -17l-162 234l131 18l78 -160l78 160l141 15z" />
    <glyph glyph-name="Tbar" unicode="&#x166;" horiz-adv-x="514" 
d="M387 41l-194 -41v915l-196 -26v123l196 26v136l-193 -23v205l549 78v-213l-162 -23v-131l158 23v-123l-158 -23v-903z" />
    <glyph glyph-name="tbar" unicode="&#x167;" horiz-adv-x="514" 
d="M387 41l-194 -41v915l-196 -26v123l196 26v136l-193 -23v205l549 78v-213l-162 -23v-131l158 23v-123l-158 -23v-903z" />
    <glyph glyph-name="Utilde" unicode="&#x168;" horiz-adv-x="700" 
d="M252 0l-1 1q-193 0 -193 385q0 173 9 497q10 354 11 459q11 5 38 15q24 9 75 30q45 18 83 33l35 13q-35 -511 -35 -820q0 -317 21 -381t87 -64q119 0 119 471v731q101 40 176 60q0 -700 -2 -778t-2 -111q0 -45 -5 -123q-4 -67 -29 -157q-24 -88 -67 -138
q-44 -51 -124 -87q-81 -36 -196 -36zM225 1664h-3q48 0 124 -30t99 -30q38 0 51 25q14 26 24 61l115 -15q-29 -174 -192 -174q-51 0 -114 24t-87 24q-56 0 -72 -57l-111 29q17 50 68 97q49 46 98 46z" />
    <glyph glyph-name="utilde" unicode="&#x169;" horiz-adv-x="700" 
d="M252 0l-1 1q-193 0 -193 385q0 173 9 497q10 354 11 459q11 5 38 15q24 9 75 30q45 18 83 33l35 13q-35 -511 -35 -820q0 -317 21 -381t87 -64q119 0 119 471v731q101 40 176 60q0 -700 -2 -778t-2 -111q0 -45 -5 -123q-4 -67 -29 -157q-24 -88 -67 -138
q-44 -51 -124 -87q-81 -36 -196 -36zM225 1664h-3q48 0 124 -30t99 -30q38 0 51 25q14 26 24 61l115 -15q-29 -174 -192 -174q-51 0 -114 24t-87 24q-56 0 -72 -57l-111 29q17 50 68 97q49 46 98 46z" />
    <glyph glyph-name="Umacron" unicode="&#x16a;" horiz-adv-x="700" 
d="M252 0l-1 1q-193 0 -193 385q0 173 9 497q10 354 11 459q11 5 38 15q24 9 75 30q45 18 83 33l35 13q-35 -511 -35 -820q0 -317 21 -381t87 -64q119 0 119 471v731q101 40 176 60q0 -700 -2 -778t-2 -111q0 -45 -5 -123q-4 -67 -29 -157q-24 -88 -67 -138
q-44 -51 -124 -87q-81 -36 -196 -36zM646 1547l-549 -78v123l549 78v-123z" />
    <glyph glyph-name="umacron" unicode="&#x16b;" horiz-adv-x="700" 
d="M252 0l-1 1q-193 0 -193 385q0 173 9 497q10 354 11 459q11 5 38 15q24 9 75 30q45 18 83 33l35 13q-35 -511 -35 -820q0 -317 21 -381t87 -64q119 0 119 471v731q101 40 176 60q0 -700 -2 -778t-2 -111q0 -45 -5 -123q-4 -67 -29 -157q-24 -88 -67 -138
q-44 -51 -124 -87q-81 -36 -196 -36zM646 1547l-549 -78v123l549 78v-123z" />
    <glyph glyph-name="Ubreve" unicode="&#x16c;" horiz-adv-x="700" 
d="M350 1501l-21 1q-57 3 -85 27.5t-28 75.5q0 41 2 79l129 11v-62q0 -55 11 -72q10 -16 48 -16q75 0 75 127v31l123 8v-53q0 -119 -85 -138q-100 -23 -169 -19zM251 1l-1 1q-193 0 -193 385q0 173 9 497q10 354 11 459q11 5 38 15q24 9 75 30q45 18 83 33l35 13
q-35 -511 -35 -820q0 -316 21 -381q21 -64 87 -64q119 0 119 471v731q101 40 176 60q0 -700 -2 -778t-2 -111q0 -45 -5 -123q-4 -67 -29 -157q-24 -88 -67 -138q-44 -51 -124 -87q-81 -36 -196 -36z" />
    <glyph glyph-name="ubreve" unicode="&#x16d;" horiz-adv-x="700" 
d="M350 1501l-21 1q-57 3 -85 27.5t-28 75.5q0 41 2 79l129 11v-62q0 -55 11 -72q10 -16 48 -16q75 0 75 127v31l123 8v-53q0 -119 -85 -138q-100 -23 -169 -19zM251 1l-1 1q-193 0 -193 385q0 173 9 497q10 354 11 459q11 5 38 15q24 9 75 30q45 18 83 33l35 13
q-35 -511 -35 -820q0 -316 21 -381q21 -64 87 -64q119 0 119 471v731q101 40 176 60q0 -700 -2 -778t-2 -111q0 -45 -5 -123q-4 -67 -29 -157q-24 -88 -67 -138q-44 -51 -124 -87q-81 -36 -196 -36z" />
    <glyph glyph-name="Uring" unicode="&#x16e;" horiz-adv-x="700" 
d="M252 0l-1 1q-193 0 -193 385q0 173 9 497q10 354 11 459q11 5 38 15q24 9 75 30q45 18 83 33l35 13q-35 -511 -35 -820q0 -317 21 -381t87 -64q119 0 119 471v731q101 40 176 60q0 -700 -2 -778t-2 -111q0 -45 -5 -123q-4 -67 -29 -157q-24 -88 -67 -138
q-44 -51 -124 -87q-81 -36 -196 -36zM435 1734v1q56 0 85 -29q30 -30 30 -68q1 -80 -39 -125t-117 -45h-16q-55 0 -88 27q-35 29 -35 68v18q0 133 164 153h16zM419 1647l-6 -1q-57 -9 -57 -56v-8q0 -31 41 -31h9q55 0 55 60q0 12 -12 24t-30 12z" />
    <glyph glyph-name="uring" unicode="&#x16f;" horiz-adv-x="700" 
d="M252 0l-1 1q-193 0 -193 385q0 173 9 497q10 354 11 459q11 5 38 15q24 9 75 30q45 18 83 33l35 13q-35 -511 -35 -820q0 -317 21 -381t87 -64q119 0 119 471v731q101 40 176 60q0 -700 -2 -778t-2 -111q0 -45 -5 -123q-4 -67 -29 -157q-24 -88 -67 -138
q-44 -51 -124 -87q-81 -36 -196 -36zM435 1734v1q56 0 85 -29q30 -30 30 -68q1 -80 -39 -125t-117 -45h-16q-55 0 -88 27q-35 29 -35 68v18q0 133 164 153h16zM419 1647l-6 -1q-57 -9 -57 -56v-8q0 -31 41 -31h9q55 0 55 60q0 12 -12 24t-30 12z" />
    <glyph glyph-name="Uhungarumlaut" unicode="&#x170;" horiz-adv-x="700" 
d="M252 0l-1 1q-193 0 -193 385q0 173 9 497q10 354 11 459q11 5 38 15q24 9 75 30q45 18 83 33l35 13q-35 -511 -35 -820q0 -317 21 -381t87 -64q119 0 119 471v731q101 40 176 60q0 -700 -2 -778t-2 -111q0 -45 -5 -123q-4 -67 -29 -157q-24 -88 -67 -138
q-44 -51 -124 -87q-81 -36 -196 -36zM298 1744h119l-90 -209l-117 -31zM509 1744h119l-109 -209l-114 -23z" />
    <glyph glyph-name="uhungarumlaut" unicode="&#x171;" horiz-adv-x="700" 
d="M252 0l-1 1q-193 0 -193 385q0 173 9 497q10 354 11 459q11 5 38 15q24 9 75 30q45 18 83 33l35 13q-35 -511 -35 -820q0 -317 21 -381t87 -64q119 0 119 471v731q101 40 176 60q0 -700 -2 -778t-2 -111q0 -45 -5 -123q-4 -67 -29 -157q-24 -88 -67 -138
q-44 -51 -124 -87q-81 -36 -196 -36zM220 1746h170l72 -236l-135 -26z" />
    <glyph glyph-name="Uogonek" unicode="&#x172;" horiz-adv-x="700" 
d="M252 0v-2q-193 0 -193 384q0 173 9 497q10 354 11 459q11 5 38 15q24 9 75 30q45 18 83 33l35 13q-35 -511 -35 -820q0 -317 21 -381t87 -64q119 0 119 471v731q101 40 176 60q0 -700 -2 -778t-2 -102q0 -44 -6 -156t-63 -219t-184 -149q-25 -19 -25 -56q0 -57 162 -57
h14v-113q-220 0 -262 57t-42 97q0 38 2 50h-18z" />
    <glyph glyph-name="uogonek" unicode="&#x173;" horiz-adv-x="700" 
d="M252 0v-2q-193 0 -193 384q0 173 9 497q10 354 11 459q11 5 38 15q24 9 75 30q45 18 83 33l35 13q-35 -511 -35 -820q0 -317 21 -381t87 -64q119 0 119 471v731q101 40 176 60q0 -700 -2 -778t-2 -102q0 -44 -6 -156t-63 -219t-184 -149q-25 -19 -25 -56q0 -57 162 -57
h14v-113q-220 0 -262 57t-42 97q0 38 2 50h-18z" />
    <glyph glyph-name="Wcircumflex" unicode="&#x174;" horiz-adv-x="1099" 
d="M766 457l145 942l179 35l-228 -1393l-200 -41l-136 954l-149 -919l-160 -33l-192 1374l174 56l123 -975l147 921l172 54zM518 1704l92 16l162 -233l-131 -19l-78 160l-78 -160l-141 -14z" />
    <glyph glyph-name="wcircumflex" unicode="&#x175;" horiz-adv-x="1099" 
d="M766 457l145 942l179 35l-228 -1393l-200 -41l-136 954l-149 -919l-160 -33l-192 1374l174 56l123 -975l147 921l172 54zM518 1704l92 16l162 -233l-131 -19l-78 160l-78 -160l-141 -14z" />
    <glyph glyph-name="Ycircumflex" unicode="&#x176;" horiz-adv-x="688" 
d="M-83 1286l244 101l221 -620q18 79 144 625q129 21 220 41q-23 -82 -49 -173t-57.5 -201t-48.5 -170q-77 -269 -144 -504q-77 -268 -100 -346l-213 -37l168 604q-56 113 -192 334q-134 217 -193 346zM302 1746l92 16l162 -233l-131 -19l-78 160l-78 -160l-141 -14z" />
    <glyph glyph-name="ycircumflex" unicode="&#x177;" horiz-adv-x="688" 
d="M-83 1286l244 101l221 -620q18 79 144 625q129 21 220 41q-23 -82 -49 -173t-57.5 -201t-48.5 -170q-77 -269 -144 -504q-77 -268 -100 -346l-213 -37l168 604q-56 113 -192 334q-134 217 -193 346zM302 1746l92 16l162 -233l-131 -19l-78 160l-78 -160l-141 -14z" />
    <glyph glyph-name="Ydieresis" unicode="&#x178;" horiz-adv-x="688" 
d="M225 1647l-1 -2q37 0 55 -18q20 -20 20 -43q1 -49 -24 -76.5t-72 -27.5h-10q-78 0 -78 57v14q0 85 102 96h8zM486 1665q70 0 72 -63q3 -94 -96 -103h-14q-72 0 -72 58v14q0 83 102 94h8zM-84 1284l244 101l221 -620q18 79 144 625q129 21 220 41q-23 -82 -49 -173
t-57.5 -201t-48.5 -170q-76 -269 -144 -504q-77 -268 -100 -346l-213 -37l168 604q-56 113 -192 334q-134 217 -193 346z" />
    <glyph glyph-name="Zacute" unicode="&#x179;" horiz-adv-x="671" 
d="M39 1376l562 57l-305 -1225q22 4 156 39t171 42v-242l-598 -47l329 1188l-315 -33v221zM357 1752h170l-116 -223l-148 -33z" />
    <glyph glyph-name="zacute" unicode="&#x17a;" horiz-adv-x="671" 
d="M39 1376l562 57l-305 -1225q22 4 156 39t171 42v-242l-598 -47l329 1188l-315 -33v221zM357 1752h170l-116 -223l-148 -33z" />
    <glyph glyph-name="Zdotaccent" unicode="&#x17b;" horiz-adv-x="671" 
d="M39 1376l562 57l-305 -1225q22 4 156 39t171 42v-242l-598 -47l329 1188l-315 -33v221zM339 1715v2q47 0 68 -24q23 -26 23 -55q1 -121 -123 -133h-12q-45 0 -70 21q-27 22 -27 53v16q0 107 129 120h12z" />
    <glyph glyph-name="zdotaccent" unicode="&#x17c;" horiz-adv-x="671" 
d="M39 1376l562 57l-305 -1225q22 4 156 39t171 42v-242l-598 -47l329 1188l-315 -33v221zM339 1715v2q47 0 68 -24q23 -26 23 -55q1 -121 -123 -133h-12q-45 0 -70 21q-27 22 -27 53v16q0 107 129 120h12z" />
    <glyph glyph-name="Zcaron" unicode="&#x17d;" horiz-adv-x="671" 
d="M39 1376l562 57l-305 -1225q22 4 156 39t171 42v-242l-598 -47l329 1188l-315 -33v221zM351 1512l-92 -16l-162 234l131 18l78 -160l78 160l141 14z" />
    <glyph glyph-name="zcaron" unicode="&#x17e;" horiz-adv-x="671" 
d="M39 1376l562 57l-305 -1225q22 4 156 39t171 42v-242l-598 -47l329 1188l-315 -33v221zM351 1512l-92 -16l-162 234l131 18l78 -160l78 160l141 14z" />
    <glyph glyph-name="uni01A2" unicode="&#x1a2;" horiz-adv-x="948" 
d="M575 1305v-1q0 -72 46 -127q33 -190 21 -442t-45 -393q-33 -140 -84 -211q-52 -71 -108 -98q-55 -26 -127 -23q-285 13 -252 721q24 513 144 597q122 86 173 95q53 9 121 5q71 -5 114 -97q-3 -8 -3 -26zM346 1199q-32 2 -56 -48t-40 -153t-24 -258q-10 -192 12 -348
q22 -155 63 -169q38 -2 81 157t51 323q8 167 -10 329q-18 164 -77 167zM909 1109l-22 -1069l-189 -40v1097zM834 1455l-2 -1q72 0 102 -35t29 -86q-2 -52 -42 -101q-41 -50 -124 -50q-84 0 -120 30t-36 77q0 166 193 166z" />
    <glyph glyph-name="uni01A3" unicode="&#x1a3;" horiz-adv-x="948" 
d="M575 1305v-1q0 -72 46 -127q33 -190 21 -442t-45 -393q-33 -140 -84 -211q-52 -71 -108 -98q-55 -26 -127 -23q-285 13 -252 721q24 513 144 597q122 86 173 95q53 9 121 5q71 -5 114 -97q-3 -8 -3 -26zM346 1199q-32 2 -56 -48t-40 -153t-24 -258q-10 -192 12 -348
q22 -155 63 -169q38 -2 81 157t51 323q8 167 -10 329q-18 164 -77 167zM909 1109l-22 -1069l-189 -40v1097zM834 1455l-2 -1q72 0 102 -35t29 -86q-2 -52 -42 -101q-41 -50 -124 -50q-84 0 -120 30t-36 77q0 166 193 166z" />
    <glyph glyph-name="AEacute" unicode="&#x1fc;" horiz-adv-x="1193" 
d="M1151 1212l-2 1q-25 -1 -129 -11t-128 -11v-404l205 48v-150l-205 -25v-454q171 35 272 60l-14 -223q-126 -8 -350 -29l-76 551q2 85 -16 329q-18 249 -18 429l475 111zM514 1435l221 -1395l-188 -39l-51 297l-236 -49l-37 -211l-178 -37l262 1389zM285 394l186 39
l-78 541zM633 1736h170l-117 -224l-147 -32z" />
    <glyph glyph-name="aeacute" unicode="&#x1fd;" horiz-adv-x="1193" 
d="M1151 1212l-2 1q-25 -1 -129 -11t-128 -11v-404l205 48v-150l-205 -25v-454q171 35 272 60l-14 -223q-126 -8 -350 -29l-76 551q2 85 -16 329q-18 249 -18 429l475 111zM514 1435l221 -1395l-188 -39l-51 297l-236 -49l-37 -211l-178 -37l262 1389zM285 394l186 39
l-78 541zM633 1736h170l-117 -224l-147 -32z" />
    <glyph glyph-name="Oslashacute" unicode="&#x1fe;" horiz-adv-x="665" 
d="M463 1430l-1 1q20 0 39 -9q21 -10 92 -103q72 -95 45 -630q-12 -253 -63 -408t-115 -210t-153 -60l-12 -146h-80l12 152q-232 63 -201 715q16 350 99 504t213 183l8 105l92 32l-10 -126h35zM431 693v1q0 184 -5.5 281t-25.5 160l-73 -889q35 50 66 186q38 165 38 261z
M318 1192q-74 -62 -89 -384q-15 -324 22 -487zM345 1819h170l-117 -224l-147 -32z" />
    <glyph glyph-name="oslashacute" unicode="&#x1ff;" horiz-adv-x="665" 
d="M463 1430l-1 1q20 0 39 -9q21 -10 92 -103q72 -95 45 -630q-12 -253 -63 -408t-115 -210t-153 -60l-12 -146h-80l12 152q-232 63 -201 715q16 350 99 504t213 183l8 105l92 32l-10 -126h35zM431 693v1q0 184 -5.5 281t-25.5 160l-73 -889q35 50 66 186q38 165 38 261z
M318 1192q-74 -62 -89 -384q-15 -324 22 -487zM345 1819h170l-117 -224l-147 -32z" />
    <glyph glyph-name="Scommaaccent" unicode="&#x218;" horiz-adv-x="559" 
d="M37 207l1 2q250 150 250 284q0 47 -37 111t-81 117t-81 130t-37 162q0 84 44 161q44 76 144 150q78 57 198 99l43 15l76 -179q-190 -63 -247 -138t-57 -109q0 -33 11 -63q10 -27 24 -49t43 -61q46 -63 53 -73q107 -168 107 -297q0 -127 -96 -241q-97 -115 -303 -251
q-7 26 -55 230zM151 -212h2q-29 0 -54 24q-26 24 -26 62t27 65t76 27q123 0 123 -104q0 -78 -63 -151t-141 -73v76q59 5 92 78q-7 -4 -36 -4z" />
    <glyph glyph-name="scommaaccent" unicode="&#x219;" horiz-adv-x="559" 
d="M37 207l1 2q250 150 250 284q0 47 -37 111t-81 117t-81 130t-37 162q0 84 44 161q44 76 144 150q78 57 198 99l43 15l76 -179q-190 -63 -247 -138t-57 -109q0 -33 11 -63q10 -27 24 -49t43 -61q46 -63 53 -73q107 -168 107 -297q0 -127 -96 -241q-97 -115 -303 -251
q-7 26 -55 230zM151 -212h2q-29 0 -54 24q-26 24 -26 62t27 65t76 27q123 0 123 -104q0 -78 -63 -151t-141 -73v76q59 5 92 78q-7 -4 -36 -4z" />
    <glyph glyph-name="uni021A" unicode="&#x21a;" horiz-adv-x="514" 
d="M387 41l-194 -41v1174l-193 -23v205l549 78v-213l-162 -23v-1157zM261 -214h1q-28 0 -55 24t-27 62t28 65t78 27q123 0 123 -104q0 -78 -63 -151t-141 -73v76q59 5 92 78q-7 -4 -36 -4z" />
    <glyph glyph-name="uni021B" unicode="&#x21b;" horiz-adv-x="514" 
d="M387 41l-194 -41v1174l-193 -23v205l549 78v-213l-162 -23v-1157zM261 -214h1q-28 0 -55 24t-27 62t28 65t78 27q123 0 123 -104q0 -78 -63 -151t-141 -73v76q59 5 92 78q-7 -4 -36 -4z" />
    <glyph glyph-name="circumflex" unicode="&#x2c6;" horiz-adv-x="552" 
d="M227 1706l92 16l162 -233l-131 -19l-78 160l-77 -160l-142 -14z" />
    <glyph glyph-name="caron" unicode="&#x2c7;" horiz-adv-x="552" 
d="M307 1473l-92 -17l-162 234l131 18l78 -160l78 160l141 14z" />
    <glyph glyph-name="breve" unicode="&#x2d8;" 
d="M285 1493l-23 -1q-56 -2 -84 24t-27 78q0 42 2 80l129 11v-62q0 -56 10 -72t48 -16q76 0 76 127v31l123 8v-53q0 -117 -85 -136q-67 -15 -169 -19z" />
    <glyph glyph-name="dotaccent" unicode="&#x2d9;" horiz-adv-x="321" 
d="M186 1647v2q47 0 68 -24t24 -54q0 -121 -123 -133h-13q-45 0 -70 21q-27 22 -27 51v17q0 107 129 120h12z" />
    <glyph glyph-name="ring" unicode="&#x2da;" horiz-adv-x="348" 
d="M207 1663l2 -1q57 0 84 -28q30 -32 30 -67q2 -79 -38.5 -124.5t-117.5 -45.5h-16q-55 0 -88 27q-35 29 -35 68v18q0 134 162 153h17zM192 1574l-7 -3q-55 -7 -55 -54v-9q0 -30 41 -30h8q55 0 55 60q0 12 -12 24t-30 12z" />
    <glyph glyph-name="ogonek" unicode="&#x2db;" horiz-adv-x="440" 
d="M356 -167l14 -2v-113q-220 0 -261 57q-41 58 -41 113q0 56 39 101q44 49 137 49h100l8 -58q-58 -2 -107 -24q-50 -23 -50 -66q0 -57 161 -57z" />
    <glyph glyph-name="tilde" unicode="&#x2dc;" 
d="M228 1671h-2q48 0 124 -30t99 -30q39 0 51 23q11 20 25 63l115 -15q-28 -174 -192 -174q-50 0 -115 24q-64 24 -88 24q-55 0 -72 -57l-111 29q17 50 68 97q49 46 98 46z" />
    <glyph glyph-name="hungarumlaut" unicode="&#x2dd;" horiz-adv-x="567" 
d="M184 1726h119l-90 -208l-117 -31zM395 1726h119l-108 -208l-115 -23z" />
    <glyph glyph-name="uni037E" unicode="&#x37e;" horiz-adv-x="319" 
d="M124 -1v-1q-29 0 -55 29q-27 30 -27 73t27 76t77 33q123 0 123 -125q0 -89 -63 -176t-139 -87v90q61 7 93 91q-8 -3 -36 -3zM180 529v2q47 0 68 -24q23 -26 23 -54q1 -121 -122 -135h-13q-44 0 -70 21q-27 22 -27 53v17q0 107 129 120h12z" />
    <glyph glyph-name="Alphatonos" unicode="&#x386;" 
d="M-60 1163v248l156 27v-275h-156zM469 1434l221 -1395l-188 -39l-51 297l-236 -49l-37 -211l-178 -37l262 1389zM240 393l186 39l-78 541z" />
    <glyph glyph-name="Epsilontonos" unicode="&#x388;" horiz-adv-x="618" 
d="M-77 1143v248l157 26v-274h-157zM582 1212v3q-24 -1 -130 -11q-107 -10 -127 -11v-404l204 48v-150l-204 -25v-454q171 35 272 60l-14 -223q-237 -17 -480 -42q0 47 9 315t9 1005l475 111z" />
    <glyph glyph-name="Etatonos" unicode="&#x389;" horiz-adv-x="784" 
d="M-38 1163v248l157 27v-275h-157zM731 1430l-39 -1389l-188 -39l10 457l-152 -21l-6 -399l-188 -39v1397l211 37l-14 -859l155 19v809z" />
    <glyph glyph-name="Iotatonos" unicode="&#x38a;" horiz-adv-x="530" 
d="M-7 1163v248l157 27v-275h-157zM471 1110l-22 -1069l-189 -41v1098zM395 1456l-3 -1q72 0 102 -35t29 -86q-2 -52 -42 -101q-41 -50 -123 -50q-83 0 -119 30t-36 77q-1 83 47 124.5t145 41.5z" />
    <glyph glyph-name="Omicrontonos" unicode="&#x38c;" horiz-adv-x="782" 
d="M14 1163v248l158 27v-275h-158zM754 1036v-3q0 -7 3.5 -161t-1.5 -189q-10 -203 -42 -342q-31 -138 -83 -210q-52 -71 -108 -98q-55 -26 -129 -23q-285 13 -252 721q24 511 159 606q137 96 254 93q45 -2 63 -10q20 -9 51 -51q31 -41 52 -114q33 -113 33 -219zM462 1196
l-3 -1q-28 2 -49 -31t-34 -100q-27 -135 -36 -327q-9 -189 14 -348q22 -155 63 -169q38 -2 81 157t51 323q8 167 -10 329q-18 165 -77 167z" />
    <glyph glyph-name="Upsilontonos" unicode="&#x38e;" horiz-adv-x="956" 
d="M-17 1163v248l156 27v-275h-156zM184 1286l247 99l221 -620q18 79 144 625q132 21 219 41q-218 -770 -400 -1392l-213 -37l168 604q-56 113 -192 334q-138 224 -194 346z" />
    <glyph glyph-name="Omegatonos" unicode="&#x38f;" horiz-adv-x="978" 
d="M68 838l-1 1q0 115 20 252q19 133 119 246q99 112 294 112q416 0 416 -526q0 -144 -31 -309q-34 -180 -60 -264l-30 -96l149 33l19 -221q-365 -66 -396 -66q0 16 4 25q147 547 147 862q1 385 -211 385q-236 0 -236 -451q0 -143 26 -330q25 -177 50 -291l25 -109
l-353 -103q-8 50 -13 75l-26 139l181 26q8 0 8 -2q-2 -7 -26 85q-25 97 -50 250q-25 156 -25 277zM-82 1164v248l157 27v-275h-157z" />
    <glyph glyph-name="Alpha" unicode="&#x391;" 
d="M469 1434l221 -1395l-188 -39l-51 297l-236 -49l-37 -211l-178 -37l262 1389zM240 393l186 39l-78 541z" />
    <glyph glyph-name="Beta" unicode="&#x392;" horiz-adv-x="602" 
d="M598 1167l-1 -2q0 -205 -227 -612q63 0 138 -36t75 -162q0 -84 -44 -154q-43 -69 -141 -123q-96 -53 -198 -67l-45 -6l-99 -5q-4 7 -6 356l-2 328q-1 291 14 635q46 46 127 80q84 35 153 35q256 -1 256 -267zM335 1249h1q-34 0 -74 -30l-20 -603q158 286 156 543
q0 90 -63 90zM379 331h2q0 47 -27 85q-27 37 -73 37q-17 0 -36 -6v-285q13 0 41 11q27 11 45 27t33 50q15 33 15 81z" />
    <glyph glyph-name="Gamma" unicode="&#x393;" horiz-adv-x="595" 
d="M565 1430l-12 -222l-301 -43v-1126l-189 -39v1360z" />
    <glyph glyph-name="Epsilon" unicode="&#x395;" horiz-adv-x="552" 
d="M516 1212l-1 2q-25 -1 -129 -11t-128 -11v-404l205 48v-150l-205 -25v-454q171 35 272 60l-14 -223q-236 -17 -479 -42q0 46 9 327q9 280 9 994l475 111z" />
    <glyph glyph-name="Zeta" unicode="&#x396;" horiz-adv-x="671" 
d="M39 1376l562 57l-305 -1225q22 4 156 39t171 42v-242l-598 -47l329 1188l-315 -33v221z" />
    <glyph glyph-name="Eta" unicode="&#x397;" horiz-adv-x="679" 
d="M627 1430l-39 -1389l-189 -39l11 457l-152 -21l-6 -399l-189 -39v1397l211 37l-14 -859l156 19v809z" />
    <glyph glyph-name="Theta" unicode="&#x398;" horiz-adv-x="665" 
d="M638 1036v-4q0 -31 1.5 -98t1.5 -129.5t-3 -122.5q-10 -202 -42 -342q-31 -138 -83 -210q-52 -71 -108 -98q-55 -26 -127 -23q-285 13 -252 721q24 512 159 607q137 96 254 93q45 -2 63 -10q20 -9 51 -51q32 -43 53 -114q32 -110 32 -219zM346 1195q-32 2 -56 -48
t-40 -153t-24 -258q-10 -192 12 -348q22 -155 63 -169q38 -2 81 157t51 323q8 167 -10 329q-18 164 -77 167zM266 804l135 6l-6 -192l-133 -7z" />
    <glyph glyph-name="Iota" unicode="&#x399;" horiz-adv-x="333" 
d="M274 1110l-22 -1069l-189 -41v1098zM199 1456l-2 -1q72 0 102 -35t29 -86q-2 -52 -42 -101q-41 -50 -123 -50q-83 0 -120 30t-37 77q0 166 193 166z" />
    <glyph glyph-name="Kappa" unicode="&#x39a;" horiz-adv-x="692" 
d="M242 94l-1 -48l-219 -45l51 1384l227 50l-49 -744q79 145 149 351q71 210 77 353l223 39q-6 -119 -88 -339t-159 -382l-78 -164q29 -86 142 -180q114 -95 198 -150l-166 -215q-185 150 -264 340l-37 -12q-2 -27 -6 -238z" />
    <glyph glyph-name="Lambda" unicode="&#x39b;" 
d="M348 973l-170 -936l-178 -37l262 1389l207 45l221 -1395l-188 -39z" />
    <glyph glyph-name="Mu" unicode="&#x39c;" horiz-adv-x="788" 
d="M457 0h-118q-12 126 -47 290q-30 139 -63 255l-28 96l20 -604l-178 -37q21 368 33 1143l4 266l201 25l114 -830h4l117 793l201 37q12 -1019 37 -1397l-181 -35l23 639q-112 -346 -139 -641z" />
    <glyph glyph-name="Nu" unicode="&#x39d;" horiz-adv-x="634" 
d="M53 1386l175 34l177 -962v942l200 31l-39 -1389l-202 -42q-19 130 -61 285q-36 133 -78 256l-32 94l51 -598l-191 -35v1384z" />
    <glyph glyph-name="Xi" unicode="&#x39e;" horiz-adv-x="567" 
d="M37 2v1q0 43 6 168l487 96l-14 -223q-236 -17 -479 -42zM516 1213q-127 -7 -461 -65v176l475 111zM463 685l-414 -92q2 60 2 147l412 95v-150z" />
    <glyph glyph-name="Omicron" unicode="&#x39f;" horiz-adv-x="665" 
d="M638 1036v-4q0 -31 1.5 -98t1.5 -129.5t-3 -122.5q-10 -202 -42 -342q-31 -138 -83 -210q-52 -71 -108 -98q-55 -26 -127 -23q-285 13 -252 721q24 512 159 607q137 96 254 93q45 -2 63 -10q20 -9 51 -51q32 -43 53 -114q32 -110 32 -219zM346 1195q-32 2 -56 -48
t-40 -153t-24 -258q-10 -192 12 -348q22 -155 63 -169q38 -2 81 157t51 323q8 167 -10 329q-18 164 -77 167z" />
    <glyph glyph-name="Pi" unicode="&#x3a0;" horiz-adv-x="688" 
d="M627 1430l-39 -1389l-178 -39v1184l-158 -21v-1126l-189 -39v1360z" />
    <glyph glyph-name="Rho" unicode="&#x3a1;" horiz-adv-x="647" 
d="M643 1167v-2q0 -158 -120 -404q-121 -249 -265 -459q-6 -74 -6 -261l-197 -41l54 1319q46 46 126 80q82 35 152 35q256 -1 256 -267zM444 1159q0 90 -63 90q-33 0 -74 -30l-47 -603q184 334 184 543z" />
    <glyph glyph-name="Sigma" unicode="&#x3a3;" horiz-adv-x="724" 
d="M45 1325v1q592 103 592 105l-27 -197l-293 -39l105 -408l117 39l-9 -163l-102 -25l-127 -440l365 63v-209l-633 -39l225 676q-202 635 -213 636z" />
    <glyph glyph-name="Tau" unicode="&#x3a4;" horiz-adv-x="514" 
d="M387 41l-194 -41v1174l-193 -23v205l549 78v-213l-162 -23v-1157z" />
    <glyph glyph-name="Upsilon" unicode="&#x3a5;" horiz-adv-x="688" 
d="M-83 1286l244 101l221 -620q18 79 144 625q129 21 220 41q-23 -82 -49 -173t-57.5 -201t-48.5 -170q-77 -269 -144 -504q-77 -268 -100 -346l-213 -37l168 604q-56 113 -192 334q-134 217 -193 346z" />
    <glyph glyph-name="Phi" unicode="&#x3a6;" horiz-adv-x="970" 
d="M383 1331l-4 95l211 13l-2 -125q67 39 176 35q18 0 35 -6t78 -88q62 -84 40 -546q-15 -330 -97 -459q-81 -127 -212 -121q-14 0 -39 4v-92l-188 -41v139q-49 -30 -121 -27q-244 13 -216 620q20 409 125 503q108 96 214 96zM315 1136l-1 1q-41 4 -66.5 -94t-35.5 -298
q-8 -163 12 -300t54 -147q27 0 56 86q28 86 45 201v428q-21 122 -64 123zM663 1153v-2q-52 0 -81 -164l-8 -538q18 -124 53 -135q33 0 69 137t42 279t-9 282t-66 141z" />
    <glyph glyph-name="Chi" unicode="&#x3a7;" horiz-adv-x="821" 
d="M29 0l270 722q-133 349 -287 631l215 78l183 -578l172 555q109 7 217 24q-29 -76 -123 -330t-150 -390q60 -132 283 -669l-209 -43l-180 582l-182 -539z" />
    <glyph glyph-name="Psi" unicode="&#x3a8;" horiz-adv-x="1005" 
d="M688 653l3 -2q-16 0 -106 9l-11 -27v-594l-188 -40v663q-73 -4 -132 -4q-51 0 -108 19q-59 20 -83 54q-24 35 -30 63t-6 99t15 246q16 183 17 255q13 4 36 9q14 3 69 17q45 12 80 18l30 6q-59 -277 -59 -510q0 -110 34 -144q35 -35 136 -36v671l199 13v-688
q103 -15 135 8t32 33l-2 136q-3 247 -60 447l238 53q1 -68 17 -273q15 -196 15 -267t-6 -99q-6 -30 -43 -80t-222 -55z" />
    <glyph glyph-name="Iotadieresis" unicode="&#x3aa;" horiz-adv-x="333" 
d="M274 1110l-22 -1069l-189 -41v1098zM53 1405l-1 -1q40 0 59 -22q21 -24 21 -51q1 -115 -104 -126h-11q-37 0 -60 21q-24 22 -24 50v16q0 101 110 113h10zM337 1429h1q39 0 57 -24q20 -27 20 -52q1 -112 -105 -123h-16q-70 0 -78 69v17q0 101 111 113h10z" />
    <glyph glyph-name="Upsilondieresis" unicode="&#x3ab;" horiz-adv-x="688" 
d="M225 1647l-1 -2q37 0 55 -18q20 -20 20 -43q1 -49 -24 -76.5t-72 -27.5h-10q-78 0 -78 57v14q0 85 102 96h8zM486 1665q70 0 72 -63q3 -94 -96 -103h-14q-72 0 -72 58v14q0 83 102 94h8zM-84 1284l244 101l221 -620q18 79 144 625q129 21 220 41q-23 -82 -49 -173
t-57.5 -201t-48.5 -170q-76 -269 -144 -504q-77 -268 -100 -346l-213 -37l168 604q-56 113 -192 334q-134 217 -193 346z" />
    <glyph glyph-name="alphatonos" unicode="&#x3ac;" 
d="M-60 1163v248l156 27v-275h-156zM469 1434l221 -1395l-188 -39l-51 297l-236 -49l-37 -211l-178 -37l262 1389zM240 393l186 39l-78 541z" />
    <glyph glyph-name="epsilontonos" unicode="&#x3ad;" horiz-adv-x="618" 
d="M-77 1143v248l157 26v-274h-157zM582 1212v3q-24 -1 -130 -11q-107 -10 -127 -11v-404l204 48v-150l-204 -25v-454q171 35 272 60l-14 -223q-237 -17 -480 -42q0 47 9 315t9 1005l475 111z" />
    <glyph glyph-name="etatonos" unicode="&#x3ae;" horiz-adv-x="784" 
d="M-38 1163v248l157 27v-275h-157zM731 1430l-39 -1389l-188 -39l10 457l-152 -21l-6 -399l-188 -39v1397l211 37l-14 -859l155 19v809z" />
    <glyph glyph-name="iotatonos" unicode="&#x3af;" horiz-adv-x="530" 
d="M-7 1163v248l157 27v-275h-157zM471 1110l-22 -1069l-189 -41v1098zM395 1456l-3 -1q72 0 102 -35t29 -86q-2 -52 -42 -101q-41 -50 -123 -50q-83 0 -119 30t-36 77q-1 83 47 124.5t145 41.5z" />
    <glyph glyph-name="alpha" unicode="&#x3b1;" 
d="M469 1434l221 -1395l-188 -39l-51 297l-236 -49l-37 -211l-178 -37l262 1389zM240 393l186 39l-78 541z" />
    <glyph glyph-name="beta" unicode="&#x3b2;" horiz-adv-x="602" 
d="M598 1167l-1 -2q0 -205 -227 -612q63 0 138 -36t75 -162q0 -84 -44 -154q-43 -69 -141 -123q-96 -53 -198 -67l-45 -6l-99 -5q-4 7 -6 356l-2 328q-1 291 14 635q46 46 127 80q84 35 153 35q256 -1 256 -267zM335 1249h1q-34 0 -74 -30l-20 -603q158 286 156 543
q0 90 -63 90zM379 331h2q0 47 -27 85q-27 37 -73 37q-17 0 -36 -6v-285q13 0 41 11q27 11 45 27t33 50q15 33 15 81z" />
    <glyph glyph-name="gamma" unicode="&#x3b3;" horiz-adv-x="595" 
d="M565 1430l-12 -222l-301 -43v-1126l-189 -39v1360z" />
    <glyph glyph-name="delta" unicode="&#x3b4;" 
d="M680 66l-680 -66l262 1389l207 45zM348 973l-141 -778l260 24z" />
    <glyph glyph-name="epsilon" unicode="&#x3b5;" horiz-adv-x="552" 
d="M516 1212l-1 2q-25 -1 -129 -11t-128 -11v-404l205 48v-150l-205 -25v-454q171 35 272 60l-14 -223q-236 -17 -479 -42q0 46 9 327q9 280 9 994l475 111z" />
    <glyph glyph-name="zeta" unicode="&#x3b6;" horiz-adv-x="671" 
d="M39 1376l562 57l-305 -1225q22 4 156 39t171 42v-242l-598 -47l329 1188l-315 -33v221z" />
    <glyph glyph-name="eta" unicode="&#x3b7;" horiz-adv-x="679" 
d="M627 1430l-39 -1389l-189 -39l11 457l-152 -21l-6 -399l-189 -39v1397l211 37l-14 -859l156 19v809z" />
    <glyph glyph-name="theta" unicode="&#x3b8;" horiz-adv-x="665" 
d="M638 1036v-4q0 -31 1.5 -98t1.5 -129.5t-3 -122.5q-10 -202 -42 -342q-31 -138 -83 -210q-52 -71 -108 -98q-55 -26 -127 -23q-285 13 -252 721q24 512 159 607q137 96 254 93q45 -2 63 -10q20 -9 51 -51q32 -43 53 -114q32 -110 32 -219zM346 1195q-32 2 -56 -48
t-40 -153t-24 -258q-10 -192 12 -348q22 -155 63 -169q38 -2 81 157t51 323q8 167 -10 329q-18 164 -77 167zM266 804l135 6l-6 -192l-133 -7z" />
    <glyph glyph-name="iota" unicode="&#x3b9;" horiz-adv-x="333" 
d="M274 1110l-22 -1069l-189 -41v1098zM199 1456l-2 -1q72 0 102 -35t29 -86q-2 -52 -42 -101q-41 -50 -123 -50q-83 0 -120 30t-37 77q0 166 193 166z" />
    <glyph glyph-name="kappa" unicode="&#x3ba;" horiz-adv-x="692" 
d="M242 94l-1 -48l-219 -45l51 1384l227 50l-49 -744q79 145 149 351q71 210 77 353l223 39q-6 -119 -88 -339t-159 -382l-78 -164q29 -86 142 -180q114 -95 198 -150l-166 -215q-185 150 -264 340l-37 -12q-2 -27 -6 -238z" />
    <glyph glyph-name="lambda" unicode="&#x3bb;" 
d="M348 973l-170 -936l-178 -37l262 1389l207 45l221 -1395l-188 -39z" />
    <glyph glyph-name="mu" unicode="&#x3bc;" horiz-adv-x="788" 
d="M457 0h-118q-12 126 -47 290q-30 139 -63 255l-28 96l20 -604l-178 -37q21 368 33 1143l4 266l201 25l114 -830h4l117 793l201 37q12 -1019 37 -1397l-181 -35l23 639q-112 -346 -139 -641z" />
    <glyph glyph-name="nu" unicode="&#x3bd;" horiz-adv-x="788" 
d="M457 0h-118q-12 126 -47 290q-30 139 -63 255l-28 96l20 -604l-178 -37q21 368 33 1143l4 266l201 25l114 -830h4l117 793l201 37q12 -1019 37 -1397l-181 -35l23 639q-112 -346 -139 -641z" />
    <glyph glyph-name="xi" unicode="&#x3be;" horiz-adv-x="567" 
d="M37 2v1q0 43 6 168l487 96l-14 -223q-236 -17 -479 -42zM516 1213q-127 -7 -461 -65v176l475 111zM463 685l-414 -92q2 60 2 147l412 95v-150z" />
    <glyph glyph-name="omicron" unicode="&#x3bf;" horiz-adv-x="665" 
d="M638 1036v-4q0 -31 1.5 -98t1.5 -129.5t-3 -122.5q-10 -202 -42 -342q-31 -138 -83 -210q-52 -71 -108 -98q-55 -26 -127 -23q-285 13 -252 721q24 512 159 607q137 96 254 93q45 -2 63 -10q20 -9 51 -51q32 -43 53 -114q32 -110 32 -219zM346 1195q-32 2 -56 -48
t-40 -153t-24 -258q-10 -192 12 -348q22 -155 63 -169q38 -2 81 157t51 323q8 167 -10 329q-18 164 -77 167z" />
    <glyph glyph-name="pi" unicode="&#x3c0;" horiz-adv-x="688" 
d="M627 1430l-39 -1389l-178 -39v1184l-158 -21v-1126l-189 -39v1360z" />
    <glyph glyph-name="rho" unicode="&#x3c1;" horiz-adv-x="647" 
d="M643 1167v-2q0 -158 -120 -404q-121 -249 -265 -459q-6 -74 -6 -261l-197 -41l54 1319q46 46 126 80q82 35 152 35q256 -1 256 -267zM444 1159q0 90 -63 90q-33 0 -74 -30l-47 -603q184 334 184 543z" />
    <glyph glyph-name="sigma1" unicode="&#x3c2;" horiz-adv-x="724" 
d="M45 1325v1q592 103 592 105l-27 -197l-293 -39l105 -408l117 39l-9 -163l-102 -25l-127 -440l365 63v-209l-633 -39l225 676q-202 635 -213 636z" />
    <glyph glyph-name="sigma" unicode="&#x3c3;" horiz-adv-x="724" 
d="M45 1325v1q592 103 592 105l-27 -197l-293 -39l105 -408l117 39l-9 -163l-102 -25l-127 -440l365 63v-209l-633 -39l225 676q-202 635 -213 636z" />
    <glyph glyph-name="tau" unicode="&#x3c4;" horiz-adv-x="514" 
d="M387 41l-194 -41v1174l-193 -23v205l549 78v-213l-162 -23v-1157z" />
    <glyph glyph-name="upsilon" unicode="&#x3c5;" horiz-adv-x="688" 
d="M-83 1286l244 101l221 -620q18 79 144 625q129 21 220 41q-23 -82 -49 -173t-57.5 -201t-48.5 -170q-77 -269 -144 -504q-77 -268 -100 -346l-213 -37l168 604q-56 113 -192 334q-134 217 -193 346z" />
    <glyph glyph-name="phi" unicode="&#x3c6;" horiz-adv-x="970" 
d="M383 1331l-4 95l211 13l-2 -125q67 39 176 35q18 0 35 -6t78 -88q62 -84 40 -546q-15 -330 -97 -459q-81 -127 -212 -121q-14 0 -39 4v-92l-188 -41v139q-49 -30 -121 -27q-244 13 -216 620q20 409 125 503q108 96 214 96zM315 1136l-1 1q-41 4 -66.5 -94t-35.5 -298
q-8 -163 12 -300t54 -147q27 0 56 86q28 86 45 201v428q-21 122 -64 123zM663 1153v-2q-52 0 -81 -164l-8 -538q18 -124 53 -135q33 0 69 137t42 279t-9 282t-66 141z" />
    <glyph glyph-name="chi" unicode="&#x3c7;" horiz-adv-x="821" 
d="M29 0l270 722q-133 349 -287 631l215 78l183 -578l172 555q109 7 217 24q-29 -76 -123 -330t-150 -390q60 -132 283 -669l-209 -43l-180 582l-182 -539z" />
    <glyph glyph-name="psi" unicode="&#x3c8;" horiz-adv-x="1005" 
d="M688 653l3 -2q-16 0 -106 9l-11 -27v-594l-188 -40v663q-73 -4 -132 -4q-51 0 -108 19q-59 20 -83 54q-24 35 -30 63t-6 99t15 246q16 183 17 255q13 4 36 9q14 3 69 17q45 12 80 18l30 6q-59 -277 -59 -510q0 -110 34 -144q35 -35 136 -36v671l199 13v-688
q103 -15 135 8t32 33l-2 136q-3 247 -60 447l238 53q1 -68 17 -273q15 -196 15 -267t-6 -99q-6 -30 -43 -80t-222 -55z" />
    <glyph glyph-name="omega" unicode="&#x3c9;" horiz-adv-x="978" 
d="M68 838l-1 1q0 115 20 252q19 133 119 246q99 112 294 112q416 0 416 -526q0 -144 -31 -309q-34 -180 -60 -264l-30 -96l149 33l19 -221q-365 -66 -396 -66q0 16 4 25q147 547 147 862q1 385 -211 385q-236 0 -236 -451q0 -143 26 -330q25 -177 50 -291l25 -109
l-353 -103q-8 50 -13 75l-26 139l181 26q8 0 8 -2q-2 -7 -26 85q-25 97 -50 250q-25 156 -25 277z" />
    <glyph glyph-name="iotadieresis" unicode="&#x3ca;" horiz-adv-x="333" 
d="M274 1110l-22 -1069l-189 -41v1098zM53 1405l-1 -1q40 0 59 -22q21 -24 21 -51q1 -115 -104 -126h-11q-37 0 -60 21q-24 22 -24 50v16q0 101 110 113h10zM337 1429h1q39 0 57 -24q20 -27 20 -52q1 -112 -105 -123h-16q-70 0 -78 69v17q0 101 111 113h10z" />
    <glyph glyph-name="upsilondieresis" unicode="&#x3cb;" horiz-adv-x="688" 
d="M225 1647l-1 -2q37 0 55 -18q20 -20 20 -43q1 -49 -24 -76.5t-72 -27.5h-10q-78 0 -78 57v14q0 85 102 96h8zM486 1665q70 0 72 -63q3 -94 -96 -103h-14q-72 0 -72 58v14q0 83 102 94h8zM-84 1284l244 101l221 -620q18 79 144 625q129 21 220 41q-23 -82 -49 -173
t-57.5 -201t-48.5 -170q-76 -269 -144 -504q-77 -268 -100 -346l-213 -37l168 604q-56 113 -192 334q-134 217 -193 346z" />
    <glyph glyph-name="omicrontonos" unicode="&#x3cc;" horiz-adv-x="782" 
d="M14 1163v248l158 27v-275h-158zM754 1036v-3q0 -7 3.5 -161t-1.5 -189q-10 -203 -42 -342q-31 -138 -83 -210q-52 -71 -108 -98q-55 -26 -129 -23q-285 13 -252 721q24 511 159 606q137 96 254 93q45 -2 63 -10q20 -9 51 -51q31 -41 52 -114q33 -113 33 -219zM462 1196
l-3 -1q-28 2 -49 -31t-34 -100q-27 -135 -36 -327q-9 -189 14 -348q22 -155 63 -169q38 -2 81 157t51 323q8 167 -10 329q-18 165 -77 167z" />
    <glyph glyph-name="upsilontonos" unicode="&#x3cd;" horiz-adv-x="956" 
d="M-17 1163v248l156 27v-275h-156zM184 1286l247 99l221 -620q18 79 144 625q132 21 219 41q-218 -770 -400 -1392l-213 -37l168 604q-56 113 -192 334q-138 224 -194 346z" />
    <glyph glyph-name="omegatonos" unicode="&#x3ce;" horiz-adv-x="978" 
d="M68 838l-1 1q0 115 20 252q19 133 119 246q99 112 294 112q416 0 416 -526q0 -144 -31 -309q-34 -180 -60 -264l-30 -96l149 33l19 -221q-365 -66 -396 -66q0 16 4 25q147 547 147 862q1 385 -211 385q-236 0 -236 -451q0 -143 26 -330q25 -177 50 -291l25 -109
l-353 -103q-8 50 -13 75l-26 139l181 26q8 0 8 -2q-2 -7 -26 85q-25 97 -50 250q-25 156 -25 277zM-82 1164v248l157 27v-275h-157z" />
    <glyph glyph-name="afii10023" unicode="&#x401;" horiz-adv-x="552" 
d="M516 1212l-1 2q-25 -1 -129 -11t-128 -11v-404l205 48v-150l-205 -25v-454q171 35 272 60l-14 -223q-236 -17 -479 -42q0 46 9 327q9 280 9 994l475 111zM163 1657l-1 -1q37 0 55 -18q20 -20 20 -43q1 -49 -24 -76.5t-73 -27.5h-10q-78 0 -78 57v15q0 83 103 94h8z
M424 1676q70 0 72 -63q3 -94 -97 -103h-14q-72 0 -72 58v14q0 83 103 94h8z" />
    <glyph glyph-name="afii10051" unicode="&#x402;" horiz-adv-x="874" 
d="M492 840l1 -3q-119 0 -119 -314v-483l-197 -40v1211l-139 -18v186l549 76v-184l-217 -31v-330q66 97 254 99q76 0 123 -57q46 -56 58 -122q12 -64 12 -138v-352q0 -180 -90 -270q-72 -72 -270 -77v181l61 2q54 2 68 43q16 48 15 165l-2 236q-2 137 -21 177q-21 43 -86 43
z" />
    <glyph glyph-name="afii10052" unicode="&#x403;" horiz-adv-x="595" 
d="M565 1430l-12 -222l-301 -43v-1126l-189 -39v1360zM309 1767h170l-117 -223l-147 -33z" />
    <glyph glyph-name="afii10053" unicode="&#x404;" horiz-adv-x="665" 
d="M440 0h-5q-44 0 -89 8q-41 7 -103 42q-60 34 -103 95q-41 59 -73 175q-31 114 -31 285q0 170 30 323q31 156 97 293q61 125 135 189l29 25l145 -172q-194 -211 -229 -529l338 70v-164l-344 -70q6 -151 49 -259q43 -109 120 -109q46 0 78 41t39 81l8 41l156 -109
q-19 -97 -86 -177q-66 -79 -161 -79z" />
    <glyph glyph-name="afii10054" unicode="&#x405;" horiz-adv-x="559" 
d="M37 207l1 2q250 150 250 284q0 47 -37 111t-81 117t-81 130t-37 162q0 84 44 161q44 76 144 150q78 57 198 99l43 15l76 -179q-190 -63 -247 -138t-57 -109q0 -33 11 -63q10 -27 24 -49t43 -61q46 -63 53 -73q107 -168 107 -297q0 -127 -96 -241q-97 -115 -303 -251
q-7 26 -55 230z" />
    <glyph glyph-name="afii10055" unicode="&#x406;" horiz-adv-x="333" 
d="M274 1110l-22 -1069l-189 -41v1098zM199 1456l-2 -1q72 0 102 -35t29 -86q-2 -52 -42 -101q-41 -50 -123 -50q-83 0 -120 30t-37 77q0 166 193 166z" />
    <glyph glyph-name="afii10056" unicode="&#x407;" horiz-adv-x="333" 
d="M274 1110l-22 -1069l-189 -41v1098zM53 1405l-1 -1q40 0 59 -22q21 -24 21 -51q1 -115 -104 -126h-11q-37 0 -60 21q-24 22 -24 50v16q0 101 110 113h10zM337 1429h1q39 0 57 -24q20 -27 20 -52q1 -112 -105 -123h-16q-70 0 -78 69v17q0 101 111 113h10z" />
    <glyph glyph-name="afii10057" unicode="&#x408;" horiz-adv-x="616" 
d="M285 0q-297 0 -304 375l148 153q51 -303 135 -303q44 0 59 114t15 395q0 227 -2 441l-213 -23v205l569 78v-213l-157 -23v-782q0 -327 -96 -372t-154 -45z" />
    <glyph glyph-name="afii10058" unicode="&#x409;" horiz-adv-x="1312" 
d="M285 0h1q-215 0 -281 202l164 155q43 -133 96 -133q78 0 78 359q0 61 -27 816l572 35v-445q73 21 120 21q258 2 258 -236q0 -140 -121 -357q-123 -220 -268 -408v-4l-3 -4h-176v1229l-163 -15v-798q0 -327 -96 -372t-154 -45zM1002 847q-77 0 -114 -29v-520
q179 291 178 469q0 80 -64 80z" />
    <glyph glyph-name="afii10059" unicode="&#x40a;" horiz-adv-x="995" 
d="M416 0l-1 3l-17 -2l11 846l-152 -21l-6 -788l-189 -38v1396l211 37l-14 -469l156 18v420l211 27l-13 -437q61 18 108 18q258 2 258 -236q0 -245 -391 -774h-172zM713 847h-1q-62 0 -106 -23l-8 -346v-180q178 289 178 469q0 80 -63 80z" />
    <glyph glyph-name="afii10060" unicode="&#x40b;" horiz-adv-x="874" 
d="M815 694l-2 -2q0 -446 -8 -659l-207 -34v620q0 133 -21 177q-21 43 -86 43q-119 0 -119 -314v-483l-197 -41v1212l-139 -18v186l549 76v-184l-217 -31v-330q66 97 254 99q76 0 123 -57q46 -56 58 -122q12 -64 12 -138z" />
    <glyph glyph-name="afii10061" unicode="&#x40c;" horiz-adv-x="692" 
d="M242 94l-1 -48l-219 -45l51 1384l227 50l-49 -744q79 145 149 351q71 210 77 353l223 39q-6 -119 -88 -339t-159 -382l-78 -164q29 -86 142 -180q114 -95 198 -150l-166 -215q-185 150 -264 340l-37 -12q-2 -27 -6 -238zM392 1750h170l-117 -223l-147 -33z" />
    <glyph glyph-name="afii10062" unicode="&#x40e;" horiz-adv-x="819" 
d="M215 170h1q70 0 117 102l94 334q-56 113 -192 334q-138 224 -194 346l248 100l221 -620q18 79 144 625q132 21 219 41q-16 -58 -97.5 -334.5t-133.5 -470.5q-14 -52 -37 -140.5t-33.5 -128t-25 -86t-26.5 -72.5q-50 -112 -115 -171q-67 -59 -222 -59q-95 0 -162 78
q-67 80 -86 177l155 109q0 -10 12 -48q12 -39 24 -59q12 -21 36 -39t53 -18zM407 1450l-23 1q-113 5 -113 102q0 42 2 80l129 10v-61q0 -55 11 -72q10 -16 48 -16q76 0 76 127v31l122 8v-53q0 -119 -84 -138q-93 -22 -168 -19z" />
    <glyph glyph-name="afii10145" unicode="&#x40f;" horiz-adv-x="790" 
d="M63 0l-2 1386l220 41v-1183l157 20v1127l189 39l6 -1371l-162 -16l29 -179l-209 -21l-23 177z" />
    <glyph glyph-name="afii10017" unicode="&#x410;" 
d="M469 1434l221 -1395l-188 -39l-51 297l-236 -49l-37 -211l-178 -37l262 1389zM240 393l186 39l-78 541z" />
    <glyph glyph-name="afii10018" unicode="&#x411;" horiz-adv-x="675" 
d="M631 774l1 -1q0 -140 -121 -357q-123 -220 -268 -408v-4l-2 -4h-177v1360l502 70l-12 -222l-301 -43v-176q73 21 120 21q258 2 258 -236zM368 847q-77 0 -115 -29v-520q178 289 178 469q0 80 -63 80z" />
    <glyph glyph-name="afii10019" unicode="&#x412;" horiz-adv-x="602" 
d="M598 1167l-1 -2q0 -205 -227 -612q63 0 138 -36t75 -162q0 -84 -44 -154q-43 -69 -141 -123q-96 -53 -198 -67l-45 -6l-99 -5q-4 7 -6 356l-2 328q-1 291 14 635q46 46 127 80q84 35 153 35q256 -1 256 -267zM335 1249h1q-34 0 -74 -30l-20 -603q158 286 156 543
q0 90 -63 90zM379 331h2q0 47 -27 85q-27 37 -73 37q-17 0 -36 -6v-285q13 0 41 11q27 11 45 27t33 50q15 33 15 81z" />
    <glyph glyph-name="afii10020" unicode="&#x413;" horiz-adv-x="595" 
d="M565 1430l-12 -222l-301 -43v-1126l-189 -39v1360z" />
    <glyph glyph-name="afii10021" unicode="&#x414;" horiz-adv-x="925" 
d="M-56 -136v-2q0 11 -2 215q4 41 11 76q6 30 80 30h131q78 0 78 400q0 61 -27 816l582 35v-1272h86v-298h-181v136h-575v-136h-183zM434 414v1q0 -177 -20 -255h184v1067l-164 -15v-798z" />
    <glyph glyph-name="afii10022" unicode="&#x415;" horiz-adv-x="552" 
d="M516 1212l-1 2q-25 -1 -129 -11t-128 -11v-404l205 48v-150l-205 -25v-454q171 35 272 60l-14 -223q-236 -17 -479 -42q0 46 9 327q9 280 9 994l475 111z" />
    <glyph glyph-name="afii10024" unicode="&#x416;" horiz-adv-x="1179" 
d="M713 1427l-28 -694q70 167 131 360q63 198 69 305l268 33q-6 -117 -105 -339q-98 -220 -195 -385l-96 -162q6 -9 17 -31q11 -24 101 -123q89 -97 255 -210l-202 -180q-99 81 -168 229q-71 152 -71 153l4 -344l-184 -40l-4 396q-107 -265 -255 -393l-205 180
q131 88 225 180q99 96 123 137l27 47q-17 29 -39 62t-88 150q-67 118 -113 210q-51 103 -92 213q-41 112 -46 188l248 49q6 -128 75 -339q68 -209 143 -360l-21 676z" />
    <glyph glyph-name="afii10025" unicode="&#x417;" horiz-adv-x="677" 
d="M662 1077l1 -1q0 -188 -177 -384q185 -72 185 -288q0 -215 -101 -310q-100 -94 -252 -94t-319 66l95 237q89 -53 183 -53q97 0 145 37.5t47 111.5q0 46 -41 81t-81 35q-67 0 -136 -20l-25 -7q-34 194 -33 246q113 0 216 118q104 119 104 232q0 46 -24 83q-24 38 -57 38
q-56 0 -115 -89q-58 -88 -96 -185l-166 110q92 254 165 323q74 69 177 69q104 0 204 -106q101 -107 101 -250z" />
    <glyph glyph-name="afii10026" unicode="&#x418;" horiz-adv-x="694" 
d="M473 1368l177 68l-61 -1393l-170 -46l31 638q-130 -309 -173 -594l-202 -39q23 1318 21 1364l201 72l-61 -979z" />
    <glyph glyph-name="afii10027" unicode="&#x419;" horiz-adv-x="632" 
d="M649 1436l-60 -1393l-170 -46l31 638l-35 -86q-28 -68 -76 -232q-43 -149 -63 -276l-202 -39l22 1364l201 72l-61 -979l237 909zM290 1491l-23 -1q-56 -2 -84 24t-27 78q0 42 2 80l129 10v-61q0 -56 10 -72t48 -16q76 0 76 127v31l123 8v-53q0 -117 -85 -136
q-67 -15 -169 -19z" />
    <glyph glyph-name="afii10028" unicode="&#x41a;" horiz-adv-x="692" 
d="M242 94l-1 -48l-219 -45l51 1384l227 50l-49 -744q79 145 149 351q71 210 77 353l223 39q-6 -119 -88 -339t-159 -382l-78 -164q29 -86 142 -180q114 -95 198 -150l-166 -215q-185 150 -264 340l-37 -12q-2 -27 -6 -238z" />
    <glyph glyph-name="afii10029" unicode="&#x41b;" horiz-adv-x="954" 
d="M285 0q-173 0 -250 131l147 184q38 -90 82 -90q78 0 78 359q0 62 -27 816l592 35l-12 -1434h-197v1229l-163 -15v-798q0 -327 -96 -372t-154 -45z" />
    <glyph glyph-name="afii10030" unicode="&#x41c;" horiz-adv-x="788" 
d="M457 0h-118q-12 126 -47 290q-30 139 -63 255l-28 96l20 -604l-178 -37q21 368 33 1143l4 266l201 25l114 -830h4l117 793l201 37q12 -1019 37 -1397l-181 -35l23 639q-112 -346 -139 -641z" />
    <glyph glyph-name="afii10031" unicode="&#x41d;" horiz-adv-x="679" 
d="M627 1430l-39 -1389l-189 -39l11 457l-152 -21l-6 -399l-189 -39v1397l211 37l-14 -859l156 19v809z" />
    <glyph glyph-name="afii10032" unicode="&#x41e;" horiz-adv-x="665" 
d="M638 1036v-4q0 -31 1.5 -98t1.5 -129.5t-3 -122.5q-10 -202 -42 -342q-31 -138 -83 -210q-52 -71 -108 -98q-55 -26 -127 -23q-285 13 -252 721q24 512 159 607q137 96 254 93q45 -2 63 -10q20 -9 51 -51q32 -43 53 -114q32 -110 32 -219zM346 1195q-32 2 -56 -48
t-40 -153t-24 -258q-10 -192 12 -348q22 -155 63 -169q38 -2 81 157t51 323q8 167 -10 329q-18 164 -77 167z" />
    <glyph glyph-name="afii10033" unicode="&#x41f;" horiz-adv-x="688" 
d="M627 1430l-39 -1389l-178 -39v1184l-158 -21v-1126l-189 -39v1360z" />
    <glyph glyph-name="afii10034" unicode="&#x420;" horiz-adv-x="647" 
d="M643 1167v-2q0 -158 -120 -404q-121 -249 -265 -459q-6 -74 -6 -261l-197 -41l54 1319q46 46 126 80q82 35 152 35q256 -1 256 -267zM444 1159q0 90 -63 90q-33 0 -74 -30l-47 -603q184 334 184 543z" />
    <glyph glyph-name="afii10035" unicode="&#x421;" horiz-adv-x="655" 
d="M440 0l-4 -2q-50 0 -89 7q-41 7 -103 42q-60 34 -103 95q-41 59 -73 175q-31 114 -31 285q0 170 30 323q31 156 97 293q61 125 135 189l29 25l145 -172q-109 -118 -172 -285t-63 -339t42 -303t126 -131q46 0 78 41t39 81l8 41l156 -109q-19 -97 -86 -177
q-66 -79 -161 -79z" />
    <glyph glyph-name="afii10036" unicode="&#x422;" horiz-adv-x="514" 
d="M387 41l-194 -41v1174l-193 -23v205l549 78v-213l-162 -23v-1157z" />
    <glyph glyph-name="afii10037" unicode="&#x423;" horiz-adv-x="819" 
d="M215 170h1q70 0 117 102l94 334q-56 113 -192 334q-138 224 -194 346l248 100l221 -620q18 79 144 625q132 21 219 41q-16 -58 -97.5 -334.5t-133.5 -470.5q-14 -52 -37 -140.5t-33.5 -128t-25 -86t-26.5 -72.5q-50 -112 -115 -171q-67 -59 -222 -59q-95 0 -162 78
q-67 80 -86 177l155 109q0 -10 12 -48q12 -39 24 -59q12 -21 36 -39t53 -18z" />
    <glyph glyph-name="afii10038" unicode="&#x424;" horiz-adv-x="970" 
d="M383 1331l-4 95l211 13l-2 -125q67 39 176 35q18 0 35 -6t78 -88q62 -84 40 -546q-15 -330 -97 -459q-81 -127 -212 -121q-14 0 -39 4v-92l-188 -41v139q-49 -30 -121 -27q-244 13 -216 620q20 409 125 503q108 96 214 96zM315 1136l-1 1q-41 4 -66.5 -94t-35.5 -298
q-8 -163 12 -300t54 -147q27 0 56 86q28 86 45 201v428q-21 122 -64 123zM663 1153v-2q-52 0 -81 -164l-8 -538q18 -124 53 -135q33 0 69 137t42 279t-9 282t-66 141z" />
    <glyph glyph-name="afii10039" unicode="&#x425;" horiz-adv-x="821" 
d="M29 0l270 722q-133 349 -287 631l215 78l183 -578l172 555q109 7 217 24q-29 -76 -123 -330t-150 -390q60 -132 283 -669l-209 -43l-180 582l-182 -539z" />
    <glyph glyph-name="afii10040" unicode="&#x426;" horiz-adv-x="790" 
d="M63 0l-2 1386l220 41v-1183l157 20v1127l189 39v-1147l151 20v-408l-215 -23v187z" />
    <glyph glyph-name="afii10041" unicode="&#x427;" horiz-adv-x="772" 
d="M248 432v-1q-76 0 -123 57q-46 56 -58 122q-12 64 -12 159t9 309q10 235 11 304q55 15 99 26q32 8 101 26l33 8q-37 -321 -37 -618q0 -134 21 -177t87 -43q119 0 119 314v503h4l211 13l-23 -1393l-188 -41v530q-66 -98 -254 -98z" />
    <glyph glyph-name="afii10042" unicode="&#x428;" horiz-adv-x="1019" 
d="M84 0l-2 1386l199 41v-1237l137 27v1174l196 41v-1205l138 21v1147l209 39l-41 -1360z" />
    <glyph glyph-name="afii10043" unicode="&#x429;" horiz-adv-x="1036" 
d="M84 0l-2 1386l199 41v-1237l137 27v1174l196 41v-1205l138 21v1147l209 39l-35 -1147l112 16v-394l-211 -23v180z" />
    <glyph glyph-name="afii10044" unicode="&#x42a;" horiz-adv-x="745" 
d="M436 848q-77 0 -114 -29v-520q179 291 178 469q0 80 -64 80zM133 0l-1 1238l-129 -27l14 179l304 41v-443q73 21 120 21q258 1 258 -236q0 -139 -120 -357q-121 -220 -268 -408v-4l-2 -4h-176z" />
    <glyph glyph-name="afii10045" unicode="&#x42b;" horiz-adv-x="970" 
d="M631 774l1 -1q0 -140 -121 -357q-123 -220 -268 -408v-4l-2 -4h-177v1380l189 52v-443q73 21 120 21q258 2 258 -236zM368 847q-77 0 -115 -29v-520q178 289 178 469q0 80 -63 80zM931 1437l-23 -1397l-188 -40v1404z" />
    <glyph glyph-name="afii10046" unicode="&#x42c;" horiz-adv-x="675" 
d="M631 774l1 -1q0 -140 -121 -357q-123 -220 -268 -408v-4l-2 -4h-177v1380l189 52v-443q73 21 120 21q258 2 258 -236zM368 847q-77 0 -115 -29v-520q178 289 178 469q0 80 -63 80z" />
    <glyph glyph-name="afii10047" unicode="&#x42d;" horiz-adv-x="704" 
d="M29 227l144 124q14 -61 55 -108t89 -42q76 9 106 122q30 114 21 264l-350 4l21 164l305 -6q-67 308 -285 499l125 189q40 -20 105 -91q68 -74 113 -154q47 -83 93 -232q47 -152 65 -318q18 -168 0 -286q-18 -119 -54 -182t-93 -105t-99 -54q-34 -10 -87 -15
q-97 -11 -168 59q-73 71 -106 168z" />
    <glyph glyph-name="afii10048" unicode="&#x42e;" horiz-adv-x="1056" 
d="M986 1036l1 -6q11 -147 0 -350q-11 -202 -42 -342q-31 -138 -83 -210q-52 -71 -108 -98q-57 -27 -109 -24q-53 3 -80 12q-28 9 -113 87t-81 514l-111 -17l-8 -563l-189 -40v1404l211 33l-10 -613l119 19q36 384 154 488q118 105 244 100q51 -2 69 -10q20 -9 51 -51
q32 -43 53 -114q22 -74 32 -219zM695 1193l-3 -1q-28 2 -48 -30.5t-34 -100.5q-27 -135 -36 -327q-9 -195 13 -348q22 -155 63 -169q38 -2 81 157t51 323q8 167 -10 329q-18 165 -77 167z" />
    <glyph glyph-name="afii10049" unicode="&#x42f;" horiz-adv-x="661" 
d="M59 1167l-2 2q0 266 256 267q69 0 153 -35q81 -34 127 -80l12 -1278l-196 -41q0 234 -7 303l-30 8q-72 -172 -238 -307l-148 193q120 79 207 153q88 75 113 108l25 33q-99 157 -185 363q-87 208 -87 311zM440 620l-47 603q-37 30 -73 30q-64 -2 -64 -90q-1 -207 184 -543
z" />
    <glyph glyph-name="afii10065" unicode="&#x430;" 
d="M469 1434l221 -1395l-188 -39l-51 297l-236 -49l-37 -211l-178 -37l262 1389zM240 393l186 39l-78 541z" />
    <glyph glyph-name="afii10066" unicode="&#x431;" horiz-adv-x="675" 
d="M631 774l1 -1q0 -140 -121 -357q-123 -220 -268 -408v-4l-2 -4h-177v1360l502 70l-12 -222l-301 -43v-176q73 21 120 21q258 2 258 -236zM368 847q-77 0 -115 -29v-520q178 289 178 469q0 80 -63 80z" />
    <glyph glyph-name="afii10067" unicode="&#x432;" horiz-adv-x="602" 
d="M598 1167l-1 -2q0 -205 -227 -612q63 0 138 -36t75 -162q0 -84 -44 -154q-43 -69 -141 -123q-96 -53 -198 -67l-45 -6l-99 -5q-4 7 -6 356l-2 328q-1 291 14 635q46 46 127 80q84 35 153 35q256 -1 256 -267zM335 1249h1q-34 0 -74 -30l-20 -603q158 286 156 543
q0 90 -63 90zM379 331h2q0 47 -27 85q-27 37 -73 37q-17 0 -36 -6v-285q13 0 41 11q27 11 45 27t33 50q15 33 15 81z" />
    <glyph glyph-name="afii10068" unicode="&#x433;" horiz-adv-x="595" 
d="M565 1430l-12 -222l-301 -43v-1126l-189 -39v1360z" />
    <glyph glyph-name="afii10069" unicode="&#x434;" horiz-adv-x="925" 
d="M-56 -136v-2q0 11 -2 215q4 41 11 76q6 30 80 30h131q78 0 78 400q0 61 -27 816l582 35v-1272h86v-298h-181v136h-575v-136h-183zM434 414v1q0 -177 -20 -255h184v1067l-164 -15v-798z" />
    <glyph glyph-name="afii10070" unicode="&#x435;" horiz-adv-x="552" 
d="M516 1212l-1 2q-25 -1 -129 -11t-128 -11v-404l205 48v-150l-205 -25v-454q171 35 272 60l-14 -223q-236 -17 -479 -42q0 46 9 327q9 280 9 994l475 111z" />
    <glyph glyph-name="afii10072" unicode="&#x436;" horiz-adv-x="1179" 
d="M713 1427l-28 -694q70 167 131 360q63 198 69 305l268 33q-6 -117 -105 -339q-98 -220 -195 -385l-96 -162q6 -9 17 -31q11 -24 101 -123q89 -97 255 -210l-202 -180q-99 81 -168 229q-71 152 -71 153l4 -344l-184 -40l-4 396q-107 -265 -255 -393l-205 180
q131 88 225 180q99 96 123 137l27 47q-17 29 -39 62t-88 150q-67 118 -113 210q-51 103 -92 213q-41 112 -46 188l248 49q6 -128 75 -339q68 -209 143 -360l-21 676z" />
    <glyph glyph-name="afii10073" unicode="&#x437;" horiz-adv-x="677" 
d="M662 1077l1 -1q0 -188 -177 -384q185 -72 185 -288q0 -215 -101 -310q-100 -94 -252 -94t-319 66l95 237q89 -53 183 -53q97 0 145 37.5t47 111.5q0 46 -41 81t-81 35q-67 0 -136 -20l-25 -7q-34 194 -33 246q113 0 216 118q104 119 104 232q0 46 -24 83q-24 38 -57 38
q-56 0 -115 -89q-58 -88 -96 -185l-166 110q92 254 165 323q74 69 177 69q104 0 204 -106q101 -107 101 -250z" />
    <glyph glyph-name="afii10074" unicode="&#x438;" horiz-adv-x="694" 
d="M473 1368l177 68l-61 -1393l-170 -46l31 638q-130 -309 -173 -594l-202 -39q23 1318 21 1364l201 72l-61 -979z" />
    <glyph glyph-name="afii10075" unicode="&#x439;" horiz-adv-x="632" 
d="M649 1436l-60 -1393l-170 -46l31 638l-35 -86q-28 -68 -76 -232q-43 -149 -63 -276l-202 -39l22 1364l201 72l-61 -979l237 909zM290 1491l-23 -1q-56 -2 -84 24t-27 78q0 42 2 80l129 10v-61q0 -56 10 -72t48 -16q76 0 76 127v31l123 8v-53q0 -117 -85 -136
q-67 -15 -169 -19z" />
    <glyph glyph-name="afii10076" unicode="&#x43a;" horiz-adv-x="692" 
d="M242 94l-1 -48l-219 -45l51 1384l227 50l-49 -744q79 145 149 351q71 210 77 353l223 39q-6 -119 -88 -339t-159 -382l-78 -164q29 -86 142 -180q114 -95 198 -150l-166 -215q-185 150 -264 340l-37 -12q-2 -27 -6 -238z" />
    <glyph glyph-name="afii10077" unicode="&#x43b;" horiz-adv-x="989" 
d="M285 0q-173 0 -250 131l147 184q38 -90 82 -90q78 0 78 359q0 62 -27 816l592 35l-12 -1434h-197v1229l-163 -15v-798q0 -327 -96 -372t-154 -45z" />
    <glyph glyph-name="afii10078" unicode="&#x43c;" horiz-adv-x="788" 
d="M457 0h-118q-12 126 -47 290q-30 139 -63 255l-28 96l20 -604l-178 -37q21 368 33 1143l4 266l201 25l114 -830h4l117 793l201 37q12 -1019 37 -1397l-181 -35l23 639q-112 -346 -139 -641z" />
    <glyph glyph-name="afii10079" unicode="&#x43d;" horiz-adv-x="679" 
d="M627 1430l-39 -1389l-189 -39l11 457l-152 -21l-6 -399l-189 -39v1397l211 37l-14 -859l156 19v809z" />
    <glyph glyph-name="afii10080" unicode="&#x43e;" horiz-adv-x="665" 
d="M638 1036v-4q0 -31 1.5 -98t1.5 -129.5t-3 -122.5q-10 -202 -42 -342q-31 -138 -83 -210q-52 -71 -108 -98q-55 -26 -127 -23q-285 13 -252 721q24 512 159 607q137 96 254 93q45 -2 63 -10q20 -9 51 -51q32 -43 53 -114q32 -110 32 -219zM346 1195q-32 2 -56 -48
t-40 -153t-24 -258q-10 -192 12 -348q22 -155 63 -169q38 -2 81 157t51 323q8 167 -10 329q-18 164 -77 167z" />
    <glyph glyph-name="afii10081" unicode="&#x43f;" horiz-adv-x="688" 
d="M627 1430l-39 -1389l-178 -39v1184l-158 -21v-1126l-189 -39v1360z" />
    <glyph glyph-name="afii10082" unicode="&#x440;" horiz-adv-x="647" 
d="M643 1167v-2q0 -158 -120 -404q-121 -249 -265 -459q-6 -74 -6 -261l-197 -41l54 1319q46 46 126 80q82 35 152 35q256 -1 256 -267zM444 1159q0 90 -63 90q-33 0 -74 -30l-47 -603q184 334 184 543z" />
    <glyph glyph-name="afii10083" unicode="&#x441;" horiz-adv-x="655" 
d="M440 0l-4 -2q-50 0 -89 7q-41 7 -103 42q-60 34 -103 95q-41 59 -73 175q-31 114 -31 285q0 170 30 323q31 156 97 293q61 125 135 189l29 25l145 -172q-109 -118 -172 -285t-63 -339t42 -303t126 -131q46 0 78 41t39 81l8 41l156 -109q-19 -97 -86 -177
q-66 -79 -161 -79z" />
    <glyph glyph-name="afii10084" unicode="&#x442;" horiz-adv-x="514" 
d="M387 41l-194 -41v1174l-193 -23v205l549 78v-213l-162 -23v-1157z" />
    <glyph glyph-name="afii10085" unicode="&#x443;" horiz-adv-x="819" 
d="M215 170h1q70 0 117 102l94 334q-56 113 -192 334q-138 224 -194 346l248 100l221 -620q18 79 144 625q132 21 219 41q-16 -58 -97.5 -334.5t-133.5 -470.5q-14 -52 -37 -140.5t-33.5 -128t-25 -86t-26.5 -72.5q-50 -112 -115 -171q-67 -59 -222 -59q-95 0 -162 78
q-67 80 -86 177l155 109q0 -10 12 -48q12 -39 24 -59q12 -21 36 -39t53 -18z" />
    <glyph glyph-name="afii10086" unicode="&#x444;" horiz-adv-x="970" 
d="M383 1331l-4 95l211 13l-2 -125q67 39 176 35q18 0 35 -6t78 -88q62 -84 40 -546q-15 -330 -97 -459q-81 -127 -212 -121q-14 0 -39 4v-92l-188 -41v139q-49 -30 -121 -27q-244 13 -216 620q20 409 125 503q108 96 214 96zM315 1136l-1 1q-41 4 -66.5 -94t-35.5 -298
q-8 -163 12 -300t54 -147q27 0 56 86q28 86 45 201v428q-21 122 -64 123zM663 1153v-2q-52 0 -81 -164l-8 -538q18 -124 53 -135q33 0 69 137t42 279t-9 282t-66 141z" />
    <glyph glyph-name="afii10087" unicode="&#x445;" horiz-adv-x="821" 
d="M29 0l270 722q-133 349 -287 631l215 78l183 -578l172 555q109 7 217 24q-29 -76 -123 -330t-150 -390q60 -132 283 -669l-209 -43l-180 582l-182 -539z" />
    <glyph glyph-name="afii10088" unicode="&#x446;" horiz-adv-x="790" 
d="M63 0l-2 1386l220 41v-1183l157 20v1127l189 39v-1147l151 20v-408l-215 -23v187z" />
    <glyph glyph-name="afii10089" unicode="&#x447;" horiz-adv-x="772" 
d="M248 432v-1q-76 0 -123 57q-46 56 -58 122q-12 64 -12 159t9 309q10 235 11 304q55 15 99 26q32 8 101 26l33 8q-37 -321 -37 -618q0 -134 21 -177t87 -43q119 0 119 314v503h4l211 13l-23 -1393l-188 -41v530q-66 -98 -254 -98z" />
    <glyph glyph-name="afii10090" unicode="&#x448;" horiz-adv-x="1019" 
d="M84 0l-2 1386l199 41v-1237l137 27v1174l196 41v-1205l138 21v1147l209 39l-41 -1360z" />
    <glyph glyph-name="afii10091" unicode="&#x449;" horiz-adv-x="1036" 
d="M84 0l-2 1386l199 41v-1237l137 27v1174l196 41v-1205l138 21v1147l209 39l-35 -1147l112 16v-394l-211 -23v180z" />
    <glyph glyph-name="afii10092" unicode="&#x44a;" horiz-adv-x="745" 
d="M436 848q-77 0 -114 -29v-520q179 291 178 469q0 80 -64 80zM133 0l-1 1238l-129 -27l14 179l304 41v-443q73 21 120 21q258 1 258 -236q0 -139 -120 -357q-121 -220 -268 -408v-4l-2 -4h-176z" />
    <glyph glyph-name="afii10093" unicode="&#x44b;" horiz-adv-x="970" 
d="M631 774l1 -1q0 -140 -121 -357q-123 -220 -268 -408v-4l-2 -4h-177v1380l189 52v-443q73 21 120 21q258 2 258 -236zM368 847q-77 0 -115 -29v-520q178 289 178 469q0 80 -63 80zM931 1437l-23 -1397l-188 -40v1404z" />
    <glyph glyph-name="afii10094" unicode="&#x44c;" horiz-adv-x="675" 
d="M631 774l1 -1q0 -140 -121 -357q-123 -220 -268 -408v-4l-2 -4h-177v1380l189 52v-443q73 21 120 21q258 2 258 -236zM368 847q-77 0 -115 -29v-520q178 289 178 469q0 80 -63 80z" />
    <glyph glyph-name="afii10095" unicode="&#x44d;" horiz-adv-x="704" 
d="M29 227l144 124q14 -61 55 -108t89 -42q76 9 106 122q30 114 21 264l-350 4l21 164l305 -6q-67 308 -285 499l125 189q40 -20 105 -91q68 -74 113 -154q47 -83 93 -232q47 -152 65 -318q18 -168 0 -286q-18 -119 -54 -182t-93 -105t-99 -54q-34 -10 -87 -15
q-97 -11 -168 59q-73 71 -106 168z" />
    <glyph glyph-name="afii10096" unicode="&#x44e;" horiz-adv-x="1056" 
d="M986 1036l1 -6q11 -147 0 -350q-11 -202 -42 -342q-31 -138 -83 -210q-52 -71 -108 -98q-57 -27 -109 -24q-53 3 -80 12q-28 9 -113 87t-81 514l-111 -17l-8 -563l-189 -40v1404l211 33l-10 -613l119 19q36 384 154 488q118 105 244 100q51 -2 69 -10q20 -9 51 -51
q32 -43 53 -114q22 -74 32 -219zM695 1193l-3 -1q-28 2 -48 -30.5t-34 -100.5q-27 -135 -36 -327q-9 -195 13 -348q22 -155 63 -169q38 -2 81 157t51 323q8 167 -10 329q-18 165 -77 167z" />
    <glyph glyph-name="afii10097" unicode="&#x44f;" horiz-adv-x="661" 
d="M59 1167l-2 2q0 266 256 267q69 0 153 -35q81 -34 127 -80l12 -1278l-196 -41q0 234 -7 303l-30 8q-72 -172 -238 -307l-148 193q120 79 207 153q88 75 113 108l25 33q-99 157 -185 363q-87 208 -87 311zM440 620l-47 603q-37 30 -73 30q-64 -2 -64 -90q-1 -207 184 -543
z" />
    <glyph glyph-name="afii10071" unicode="&#x451;" horiz-adv-x="552" 
d="M516 1212l-1 2q-25 -1 -129 -11t-128 -11v-404l205 48v-150l-205 -25v-454q171 35 272 60l-14 -223q-236 -17 -479 -42q0 46 9 327q9 280 9 994l475 111zM163 1657l-1 -1q37 0 55 -18q20 -20 20 -43q1 -49 -24 -76.5t-73 -27.5h-10q-78 0 -78 57v15q0 83 103 94h8z
M424 1676q70 0 72 -63q3 -94 -97 -103h-14q-72 0 -72 58v14q0 83 103 94h8z" />
    <glyph glyph-name="afii10099" unicode="&#x452;" horiz-adv-x="874" 
d="M492 840l1 -3q-119 0 -119 -314v-483l-197 -40v1211l-139 -18v186l549 76v-184l-217 -31v-330q66 97 254 99q76 0 123 -57q46 -56 58 -122q12 -64 12 -138v-352q0 -180 -90 -270q-72 -72 -270 -77v181l61 2q54 2 68 43q16 48 15 165l-2 236q-2 137 -21 177q-21 43 -86 43
z" />
    <glyph glyph-name="afii10100" unicode="&#x453;" horiz-adv-x="595" 
d="M565 1430l-12 -222l-301 -43v-1126l-189 -39v1360zM309 1767h170l-117 -223l-147 -33z" />
    <glyph glyph-name="afii10101" unicode="&#x454;" horiz-adv-x="665" 
d="M440 0h-5q-44 0 -89 8q-41 7 -103 42q-60 34 -103 95q-41 59 -73 175q-31 114 -31 285q0 170 30 323q31 156 97 293q61 125 135 189l29 25l145 -172q-194 -211 -229 -529l338 70v-164l-344 -70q6 -151 49 -259q43 -109 120 -109q46 0 78 41t39 81l8 41l156 -109
q-19 -97 -86 -177q-66 -79 -161 -79z" />
    <glyph glyph-name="afii10102" unicode="&#x455;" horiz-adv-x="559" 
d="M37 207l1 2q250 150 250 284q0 47 -37 111t-81 117t-81 130t-37 162q0 84 44 161q44 76 144 150q78 57 198 99l43 15l76 -179q-190 -63 -247 -138t-57 -109q0 -33 11 -63q10 -27 24 -49t43 -61q46 -63 53 -73q107 -168 107 -297q0 -127 -96 -241q-97 -115 -303 -251
q-7 26 -55 230z" />
    <glyph glyph-name="afii10103" unicode="&#x456;" horiz-adv-x="333" 
d="M274 1110l-22 -1069l-189 -41v1098zM199 1456l-2 -1q72 0 102 -35t29 -86q-2 -52 -42 -101q-41 -50 -123 -50q-83 0 -120 30t-37 77q0 166 193 166z" />
    <glyph glyph-name="afii10104" unicode="&#x457;" horiz-adv-x="333" 
d="M274 1110l-22 -1069l-189 -41v1098zM53 1405l-1 -1q40 0 59 -22q21 -24 21 -51q1 -115 -104 -126h-11q-37 0 -60 21q-24 22 -24 50v16q0 101 110 113h10zM337 1429h1q39 0 57 -24q20 -27 20 -52q1 -112 -105 -123h-16q-70 0 -78 69v17q0 101 111 113h10z" />
    <glyph glyph-name="afii10105" unicode="&#x458;" horiz-adv-x="616" 
d="M285 0q-297 0 -304 375l148 153q51 -303 135 -303q44 0 59 114t15 395q0 227 -2 441l-213 -23v205l569 78v-213l-157 -23v-782q0 -327 -96 -372t-154 -45z" />
    <glyph glyph-name="afii10106" unicode="&#x459;" horiz-adv-x="1312" 
d="M285 0h1q-215 0 -281 202l164 155q43 -133 96 -133q78 0 78 359q0 61 -27 816l572 35v-445q73 21 120 21q258 2 258 -236q0 -140 -121 -357q-123 -220 -268 -408v-4l-3 -4h-176v1229l-163 -15v-798q0 -327 -96 -372t-154 -45zM1002 847q-77 0 -114 -29v-520
q179 291 178 469q0 80 -64 80z" />
    <glyph glyph-name="afii10107" unicode="&#x45a;" horiz-adv-x="995" 
d="M416 0l-1 3l-17 -2l11 846l-152 -21l-6 -788l-189 -38v1396l211 37l-14 -469l156 18v420l211 27l-13 -437q61 18 108 18q258 2 258 -236q0 -245 -391 -774h-172zM713 847h-1q-62 0 -106 -23l-8 -346v-180q178 289 178 469q0 80 -63 80z" />
    <glyph glyph-name="afii10108" unicode="&#x45b;" horiz-adv-x="874" 
d="M815 694l-2 -2q0 -446 -8 -659l-207 -34v620q0 133 -21 177q-21 43 -86 43q-119 0 -119 -314v-483l-197 -41v1212l-139 -18v186l549 76v-184l-217 -31v-330q66 97 254 99q76 0 123 -57q46 -56 58 -122q12 -64 12 -138z" />
    <glyph glyph-name="afii10109" unicode="&#x45c;" horiz-adv-x="692" 
d="M242 94l-1 -48l-219 -45l51 1384l227 50l-49 -744q79 145 149 351q71 210 77 353l223 39q-6 -119 -88 -339t-159 -382l-78 -164q29 -86 142 -180q114 -95 198 -150l-166 -215q-185 150 -264 340l-37 -12q-2 -27 -6 -238zM392 1750h170l-117 -223l-147 -33z" />
    <glyph glyph-name="afii10110" unicode="&#x45e;" horiz-adv-x="819" 
d="M215 170h1q70 0 117 102l94 334q-56 113 -192 334q-138 224 -194 346l248 100l221 -620q18 79 144 625q132 21 219 41q-16 -58 -97.5 -334.5t-133.5 -470.5q-14 -52 -37 -140.5t-33.5 -128t-25 -86t-26.5 -72.5q-50 -112 -115 -171q-67 -59 -222 -59q-95 0 -162 78
q-67 80 -86 177l155 109q0 -10 12 -48q12 -39 24 -59q12 -21 36 -39t53 -18zM407 1450l-23 1q-113 5 -113 102q0 42 2 80l129 10v-61q0 -55 11 -72q10 -16 48 -16q76 0 76 127v31l122 8v-53q0 -119 -84 -138q-93 -22 -168 -19z" />
    <glyph glyph-name="afii10193" unicode="&#x45f;" horiz-adv-x="790" 
d="M63 0l-2 1386l220 41v-1183l157 20v1127l189 39l6 -1371l-162 -16l29 -179l-209 -21l-23 177z" />
    <glyph glyph-name="afii10050" unicode="&#x490;" horiz-adv-x="595" 
d="M63 0v1360l308 43v137l196 35l-14 -367l-301 -43v-1126z" />
    <glyph glyph-name="afii10098" unicode="&#x491;" horiz-adv-x="595" 
d="M63 0v1360l308 43v137l196 35l-14 -367l-301 -43v-1126z" />
    <glyph glyph-name="afii57668" unicode="&#x5d4;" horiz-adv-x="1161" 
d="M1151 1202l2 -2q-31 -2 -123 -6q-93 -5 -136 -6l-16 -404l206 39l-6 -149l-205 -17l-16 -454q233 43 273 51l-24 -221q-210 -8 -479 -24q0 10 20 308q19 293 47 1014l480 92zM629 1428l-39 -1389l-189 -39l11 457l-152 -21l-6 -399l-189 -38v1396l211 37l-14 -859l156 19
v809z" />
    <glyph glyph-name="afii57684" unicode="&#x5e4;" horiz-adv-x="1075" 
d="M709 1137l-1 2q0 111 -43 204l397 93l-14 -222q-24 -1 -130 -11q-107 -10 -127 -11v-404l204 48v-150l-204 -25v-454q171 35 272 60l-14 -223q-237 -16 -480 -42q0 1 1 28.5t3 93.5t4 139q8 255 9 556q123 113 123 318zM642 1169v-2q0 -158 -120 -404
q-121 -249 -265 -459q-6 -74 -6 -261l-197 -41l54 1319q46 46 126 80q82 35 152 35q256 -1 256 -267zM443 1161q0 90 -63 90q-34 0 -74 -30l-47 -603q184 334 184 543z" />
    <glyph glyph-name="Wgrave" unicode="&#x1e80;" horiz-adv-x="1099" 
d="M766 457l145 942l179 35l-228 -1393l-200 -41l-136 954l-149 -919l-160 -33l-192 1374l174 56l123 -975l147 921l172 54zM365 1767h170l71 -235l-135 -27z" />
    <glyph glyph-name="wgrave" unicode="&#x1e81;" horiz-adv-x="1099" 
d="M766 457l145 942l179 35l-228 -1393l-200 -41l-136 954l-149 -919l-160 -33l-192 1374l174 56l123 -975l147 921l172 54zM365 1767h170l71 -235l-135 -27z" />
    <glyph glyph-name="Wacute" unicode="&#x1e82;" horiz-adv-x="1099" 
d="M766 457l145 942l179 35l-228 -1393l-200 -41l-136 954l-149 -919l-160 -33l-192 1374l174 56l123 -975l147 921l172 54zM571 1737h170l-116 -224l-148 -32z" />
    <glyph glyph-name="wacute" unicode="&#x1e83;" horiz-adv-x="1099" 
d="M766 457l145 942l179 35l-228 -1393l-200 -41l-136 954l-149 -919l-160 -33l-192 1374l174 56l123 -975l147 921l172 54zM571 1737h170l-116 -224l-148 -32z" />
    <glyph glyph-name="Wdieresis" unicode="&#x1e84;" horiz-adv-x="1099" 
d="M451 1647l1 -2q38 0 54 -18q18 -20 18 -43q1 -49 -24 -76.5t-72 -27.5h-10q-78 0 -78 57v14q0 85 102 96h9zM714 1665q70 0 71 -63q1 -94 -96 -103h-14q-72 0 -72 58v14q0 83 103 94h8zM767 455l145 942l179 35l-228 -1393l-200 -40l-136 953l-149 -919l-160 -33
l-192 1374l174 56l123 -975l147 921l172 54z" />
    <glyph glyph-name="wdieresis" unicode="&#x1e85;" horiz-adv-x="1099" 
d="M451 1647l1 -2q38 0 54 -18q18 -20 18 -43q1 -49 -24 -76.5t-72 -27.5h-10q-78 0 -78 57v14q0 85 102 96h9zM714 1665q70 0 71 -63q1 -94 -96 -103h-14q-72 0 -72 58v14q0 83 103 94h8zM767 455l145 942l179 35l-228 -1393l-200 -40l-136 953l-149 -919l-160 -33
l-192 1374l174 56l123 -975l147 921l172 54z" />
    <glyph glyph-name="Ygrave" unicode="&#x1ef2;" horiz-adv-x="688" 
d="M-83 1286l244 101l221 -620q18 79 144 625q129 21 220 41q-23 -82 -49 -173t-57.5 -201t-48.5 -170q-77 -269 -144 -504q-77 -268 -100 -346l-213 -37l168 604q-56 113 -192 334q-134 217 -193 346zM187 1668h170l72 -235l-135 -27z" />
    <glyph glyph-name="ygrave" unicode="&#x1ef3;" horiz-adv-x="688" 
d="M-83 1286l244 101l221 -620q18 79 144 625q129 21 220 41q-23 -82 -49 -173t-57.5 -201t-48.5 -170q-77 -269 -144 -504q-77 -268 -100 -346l-213 -37l168 604q-56 113 -192 334q-134 217 -193 346zM187 1668h170l72 -235l-135 -27z" />
    <glyph glyph-name="figuredash" unicode="&#x2012;" horiz-adv-x="720" 
d="M676 641l-639 -25v136l639 24v-135z" />
    <glyph glyph-name="endash" unicode="&#x2013;" horiz-adv-x="724" 
d="M651 641l-577 -25v136l577 24v-135z" />
    <glyph glyph-name="emdash" unicode="&#x2014;" horiz-adv-x="907" 
d="M856 641l-782 -25v136l782 24v-135z" />
    <glyph glyph-name="quoteleft" unicode="&#x2018;" horiz-adv-x="325" 
d="M188 1309l-1 1q29 0 54 -30q26 -31 26 -73q0 -43 -27 -76t-76 -33q-123 0 -123 125q0 90 63 177t141 87v-90q-61 -7 -93 -92q7 4 36 4z" />
    <glyph glyph-name="quoteright" unicode="&#x2019;" horiz-adv-x="301" 
d="M116 1276l2 -1q-28 0 -55 30t-27 73t27 76t77 33q123 0 123 -125q0 -90 -63 -177t-141 -87v90q61 7 93 92q-7 -4 -36 -4z" />
    <glyph glyph-name="quotesinglbase" unicode="&#x201a;" horiz-adv-x="319" 
d="M124 -1v-1q-29 0 -55 29q-27 30 -27 73t27 76t77 33q123 0 123 -125q0 -89 -63 -176t-139 -87v90q61 7 93 91q-8 -3 -36 -3z" />
    <glyph glyph-name="quotedblleft" unicode="&#x201c;" horiz-adv-x="593" 
d="M474 1309l-2 1q28 0 55 -30t27 -73t-27 -76t-76 -33q-123 0 -123 125q0 90 63 177t140 87v-90q-61 -7 -93 -92q7 4 36 4zM186 1310l-1 1q29 0 54 -30q26 -31 26 -73q0 -43 -27 -76t-76 -33q-123 0 -123 125q0 90 63 177t141 87v-90q-61 -7 -93 -92q7 4 36 4z" />
    <glyph glyph-name="quotedblright" unicode="&#x201d;" horiz-adv-x="593" 
d="M122 1276v-1q-28 0 -55 30t-27 73t27 76t77 33q123 0 123 -125q0 -90 -63 -177t-139 -87v90q61 7 93 92q-7 -4 -36 -4zM408 1275v-1q-28 0 -54 30q-26 31 -26 73q0 43 27 76t77 33q123 0 123 -125q0 -90 -63 -177t-141 -87v90q61 7 93 92q-7 -4 -36 -4z" />
    <glyph glyph-name="quotedblbase" unicode="&#x201e;" horiz-adv-x="589" 
d="M124 -1v-1q-29 0 -55 29q-27 30 -27 73t27 76t77 33q123 0 123 -125q0 -89 -63 -176t-139 -87v90q61 7 93 91q-8 -3 -36 -3zM410 -2v-1q-29 0 -54 29q-26 31 -26 73q0 43 27 76t77 33q123 0 123 -125q0 -89 -63 -176t-141 -87v90q61 7 93 91q-8 -3 -36 -3z" />
    <glyph glyph-name="dagger" unicode="&#x2020;" horiz-adv-x="561" 
d="M518 1071l-135 -6l-14 -1289l-191 -41v1318l-135 -6v135l135 6v422l213 12l-6 -422l133 6v-135z" />
    <glyph glyph-name="daggerdbl" unicode="&#x2021;" horiz-adv-x="561" 
d="M375 309h153v-205h-159v-328l-191 -41v363h-178v203l178 2v750l-135 -6v135l135 6v422l207 12v-422l133 6v-135l-143 -6v-756z" />
    <glyph glyph-name="bullet" unicode="&#x2022;" horiz-adv-x="567" 
d="M299 860h-2q77 0 115 -39t42 -90q0 -83 -46 -148q-47 -66 -160 -78h-21q-76 0 -118 36q-46 39 -46 89v26q0 178 216 204h20z" />
    <glyph glyph-name="onedotenleader" unicode="&#x2024;" horiz-adv-x="321" 
d="M154 207q43 0 64 -22q21 -23 21 -54q0 -119 -113 -131h-12q-43 0 -67 21t-27 53v16q0 105 121 117h13z" />
    <glyph glyph-name="twodotenleader" unicode="&#x2025;" horiz-adv-x="643" 
d="M154 207q43 0 64 -22q21 -23 21 -54q0 -119 -113 -131h-12q-43 0 -67 21t-27 53v16q0 105 121 117h13zM475 207h-1q43 0 64 -22q21 -23 21 -54q0 -119 -113 -131h-12q-43 0 -67 21q-25 22 -25 53v16q0 105 121 117h12z" />
    <glyph glyph-name="ellipsis" unicode="&#x2026;" horiz-adv-x="964" 
d="M154 207q43 0 64 -22q21 -23 21 -54q0 -119 -113 -131h-12q-43 0 -67 21t-27 53v16q0 105 121 117h13zM475 207h-1q43 0 64 -22q21 -23 21 -54q0 -119 -113 -131h-12q-43 0 -67 21q-25 22 -25 53v16q0 105 121 117h12zM796 207h-1q43 0 64 -22q21 -23 21 -54
q0 -119 -113 -131h-12q-43 0 -67 21q-25 22 -25 53v16q0 105 120 117h13z" />
    <glyph glyph-name="perthousand" unicode="&#x2030;" horiz-adv-x="1728" 
d="M815 1427l223 27l-589 -1454h-199zM448 776l-1 -2q-66 -75 -177 -72q-205 7 -180 366q16 237 105 300q87 62 206 57q35 -2 60 -25q26 -25 52 -87q26 -63 14 -261q-12 -200 -79 -276zM317 1309l1 -1q-19 2 -33 -14t-24 -51q-20 -71 -26 -167q-6 -97 9 -178t44 -87
q27 0 57 81t36 164q6 85 -7 167q-14 85 -57 86zM1093 72l1 -1q-65 -73 -176 -71q-205 7 -181 367q17 237 104 299q88 62 185 59q38 -1 51 -6q14 -5 63 -52q49 -48 33 -322q-12 -197 -80 -273zM965 605l1 -1q-19 2 -33 -14t-24 -51q-20 -71 -26 -167q-6 -97 9 -178t44 -87
q27 0 57 81t36 164q6 85 -7 167q-14 85 -57 86zM1586 69l2 -1q-66 -73 -177 -70q-205 6 -180 366q16 238 104 300q86 61 183 58q38 -2 51 -6q14 -5 63 -52q50 -48 33 -321q-12 -200 -79 -274zM1458 602l1 -1q-19 2 -33 -14t-25 -51q-21 -69 -27 -167q-6 -97 9 -178t44 -87
q27 0 58 81q31 79 37 164t-7 167q-14 85 -57 86z" />
    <glyph glyph-name="guilsinglleft" unicode="&#x2039;" horiz-adv-x="651" 
d="M272 606q104 -40 324 -180v-186q-112 63 -531 288l2 150l526 297v-205q-194 -98 -321 -164z" />
    <glyph glyph-name="guilsinglright" unicode="&#x203a;" horiz-adv-x="651" 
d="M594 678l3 -150q-419 -225 -531 -288v186q14 9 63 39t80 49q104 64 180 92q-127 66 -321 164v205z" />
    <glyph glyph-name="exclamdbl" unicode="&#x203c;" horiz-adv-x="858" 
d="M111 233l20 1174l252 25l-80 -1199h-192zM170 -140l2 -2q-72 0 -102 35q-30 34 -28 86q2 50 42 101t123 51t119 -30t36 -76q2 -165 -192 -165zM502 231l20 1174l252 25l-80 -1199h-192zM561 -142l1 -2q-72 0 -102 35q-30 34 -28 86q2 50 42 101t123 51t120 -30t37 -76
q0 -165 -193 -165z" />
    <glyph glyph-name="fraction" unicode="&#x2044;" horiz-adv-x="958" 
d="M649 1427l223 27l-589 -1454h-199z" />
    <glyph glyph-name="franc" unicode="&#x20a3;" 
d="M565 260l-156 -8l6 -203l-240 -49q0 106 2 240l-141 -7v146l143 6q1 235 18 963l471 75l-21 -219l-252 -30v-388l205 48v-150l-203 -25l6 -262l162 9v-146z" />
    <glyph glyph-name="lira" unicode="&#x20a4;" horiz-adv-x="890" 
d="M548 1325l1 1q159 0 245 -63l-103 -123q-47 27 -117 27t-108 -45t-51 -157l213 24v-149l-221 -35v-100l227 40v-165l-223 -43q5 -277 9 -314q150 -57 182 -57t51 15t27 30q9 19 20 48q12 32 18 43l178 -22q-26 -146 -108 -210t-178 -64q-95 0 -195 38t-135 38
q-88 0 -114 -87l-173 44q23 69 91 138q66 67 147 81q-12 241 -12 248l-180 -31v166l174 31v104l-182 -26l2 170l186 20q18 197 94 291t235 94z" />
    <glyph glyph-name="Euro" unicode="&#x20ac;" horiz-adv-x="655" 
d="M440 0q-353 0 -397 473l-126 -6v135l122 6q0 70 6 132l-128 -6v135l142 9q36 231 119 369q79 131 129 171l21 17l145 -172q-143 -156 -201 -375l99 6v-135l-125 -8q-8 -59 -8 -127v-5l133 9v-135l-125 -7q19 -143 59 -214t101 -70q46 0 78 41t39 81l8 41l156 -109
q-19 -97 -86 -177q-66 -79 -161 -79z" />
    <glyph glyph-name="trademark" unicode="&#x2122;" horiz-adv-x="774" 
d="M254 735l-98 -20v588l-97 -11v103l275 39v-107l-80 -12v-580zM547 715h-60q-12 131 -55 274l-14 47l10 -303l-90 -18q10 154 16 573l2 133l103 13l57 -416h2l57 397l101 19q6 -506 18 -701l-90 -16l12 319q-57 -174 -69 -321z" />
    <glyph glyph-name="uni2126" unicode="&#x2126;" horiz-adv-x="978" 
d="M68 838l-1 1q0 115 20 252q19 133 119 246q99 112 294 112q416 0 416 -526q0 -144 -31 -309q-34 -180 -60 -264l-30 -96l149 33l19 -221q-365 -66 -396 -66q0 16 4 25q147 547 147 862q1 385 -211 385q-236 0 -236 -451q0 -143 26 -330q25 -177 50 -291l25 -109
l-353 -103q-8 50 -13 75l-26 139l181 26q8 0 8 -2q-2 -7 -26 85q-25 97 -50 250q-25 156 -25 277z" />
    <glyph glyph-name="onethird" unicode="&#x2153;" horiz-adv-x="964" 
d="M170 1421l78 11v-707l-111 -27v592l-117 -45v131zM496 1407l223 27l-344 -1434h-199zM763 745l-1 -1q47 0 99 -55t52 -141q0 -85 -92 -189q97 -39 97 -149q1 -210 -191 -210q-77 0 -160 34l49 123q47 -29 105 -29q90 0 90 78q0 28 -21 44q-22 17 -49 17l-77 -14
q-16 101 -18 129q59 0 113 62t54 120q0 23 -13 42q-14 20 -30 20q-51 -2 -108 -142l-87 58q57 161 99 182t89 21z" />
    <glyph glyph-name="uni2206" unicode="&#x2206;" 
d="M680 66l-680 -66l262 1389l207 45zM348 973l-141 -778l260 24z" />
    <glyph glyph-name="product" unicode="&#x220f;" horiz-adv-x="688" 
d="M627 1430l-39 -1389l-178 -39v1184l-158 -21v-1126l-189 -39v1360z" />
    <glyph glyph-name="summation" unicode="&#x2211;" horiz-adv-x="724" 
d="M45 1325v1q592 103 592 105l-27 -197l-293 -39l105 -408l117 39l-9 -163l-102 -25l-127 -440l365 63v-209l-633 -39l225 676q-202 635 -213 636z" />
    <glyph glyph-name="minus" unicode="&#x2212;" horiz-adv-x="626" 
d="M528 641l-454 -25v136l454 24v-135z" />
    <glyph glyph-name="uni2215" unicode="&#x2215;" horiz-adv-x="958" 
d="M649 1427l223 27l-589 -1454h-199z" />
    <glyph glyph-name="uniF6BF" unicode="&#xf6bf;" horiz-adv-x="827" 
d="M457 1393l217 41l-31 -1233l246 65l-51 -231l-330 -31l72 322l-127 -35zM88 1393l217 41l-31 -1233l246 65l-51 -231l-385 -35z" />
    <glyph glyph-name="uniF6C0" unicode="&#xf6c0;" horiz-adv-x="864" 
d="M457 1393l217 41l-31 -1233l246 65l-51 -231l-330 -31l72 322l-127 -35zM88 1393l217 41l-31 -1233l246 65l-51 -231l-385 -35z" />
    <glyph glyph-name="uniF6C3" unicode="&#xf6c3;" horiz-adv-x="360" 
d="M150 -214h2q-28 0 -54 24t-26 62t27 65t76 27q123 0 123 -104q0 -78 -63 -151t-141 -73v76q59 5 92 78q-7 -4 -36 -4z" />
    <glyph glyph-name="uniFB06" unicode="&#xfb06;" horiz-adv-x="1036" 
d="M909 41l-194 -41v1174l-172 -21l145 94l-61 123l444 64v-213l-162 -23v-1157zM61 207l2 2q250 150 250 284q0 47 -36 111q-35 63 -80 117q-44 53 -81 130t-37 162q0 84 44 161q43 76 144 150q78 57 198 99l43 15l76 -179q-190 -63 -247 -138t-57 -109q0 -33 11 -63
q10 -27 24 -49t43 -61q46 -63 53 -73q106 -166 106 -297q0 -127 -96 -241q-97 -115 -303 -251q-10 34 -57 230z" />
    <glyph glyph-name="glyph1" horiz-adv-x="0" 
 />
    <glyph glyph-name="glyph2" horiz-adv-x="681" 
 />
    <glyph glyph-name="glyph538" horiz-adv-x="1433" 
d="M858 1413l-3 7q396 0 456 -214t60 -522q0 -62 -8 -132q-7 -65 -45 -169q-37 -103 -102 -178t-190 -132q-126 -57 -325 -57q-198 0 -338 35q-138 35 -189 81q-50 46 -94 135q-43 87 -43 312q0 223 18 351q18 127 65 215q47 89 106 140q60 53 160 81q103 29 206 38
q105 9 266 9z" />
    <glyph glyph-name="glyph539" horiz-adv-x="1193" 
d="M1151 1212l-2 1q-25 -1 -129 -11t-128 -11v-404l205 48v-150l-205 -25v-454q171 35 272 60l-14 -223q-126 -8 -350 -29l-76 551q2 85 -16 329q-18 249 -18 429l475 111zM514 1435l221 -1395l-188 -39l-51 297l-236 -49l-37 -211l-178 -37l262 1389zM285 394l186 39
l-78 541z" />
    <glyph glyph-name="glyph540" horiz-adv-x="1161" 
d="M750 616l-1 1q0 541 -86 708l434 111l-15 -222q-25 -1 -129 -11t-128 -11v-404l205 48v-150l-205 -25v-454q168 35 273 60l-15 -223q-165 -14 -481 -37q8 17 29 77q3 8 27.5 76.5t43.5 121.5q48 135 48 334zM661 1017h-3q12 -151 2 -350q-10 -202 -42 -343
q-31 -139 -83 -211q-51 -71 -107 -98q-55 -25 -128 -22q-285 12 -252 720q24 510 159 605q137 96 255 93q44 -1 63 -9q19 -7 51 -50q31 -41 52 -115t33 -220zM366 1181l-3 -2q-28 2 -49 -31t-34 -100q-27 -135 -36 -327q-9 -189 14 -348q22 -156 63 -168q38 -2 81 157
t51 323q8 167 -10 329q-18 165 -77 167z" />
    <glyph glyph-name="R_A.dlig" horiz-adv-x="1259" 
d="M1042 1434l222 -1395l-189 -39l-51 297l-236 -49l-36 -211l-179 -37v2l166 203l-112 78l209 1106zM813 393l186 39l-77 541zM387 1434v-1q256 0 256 -267q0 -103 -67 -271q-58 -145 -138 -286l-67 -118q6 -15 16 -37q12 -26 90 -102q79 -77 199 -156l-150 -193
q-167 135 -237 307l-31 -8q-6 -74 -6 -261l-197 -41l54 1319q46 46 126 80q82 35 152 35zM444 1160q0 90 -63 90q-33 0 -74 -30l-47 -603q184 334 184 543z" />
    <glyph glyph-name="R_E.dlig" horiz-adv-x="1167" 
d="M1130 1212l-3 1q-25 -1 -129 -11t-128 -11v-404l205 48v-150l-205 -25v-454q168 34 273 60l-15 -223q-208 -19 -414 -37l121 150l-177 135q10 477 12 1032l475 111zM384 1435h-2q256 0 256 -267q0 -103 -67 -271q-58 -145 -138 -286l-67 -118q38 -55 153 -159t237 -183
l-150 -192q-105 85 -202 192q-95 104 -118 160l-31 -8q-6 -73 -6 -261l-197 -41l54 1319q46 46 126 80q82 35 152 35zM439 1162q0 90 -63 90q-34 0 -74 -30l-47 -603q184 334 184 543z" />
    <glyph glyph-name="R_I.dlig" horiz-adv-x="1005" 
d="M889 39l-189 -33v17l127 145l-116 92l37 842l210 4zM897 1454h-1q72 -2 101 -38q29 -37 26 -87q-3 -51 -46 -100t-127 -45q-78 4 -116 32t-36 80q9 168 199 158zM386 1434l-1 -1q256 0 256 -267q0 -103 -67 -271q-58 -145 -138 -286l-67 -118q4 -5 41 -46
q29 -32 129 -116q104 -87 223 -165l-150 -192q-110 88 -207 188q-95 98 -117 150l-31 -8q-6 -74 -6 -261l-197 -41l54 1319q46 46 126 80q82 35 152 35zM442 1160q0 90 -63 90q-33 0 -74 -30l-47 -603q184 334 184 543z" />
    <glyph glyph-name="R_O.dlig" horiz-adv-x="1284" 
d="M1252 1036l-4 -1q11 -147 0 -350q-10 -203 -42 -342q-31 -138 -83 -210q-51 -71 -107 -98q-55 -27 -123 -25q-67 2 -117 39l86 143l-217 172q-19 154 -9 354t42 333t72 207t99 114q59 41 110 50q53 9 95 8q45 -2 63 -10q19 -9 51 -51q31 -41 52 -114q22 -74 32 -219z
M957 1198l-1 -1q-28 2 -49 -31t-34 -100q-27 -135 -36 -327q-9 -189 14 -348q22 -155 63 -169q38 -2 80 157q43 161 50 323q8 167 -10 329q-18 165 -77 167zM382 1431q256 0 256 -267q0 -103 -67 -271q-58 -145 -138 -286l-67 -118q128 -126 401 -309l-149 -191
q-60 48 -150 122q-50 41 -110 101t-74 95l-31 -8q-6 -73 -6 -261l-197 -40l54 1318q46 46 126 80q82 35 152 35zM439 1158q0 90 -63 90q-34 0 -74 -30l-47 -603q184 334 184 543z" />
    <glyph glyph-name="R_U.dlig" horiz-adv-x="1230" 
d="M805 0l2 1q-68 0 -113 45l129 168l-209 164v8q0 221 11 543q72 107 71 268q0 86 -22 162l190 74q-35 -511 -35 -820q0 -317 21 -381t87 -64q119 0 119 471v731q101 40 176 60q0 -700 -2 -778t-2 -111q0 -53 -6 -123t-30 -157q-24 -88 -67 -138q-44 -51 -124 -87
q-81 -36 -196 -36zM389 1435l1 -1q256 0 256 -267q0 -103 -67 -271q-58 -145 -138 -286l-67 -118q117 -114 390 -295l-150 -193q-231 188 -272 236q-40 47 -51 71l-31 -8q-6 -73 -6 -261l-197 -41l54 1319q46 46 126 80q82 35 152 35zM447 1161q0 90 -63 90q-34 0 -74 -30
l-47 -603q184 334 184 543z" />
    <glyph glyph-name="R_Y.dlig" horiz-adv-x="1239" 
d="M711 1164q0 114 -58 196l64 26l221 -620q18 79 144 625q132 21 219 41q-101 -358 -220 -767q-139 -480 -180 -626l-88 -16l68 133l-125 90l100 360q-58 115 -211 363q66 81 66 195zM387 1434v-2q256 0 256 -267q0 -103 -67 -271q-58 -145 -138 -286l-67 -118
q192 -183 463 -363l-150 -191q-362 294 -395 374l-31 -8q-6 -74 -6 -261l-197 -41l54 1319q46 46 126 80q82 35 152 35zM444 1159q0 90 -63 90q-33 0 -74 -30l-47 -603q184 334 184 543z" />
    <glyph glyph-name="R_R.dlig" horiz-adv-x="1112" 
d="M649 1130q0 142 -41 224q113 80 236 80q256 0 256 -267q0 -101 -69 -271q-70 -171 -136 -286l-68 -118q2 -4 17 -37q12 -25 90 -102q79 -77 199 -156l-150 -193q-166 135 -238 307l-30 -8q-6 -73 -6 -261l-191 -41l158 209l-152 106l19 463q106 103 106 351zM901 1161
q0 90 -63 90q-34 0 -74 -30l-47 -603q184 334 184 543zM352 1434l-1 -1q256 0 256 -267q0 -102 -69 -271q-66 -161 -136 -286l-67 -118q2 -4 17 -37q12 -26 90 -102q79 -77 199 -156l-149 -193q-166 135 -238 307l-31 -8q-6 -74 -6 -261l-197 -41l54 1319q46 46 127 80
q84 35 151 35zM345 1250h-1q-35 0 -74 -30l-47 -603q185 335 186 543q0 90 -64 90z" />
    <glyph glyph-name="glyph548" horiz-adv-x="1146" 
d="M733 94v-48l-139 -29l68 68l63 184l-197 154l37 962l228 50l-50 -744q79 145 149 351q71 210 77 353l223 39q-6 -119 -88 -339q-78 -210 -160 -382l-78 -164q29 -86 142 -180q114 -95 198 -150l-166 -215q-185 150 -264 340l-37 -12q-6 -83 -6 -238zM440 1l-4 -2
q-50 0 -89 7q-41 7 -103 42q-60 34 -103 95q-41 59 -73 175q-31 114 -31 285q0 170 30 323q31 156 97 293q61 125 135 189l29 25l145 -172q-109 -118 -172 -285q-63 -166 -63 -339t42 -303q42 -131 126 -131q46 0 78 41q32 40 39 81l8 41l156 -109q-19 -97 -86 -177
q-66 -79 -161 -79z" />
    <glyph glyph-name="A_A.dlig" horiz-adv-x="1210" 
d="M1001 1434l222 -1395l-189 -39l-51 297l-235 -49l-15 -78l-88 430l150 789zM772 393l186 39l-77 541zM469 1434l221 -1395l-188 -39l-51 297l-236 -49l-37 -211l-178 -37l262 1389zM240 393l186 39l-78 541z" />
    <glyph glyph-name="A_I.dlig" horiz-adv-x="956" 
d="M864 41l-96 -16l-74 430l33 649l211 4zM879 1456h-1q73 -2 101 -39t24 -88q-5 -51 -48 -99q-44 -48 -127 -44t-118 36q-32 29 -30 78q7 166 199 156zM468 1434l221 -1395l-188 -39l-51 297l-236 -49l-37 -211l-177 -37l261 1389zM239 393l186 39l-78 541z" />
    <glyph glyph-name="A_O.dlig" horiz-adv-x="1196" 
d="M1191 1036v-4q0 -31 1.5 -98t1.5 -129.5t-3 -122.5q-11 -202 -42 -342q-31 -138 -83 -210q-51 -71 -107 -98q-55 -27 -114 -25q-57 1 -90 17l-160 897q44 374 171 443t229 66q42 -2 60 -10q19 -9 51 -51q32 -43 53 -114q32 -110 32 -219zM899 1195l-3 -1q-28 2 -49 -31
t-34 -100q-27 -135 -36 -327q-9 -189 14 -348q22 -155 63 -169q38 -2 81 157t51 323q8 167 -10 329q-18 165 -77 167zM466 1428l221 -1395l-188 -38l-51 296l-236 -49l-37 -211l-177 -36l261 1388zM237 387l186 39l-78 541z" />
    <glyph glyph-name="A_U.dlig" horiz-adv-x="1204" 
d="M764 0l-20 1l-141 942q0 75 -7 198q-8 132 -6 201q11 5 38 15q24 9 75 30q45 18 83 33l35 13q-35 -511 -35 -820q0 -317 21 -381t87 -64q119 0 119 471v731q101 40 176 60q0 -700 -2 -778t-2 -111q0 -45 -5 -123q-4 -67 -29 -157q-24 -88 -67 -138q-44 -51 -124 -87
q-90 -40 -196 -36zM470 1435l221 -1395l-188 -39l-51 297l-236 -49l-37 -211l-178 -37l262 1389zM241 394l186 39l-78 541z" />
    <glyph glyph-name="A_Y.dlig" horiz-adv-x="1161" 
d="M815 606l-1 -1q-39 77 -219 378l-53 350l133 53l221 -620q18 79 144 625q129 21 220 41q-88 -311 -214 -742q-136 -466 -186 -651l-119 -21l-32 209zM468 1433l221 -1395l-188 -38l-51 296l-236 -49l-37 -211l-177 -36l261 1388zM239 392l186 39l-78 541z" />
    <glyph glyph-name="B_A.dlig" horiz-adv-x="1175" 
d="M643 326v-2q0 88 -59 171l170 893l207 45l221 -1395l-189 -38l-51 296l-235 -49l-37 -211l-178 -36l12 69q64 38 101 103q38 67 38 154zM731 391l187 39l-78 541zM598 1165l-1 -2q0 -205 -227 -612q63 0 138 -36t75 -162q0 -84 -44 -154q-43 -69 -141 -123
q-96 -53 -198 -67l-45 -6l-99 -5q-4 7 -6 356l-2 328q-1 291 14 635q46 46 127 80q84 35 153 35q256 -1 256 -267zM335 1247h1q-34 0 -74 -30l-20 -603q158 286 156 543q0 90 -63 90zM379 329h2q0 47 -27 85q-27 37 -73 37q-17 0 -36 -6v-285q13 0 41 11q27 11 45 27t33 50
q15 33 15 81z" />
    <glyph glyph-name="B_E.dlig" horiz-adv-x="1146" 
d="M670 317l-3 -1q0 85 -41 158q26 290 66 867l482 78l-29 -219l-258 -6l-27 -401l207 32l-10 -149l-207 -10l-29 -455q225 37 275 45l-29 -223q-53 0 -480 -8q4 56 9 88q74 79 74 204zM595 1166l-1 -2q0 -205 -227 -612q63 0 138 -36t75 -162q0 -84 -44 -154
q-44 -69 -141 -123q-96 -53 -198 -67l-45 -6l-99 -5q-4 7 -6 356l-2 328q-1 291 14 635q46 46 127 80q84 35 153 35q256 -1 256 -267zM332 1248h1q-33 0 -74 -30l-20 -603q157 287 156 543q0 90 -63 90zM376 330h2q0 48 -27 85t-73 37q-16 0 -36 -6v-285q13 0 41 11
q27 10 45 27q18 16 33 50q15 33 15 81z" />
    <glyph glyph-name="B_I.dlig" horiz-adv-x="913" 
d="M670 332v1q0 86 -27 155l31 615l211 2l-76 -1067l-191 -33l9 162q43 79 43 165zM825 1453q74 -3 101 -39q28 -37 24 -88t-48 -99t-127 -44t-118 36q-35 31 -33 78q7 165 201 156zM598 1168l-1 -2q0 -205 -227 -612q63 0 138 -36t75 -162q0 -84 -44 -154
q-43 -69 -141 -123q-96 -53 -198 -67l-45 -6l-99 -6q-4 8 -6 357l-2 328q-1 291 14 635q46 46 127 80q84 35 153 35q256 -1 256 -267zM335 1250h1q-34 0 -74 -30l-20 -603q158 287 156 543q0 90 -63 90zM379 332h2q0 48 -27 85t-73 37q-17 0 -36 -6v-285q13 0 41 11
q27 10 45 27q18 16 33 50q15 33 15 81z" />
    <glyph glyph-name="B_O.dlig" horiz-adv-x="1112" 
d="M637 334v-3q0 113 -41 189t-102 98q0 40 4 105q70 51 108 153q38 103 38 222q0 121 -22 177q98 161 312 153q20 0 39 -9q21 -10 92 -103q72 -94 45 -630q-19 -409 -98 -518q-78 -108 -135 -135q-55 -26 -127 -23q-124 6 -183 127q70 82 70 197zM817 1197h-1
q-95 0 -119 -459q-11 -192 12 -348q22 -155 63 -169q38 -2 81 157t51 323q8 167 -10 329q-18 167 -77 167zM597 1164l-1 -2q0 -205 -227 -612q63 0 138 -36t75 -162q0 -84 -44 -154q-44 -69 -141 -123q-96 -53 -198 -67l-45 -6l-99 -5q-4 7 -6 356l-2 328q-1 291 14 635
q46 46 127 80q84 35 153 35q256 -1 256 -267zM334 1246h1q-33 0 -74 -30l-20 -603q157 287 156 543q0 90 -63 90zM378 328h2q0 48 -27 85t-73 37q-16 0 -36 -6v-285q13 0 41 11q27 10 45 27q18 16 33 50q15 33 15 81z" />
    <glyph glyph-name="B_U.dlig" horiz-adv-x="1189" 
d="M637 1143h1q0 120 -37 219l180 70q-35 -511 -35 -820q0 -316 21 -381q21 -64 87 -64q119 0 119 471v731q101 40 176 60q0 -700 -2 -778t-2 -111q0 -45 -5 -123q-4 -67 -29 -157q-24 -88 -67 -138q-44 -51 -124 -87q-79 -35 -193 -35q-113 0 -162 120q66 86 66 219
q0 86 -28 152q-29 69 -73 101q7 127 7 225q100 103 100 326zM599 1167l-1 -2q0 -205 -227 -612q63 0 138 -36t75 -162q0 -84 -44 -154q-44 -69 -141 -123q-96 -53 -198 -67l-45 -6l-99 -5q-4 7 -6 356l-2 328q-1 291 14 635q46 46 127 80q84 35 153 35q256 -1 256 -267z
M336 1249h1q-33 0 -74 -30l-20 -603q157 286 156 543q0 90 -63 90zM380 331h2q0 47 -27 85q-27 37 -73 37q-16 0 -36 -6v-285q13 0 41 11q27 11 45 27t33 50q15 33 15 81z" />
    <glyph glyph-name="B_B.dlig" horiz-adv-x="1097" 
d="M1090 1167v-3q0 -206 -228 -612q63 0 138 -36t75 -162q0 -84 -44 -154q-43 -69 -141 -123q-96 -53 -198 -67l-45 -6l-98 -5q-4 15 -6 98q90 73 90 236q0 162 -92 233v264q96 106 96 294q0 124 -49 222q115 88 246 88q256 -1 256 -267zM891 1158q0 90 -64 90
q-33 0 -73 -30l-21 -603q158 287 158 543zM870 330h3q0 48 -27 85t-73 37q-17 0 -36 -6v-285q14 0 42 11q27 10 45 27t32 50q14 34 14 81zM601 1164l-1 -2q0 -205 -227 -612q63 0 138 -36t75 -162q0 -84 -44 -154q-44 -69 -141 -123q-96 -53 -198 -67l-45 -6l-99 -5
q-4 7 -6 356l-2 328q-1 291 14 635q46 46 127 80q84 35 153 35q256 -1 256 -267zM338 1246h1q-33 0 -74 -30l-20 -603q157 287 156 543q0 90 -63 90zM382 328h2q0 48 -27 85t-73 37q-16 0 -36 -6v-285q13 0 41 11q27 10 45 27q18 16 33 50q15 33 15 81z" />
    <glyph glyph-name="B_Y.dlig" horiz-adv-x="1136" 
d="M680 1146l-1 -2q0 132 -72 230l27 10l221 -620q18 79 144 625q129 21 220 41q-218 -770 -400 -1392l-213 -37l168 604q-61 124 -176 306q82 103 82 235zM597 1165l-1 -2q0 -205 -227 -612q63 0 138 -36t75 -162q0 -84 -44 -154q-44 -69 -141 -123q-96 -53 -198 -67
l-45 -6l-99 -5q-4 7 -6 356l-2 328q-1 291 14 635q46 46 127 80q84 35 153 35q256 -1 256 -267zM334 1247h1q-33 0 -74 -30l-20 -603q157 286 156 543q0 90 -63 90zM378 329h2q0 47 -27 85q-27 37 -73 37q-16 0 -36 -6v-285q13 0 41 11q27 11 45 27t33 50q15 33 15 81z" />
    <glyph glyph-name="D_E.dlig" horiz-adv-x="1054" 
d="M715 1059v1q0 190 -60 274l408 101l-14 -222q-24 -1 -130 -11q-107 -10 -127 -11v-404l204 48v-150l-204 -25v-454q171 35 272 60l-14 -223q-237 -17 -480 -42q0 49 6 223q7 192 8 418q56 49 94 177q37 126 37 240zM649 1099h1q0 -335 -389 -1063l-192 -35l41 1288
q46 58 128 102t153 44q258 0 258 -336zM470 1091v-1q0 52 -27 83q-27 32 -58 32t-75 -39l-47 -864q207 477 207 789z" />
    <glyph glyph-name="D_I.dlig" horiz-adv-x="870" 
d="M715 1083v21l155 -2l-98 -1065l-190 -27l51 723q82 136 82 350zM819 1452h-2q72 -4 99 -42t23 -88q-5 -52 -48 -98q-44 -47 -138 -41q-7 0 -45 6q-14 119 -57 209q51 62 168 54zM647 1098h1q0 -335 -389 -1063l-192 -35l41 1288q46 58 128 102t153 44q258 0 258 -336z
M468 1090v-1q0 51 -27 83t-58 32t-75 -39l-47 -864q207 477 207 789z" />
    <glyph glyph-name="glyph563" horiz-adv-x="1161" 
d="M690 1006v-1q0 181 -33 267q63 117 147 141q78 22 171 16q23 -2 39 -9q21 -10 92 -103q72 -95 45 -630q-19 -409 -119 -548q-99 -138 -222 -131q-50 3 -78 11q-25 7 -106 72q-80 64 -91 441q155 119 155 474zM858 1199q-32 2 -56 -48t-40 -153t-24 -258q-10 -192 12 -348
q22 -155 63 -169q38 -2 81 157t51 323q8 167 -10 329q-18 164 -77 167zM649 1097h1q0 -335 -389 -1063l-192 -34l41 1287q46 58 128 102t153 44q258 0 258 -336zM470 1089v-1q0 52 -27 83q-27 32 -58 32t-75 -39l-47 -864q207 477 207 789z" />
    <glyph glyph-name="D_U.dlig" horiz-adv-x="1189" 
d="M743 0h-2q-193 0 -192 385q0 75 2 201q61 45 105 189q43 142 43 304q0 160 -75 286l176 68q-35 -511 -35 -820q0 -317 21 -381t86 -64q119 0 119 471v731q101 40 176 60q0 -700 -2 -778t-2 -111q0 -45 -5 -123q-5 -72 -28 -157q-24 -88 -67 -138q-44 -51 -124 -87
q-81 -36 -196 -36zM647 1098h1q0 -335 -389 -1063l-192 -35l41 1288q46 58 128 102t153 44q258 0 258 -336zM468 1090v-1q0 51 -27 83t-58 32t-75 -39l-47 -864q207 477 207 789z" />
    <glyph glyph-name="D_D.dlig" horiz-adv-x="1167" 
d="M1141 1098h1q0 -335 -389 -1063l-193 -35l19 627q62 57 99 169q38 114 38 262q0 151 -58 285q114 91 225 91q129 1 193.5 -83.5t64.5 -252.5zM962 1090v-1q0 51 -27 83t-58 32t-75 -39l-47 -864q207 477 207 789zM650 1097h1q0 -335 -389 -1063l-192 -34l41 1287
q46 58 128 102t153 44q258 0 258 -336zM471 1089v-1q0 52 -27 83q-27 32 -58 32q-32 0 -75 -39l-47 -864q207 477 207 789z" />
    <glyph glyph-name="D_Y.dlig" horiz-adv-x="1126" 
d="M709 1133v-1q0 16 -1 27t-1 27l149 -420q18 79 144 625q129 21 220 41q-218 -770 -400 -1392l-213 -37l168 604q-49 97 -138 243q72 117 72 283zM649 1097h1q0 -335 -389 -1063l-192 -34l41 1287q46 58 128 102t153 44q258 0 258 -336zM470 1089v-1q0 52 -27 83
q-27 32 -58 32t-75 -39l-47 -864q207 477 207 789z" />
    <glyph glyph-name="E_A.dlig" horiz-adv-x="1112" 
d="M899 1434l221 -1395l-188 -39l-51 297l-236 -49l-37 -211l-59 -12l29 282l-93 -8l207 1090zM670 393l186 39l-78 541zM516 1212l-1 2q-25 -1 -129 -11t-128 -11v-404l205 48v-150l-205 -25v-454q171 35 272 60l-14 -223q-236 -17 -479 -42q0 46 9 327q9 280 9 994
l475 111z" />
    <glyph glyph-name="E_I.dlig" horiz-adv-x="856" 
d="M477 1208l-222 -18v-404l205 48v-150l-205 -25v-454q25 6 111 21t183 39l-14 -223q-45 -4 -146 -12q-5 0 -210 -17q-127 -10 -142 -11q0 46 9 327q9 280 9 994l422 98v-213zM781 41l-149 -33l10 342l-70 -4l21 752l211 12zM728 1456l-3 -1q72 0 102 -35t29 -86
q-2 -52 -42 -101q-41 -50 -123 -50q-83 0 -119 30t-36 77q-1 83 47 124.5t145 41.5z" />
    <glyph glyph-name="E_O.dlig" horiz-adv-x="1069" 
d="M1027 1036l1 -4q11 -147 0 -350q-10 -202 -42 -342q-31 -138 -83 -210q-52 -71 -108 -98t-118 -25t-104 27l21 270l-156 -24q-33 152 -26 348l90 8v242l-76 -11q18 182 57 293l109 19l14 178q88 77 246 72q20 0 39 -9t51 -51q32 -43 53 -114q22 -74 32 -219zM736 1195
l-1 -1q-28 2 -48 -30.5t-34 -100.5q-26 -132 -37 -327q-10 -192 12 -348q22 -155 63 -169q38 -2 81 157t51 323q8 167 -10 329q-18 165 -77 167zM516 1206l-1 2q-25 -1 -129 -11t-128 -11v-404l205 48v-150l-205 -25v-454q171 35 272 60l-14 -223q-218 -15 -479 -41
q0 46 9 326q9 281 9 994l475 111z" />
    <glyph glyph-name="E_U.dlig" horiz-adv-x="1126" 
d="M662 0l1 1q-58 0 -95 31l27 270l-123 -16q-2 44 -2 151q0 91 2 201l59 8l-2 236l-53 -7q0 69 8 269l66 8l22 223l148 58q-35 -511 -35 -820q0 -317 21 -381t87 -64q117 0 117 471v731q101 40 176 60q0 -700 -2 -778t-2 -111q0 -45 -5 -123q-5 -72 -28 -157
q-24 -88 -67 -138q-44 -51 -124 -87q-81 -36 -196 -36zM517 1213l-1 2q-25 -1 -129 -11t-128 -11v-404l205 48v-150l-205 -25v-454q171 35 272 60l-14 -223q-236 -17 -479 -42q0 47 9 327q9 281 9 994l475 111z" />
    <glyph glyph-name="E_E.dlig" horiz-adv-x="1050" 
d="M1028 1212l-2 1q-25 -1 -129 -11t-128 -11v-404l205 48v-150l-205 -25v-454q171 35 272 60l-14 -223q-230 -21 -417 -37l27 295l-80 -8q10 453 10 1030l475 111zM514 1213l-2 -1q-25 -1 -129 -11t-128 -11v-404l205 48v-150l-205 -25v-454q38 7 149 17q116 10 165 24
l-14 -223q-44 -4 -261 -10q-216 -6 -259 -10q0 47 9 327q9 281 9 994l475 111z" />
    <glyph glyph-name="E_Y.dlig" horiz-adv-x="1034" 
d="M692 606l1 -1q-54 107 -165 289q-110 180 -147 246l186 6l27 123l180 -504q18 79 144 625q132 21 219 41q-159 -563 -264 -921q-94 -320 -136 -471l-166 -29l11 203zM517 1211l-1 2q-25 -1 -129 -11t-128 -11v-404l205 48v-150l-205 -25v-454q171 35 272 60l-14 -223
q-236 -17 -479 -42q0 47 9 327t9 994l475 111z" />
    <glyph glyph-name="F_A.dlig" horiz-adv-x="1034" 
d="M838 1434l221 -1395l-189 -39l-51 297l-235 -49l-37 -211l-178 -37l114 606l80 12l21 285l-47 -8l94 494zM608 393l187 39l-78 541zM59 1348l471 75l-20 -219l-252 -30v-388l246 48v-150l-244 -25l16 -610l-239 -49q7 604 22 1348z" />
    <glyph glyph-name="F_E.dlig" horiz-adv-x="933" 
d="M926 1212v3q-24 -1 -130 -11q-107 -10 -127 -11v-404l204 48v-150l-204 -25v-454q171 35 272 60l-14 -223q-237 -17 -480 -42q0 53 6 239q7 206 8 389l49 6l10 233l-57 -8q2 110 2 273l88 18l20 195l367 86zM59 1351l471 75l-20 -219l-252 -30v-388l205 48v-150l-203 -25
l16 -610l-239 -49q7 604 22 1348z" />
    <glyph glyph-name="F_I.dlig" horiz-adv-x="800" 
d="M432 1298q0 -60 21 -102l-195 -22v-388l205 48v-150l-203 -25l16 -610l-239 -49q7 604 22 1348l406 65q-33 -55 -33 -115zM766 1110l-23 -1069l-188 -41v1098zM690 1456l-3 -1q72 0 102 -35t29 -86q-2 -52 -42 -101q-41 -50 -123 -50q-83 0 -119 30t-36 77
q-1 83 47 124.5t145 41.5z" />
    <glyph glyph-name="glyph576" horiz-adv-x="1026" 
d="M1006 1036l-1 -5q12 -151 2 -350q-11 -203 -42 -342q-31 -138 -83 -210q-51 -71 -107 -98q-55 -27 -109 -24t-81 12q-28 9 -113 87q-86 78 -81 507l115 13l-4 243l-99 -14q13 159 56 289l96 8l33 209q86 72 243 68q19 0 39 -9t51 -51q31 -41 52 -114q21 -72 33 -219z
M713 1194l-3 -1q-28 2 -49 -31t-34 -100q-27 -135 -36 -327q-9 -189 14 -348q22 -155 63 -169q38 -2 81 157t51 323q8 167 -10 329q-18 165 -77 167zM54 1341l471 75l-20 -219l-252 -30v-388l205 48v-150l-203 -25l16 -610l-239 -48q7 604 22 1347z" />
    <glyph glyph-name="F_U.dlig" horiz-adv-x="1132" 
d="M682 0v1q-193 0 -193 385q0 178 3 268l53 6l6 224l-55 -13q0 60 8 265l59 2l21 235l155 60q-35 -511 -35 -820q0 -317 21 -381t87 -64q119 0 119 471v731q101 40 176 60q0 -700 -2 -778t-2 -111q0 -45 -5 -123q-4 -67 -29 -157q-24 -88 -67 -138q-44 -51 -124 -87
q-81 -36 -196 -36zM59 1349l471 75l-20 -219l-252 -30v-388l242 58v-150l-240 -35l16 -610l-239 -49q7 604 22 1348z" />
    <glyph glyph-name="F_Y.dlig" horiz-adv-x="1069" 
d="M733 606l-3 -1q-49 100 -161 283q-99 163 -145 245l127 4l41 249l221 -620q18 79 144 625q129 21 220 41q-73 -258 -156 -544q-83 -285 -144 -502q-70 -247 -99 -347l-213 -37zM56 1347l471 75l-20 -219l-252 -30v-388l205 48v-150l-203 -25l16 -610l-239 -48
q7 604 22 1347z" />
    <glyph glyph-name="H_A.dlig" horiz-adv-x="1181" 
d="M1001 1434l222 -1395l-189 -39l-51 297l-235 -49l-37 -211l-33 -8l-21 637l138 723zM772 393l186 39l-77 541zM627 1430l-39 -1389l-189 -39l11 457l-152 -21l-6 -399l-189 -39v1397l211 37l-14 -859l156 19v809z" />
    <glyph glyph-name="H_E.dlig" horiz-adv-x="1161" 
d="M1151 1202l2 -2q-31 -2 -123 -6q-93 -5 -136 -6l-16 -404l206 39l-6 -149l-205 -17l-16 -454q233 43 273 51l-24 -221q-210 -8 -479 -24q0 10 20 308q19 293 47 1014l480 92zM629 1428l-39 -1389l-189 -39l11 457l-152 -21l-6 -399l-189 -38v1396l211 37l-14 -859l156 19
v809z" />
    <glyph glyph-name="H_I.dlig" horiz-adv-x="940" 
d="M541 1315q0 -95 77 -160l-30 -1114l-189 -39l11 457l-152 -21l-6 -399l-189 -39v1397l211 37l-14 -859l156 19v809l155 18q-30 -45 -30 -106zM897 1110l-23 -1069l-188 -41v1098zM821 1456l-3 -1q72 0 102 -35t29 -86q-2 -52 -42 -101q-41 -50 -123 -50q-83 0 -119 30
t-36 77q-1 83 47 124.5t145 41.5z" />
    <glyph glyph-name="H_O.dlig" horiz-adv-x="1173" 
d="M1170 1036l2 -4q11 -147 0 -350q-10 -202 -42 -342q-31 -138 -83 -210q-51 -71 -107 -98t-138 -23q-82 5 -135 72v1167q59 113 140 149q82 36 189 32q20 0 39 -9t51 -51q31 -41 52 -114q22 -74 32 -219zM881 1195l-1 -1q-28 2 -49 -31t-34 -100q-27 -135 -36 -327
q-9 -189 14 -348q22 -155 63 -169q38 -2 80 157q43 161 50 323q8 167 -10 329q-18 165 -77 167zM628 1424l-39 -1389l-189 -38l11 456l-152 -21l-6 -399l-189 -38v1396l211 37l-14 -859l156 19v809z" />
    <glyph glyph-name="H_H.dlig" horiz-adv-x="1204" 
d="M1180 1430l-39 -1389l-189 -39l11 457l-152 -21l-6 -399l-156 -33l43 1403l135 25l-14 -859l156 19v809zM627 1430l-39 -1389l-189 -39l11 457l-152 -21l-6 -399l-189 -39v1397l211 37l-14 -859l156 19v809z" />
    <glyph glyph-name="H_Y.dlig" horiz-adv-x="1181" 
d="M836 606l-1 -1q-49 97 -177 307l19 465l18 8l222 -620q18 79 144 625q132 21 219 41q-159 -563 -264 -921t-135 -471l-213 -37zM626 1429l-39 -1389l-189 -39l11 457l-152 -21l-6 -399l-189 -38v1396l211 37l-14 -859l156 19v809z" />
    <glyph glyph-name="I_A.dlig" horiz-adv-x="856" 
d="M674 1434l221 -1395l-188 -39l-52 297l-235 -49l-37 -211l-49 -10v655l133 707zM444 393l187 39l-78 541zM274 1110l-22 -1069l-189 -41v1098zM199 1456l-2 -1q72 0 102 -35t29 -86q-2 -52 -42 -101q-41 -50 -123 -50q-83 0 -120 30t-37 77q0 166 193 166z" />
    <glyph glyph-name="I_O.dlig" horiz-adv-x="892" 
d="M863 1036l4 -4q11 -147 0 -350q-11 -202 -42 -342q-31 -138 -83 -210q-52 -71 -108 -98q-55 -26 -127 -23q-134 8 -198 158l43 1069q59 119 143 158q85 39 194 35q19 0 39 -9t51 -51q31 -41 52 -114q22 -74 32 -219zM575 1195l-3 -1q-28 2 -48 -30.5t-34 -100.5
q-27 -135 -36 -327q-9 -195 13 -348q22 -155 63 -169q38 -2 81 157t51 323q8 167 -10 329q-18 165 -77 167zM275 1104l-22 -1069l-189 -40v1097zM200 1450l-2 -1q72 0 102 -35t29 -86q-2 -52 -42 -101q-41 -50 -123 -50t-120 30q-37 30 -37 77q0 166 193 166z" />
    <glyph glyph-name="J_A.dlig" horiz-adv-x="1103" 
d="M594 297q0 70 -21 145l142 746l39 10l6 197l201 39l221 -1395l-189 -39l-51 297l-235 -49l-37 -211l-174 -37q98 113 98 297zM731 393l187 39l-78 541zM285 0q-297 0 -304 375l148 153q51 -303 135 -303q44 0 59 114t15 395q0 227 -2 441l-213 -23v205l569 78v-213
l-157 -23v-782q0 -327 -96 -372t-154 -45z" />
    <glyph glyph-name="J_E.dlig" horiz-adv-x="1097" 
d="M1090 1212l1 2q-24 -1 -130 -11t-129 -11v-404l205 48v-150l-205 -25v-454q168 35 273 60l-14 -223q-237 -16 -480 -42q0 50 9 288t9 845l129 16l8 203l338 80zM286 2q-296 0 -304 375l148 153q51 -303 135 -303q44 0 59 114t15 395q0 227 -2 441l-213 -23v205l569 78
v-213l-157 -23v-782q0 -327 -96 -372t-154 -45z" />
    <glyph glyph-name="J_O.dlig" horiz-adv-x="1234" 
d="M1211 1036l2 -5q11 -147 0 -350t-42 -342q-31 -138 -83 -210q-51 -71 -107 -98q-54 -26 -128 -23q-285 13 -252 721q14 277 72 440l78 5l10 153q96 109 276 102q19 0 39 -9t51 -51q31 -41 52 -114q22 -74 32 -219zM922 1194l-3 -1q-28 2 -49 -31t-34 -100
q-27 -135 -36 -327q-9 -189 14 -348q22 -155 63 -169q38 -2 81 157t51 323q8 167 -10 329q-18 165 -77 167zM284 -6q-297 0 -304 374l148 153q51 -303 135 -303q44 0 59 114t15 395q0 227 -2 441l-213 -23v205l569 78v-213l-157 -23v-782q0 -327 -96 -372q-94 -44 -154 -44z
" />
    <glyph glyph-name="J_U.dlig" horiz-adv-x="1282" 
d="M805 0l2 1q-193 0 -193 385q0 150 15 762l116 18l13 226l106 41q-35 -511 -35 -820q0 -317 21 -381t87 -64q119 0 119 471v731q101 40 176 60q0 -700 -2 -778t-2 -111q0 -53 -6 -123t-30 -157q-24 -88 -67 -138q-44 -51 -124 -87q-81 -36 -196 -36zM287 1
q-297 0 -304 375l148 153q51 -303 135 -303q44 0 59 114t15 395q0 227 -2 441l-213 -23v205l569 78v-213l-157 -23v-782q0 -327 -96 -372t-154 -45z" />
    <glyph glyph-name="J_J.dlig" horiz-adv-x="1089" 
d="M735 0h1q-120 0 -192 62q74 104 72 254q0 23 -4 56q43 -147 103 -148q43 0 58 114t15 395q0 227 -2 441l-213 -23v27l152 20l-4 178l422 58v-213l-158 -23v-782q0 -328 -96 -372q-97 -44 -154 -44zM286 0q-297 0 -304 374l148 153q51 -303 135 -303q44 0 59 114t15 395
q0 227 -2 441l-213 -23v205l569 78v-213l-157 -23v-782q0 -327 -96 -372q-94 -44 -154 -44z" />
    <glyph glyph-name="K_A.dlig" horiz-adv-x="1292" 
d="M1083 1434l222 -1395l-189 -39l-51 297l-236 -49l-36 -211l-170 -35l155 231l-104 86l203 1070zM854 393l186 39l-77 541zM242 94l-1 -48l-219 -45l51 1384l227 50l-49 -744q79 145 149 351q71 210 77 353l223 39q-6 -119 -88 -339t-159 -382l-78 -164q29 -86 142 -180
q114 -95 198 -150l-166 -215q-185 150 -264 340l-37 -12q-2 -27 -6 -238z" />
    <glyph glyph-name="K_E.dlig" horiz-adv-x="1204" 
d="M1171 1212l-2 2q-25 -1 -129 -11t-128 -11v-404l205 48v-150l-205 -25v-454q168 35 273 60l-15 -223q-236 -17 -479 -42v82l119 149l-111 64q11 477 12 1026l475 111zM240 96l-1 -48l-219 -45l51 1384l227 50l-49 -744q79 145 149 351q71 210 77 353l223 39
q-6 -119 -88 -339t-159 -382l-78 -164q29 -86 142 -180q114 -95 198 -150l-166 -215q-185 150 -264 340l-37 -12q-2 -27 -6 -238z" />
    <glyph glyph-name="K_I.dlig" horiz-adv-x="956" 
d="M813 1456l-3 -1q72 0 102 -35t29 -86q-2 -52 -42 -101q-41 -50 -123 -50q-83 0 -119 30t-36 77q-1 83 47 124.5t145 41.5zM239 93l-1 -46l-219 -45l51 1384l227 50l-49 -744q79 145 149 351q71 210 77 353l121 20q-25 -46 -25 -104q0 -94 60 -154q-72 -218 -215 -519
l-43 -90q4 -13 18 -39t90 -105t195 -162v854l211 12l-23 -1069l-188 -40v169l-129 -166q-185 150 -264 340l-37 -12q-2 -27 -6 -238z" />
    <glyph glyph-name="K_O.dlig" horiz-adv-x="1284" 
d="M1252 1036v-3q0 -31 1.5 -98t1.5 -129.5t-3 -122.5q-10 -203 -42 -342q-31 -138 -83 -210q-51 -71 -107 -98q-54 -26 -128 -23q-110 6 -171 108l78 108l-148 113q-25 162 -15 370q10 209 42 342t72 207t99 114q59 41 110 50q53 9 95 8q45 -2 63 -10q19 -9 51 -51
q31 -41 52 -114q32 -110 32 -219zM961 1196l-1 -1q-28 2 -49 -31t-34 -100q-27 -135 -36 -327q-9 -189 14 -348q22 -155 63 -169q38 -2 80 157q43 161 50 323q8 167 -10 329q-18 165 -77 167zM241 89l-1 -48l-219 -44l51 1383l227 50l-49 -744q79 145 149 351q71 210 77 353
l223 39q-6 -119 -88 -339t-159 -382l-78 -164q29 -86 142 -180q114 -94 198 -150l-166 -214q-184 148 -264 339l-37 -12q-2 -27 -6 -238z" />
    <glyph glyph-name="K_U.dlig" horiz-adv-x="1306" 
d="M854 0v1q-106 0 -154 94l101 139l-148 105v47q0 173 9 497q10 354 11 459q11 5 38 15q24 9 75 30q45 18 83 33l35 13q-35 -511 -35 -820q0 -317 21 -381t87 -64q119 0 119 471v731q101 40 176 60q0 -700 -2 -778t-2 -111q0 -53 -6 -123t-30 -157q-24 -88 -67 -138
q-44 -51 -124 -87q-81 -36 -187 -36zM242 95l-1 -48l-219 -45l51 1384l227 50l-49 -744q79 145 149 351q71 210 77 353l223 39l-4 -35l-67 -27l10 -196q-74 -228 -219 -533l-45 -94q29 -86 142 -180q114 -94 198 -150l-166 -215q-185 150 -264 340l-37 -12q-2 -27 -6 -238z
" />
    <glyph glyph-name="K_K.dlig" horiz-adv-x="1296" 
d="M856 94l-1 -48l-219 -45l2 53l137 178l-127 86l39 1067l227 50l-49 -744q79 145 149 351q70 208 78 353l223 39q-6 -119 -88 -339q-78 -210 -160 -382l-78 -164q29 -86 142 -180q114 -95 198 -150l-166 -215q-185 150 -264 340l-37 -12q-2 -27 -6 -238zM241 95v-48
l-219 -45l51 1384l227 50l-49 -744q79 145 149 351q71 210 77 353l223 39l-2 -23l-49 -12v-193q-72 -225 -228 -557l-47 -100q29 -86 142 -180q114 -94 198 -150l-166 -215q-185 150 -264 340l-37 -12q-6 -82 -6 -238z" />
    <glyph glyph-name="L_A.dlig" horiz-adv-x="948" 
d="M776 1434l221 -1395l-188 -39l-51 297l-180 -37l6 59l-228 -57l213 1127zM547 393l186 39l-78 541zM88 1393l217 41l-31 -1233l246 65l-51 -231l-385 -35z" />
    <glyph glyph-name="L_E.dlig" horiz-adv-x="933" 
d="M920 1212l-1 2q-24 -1 -130 -11q-107 -10 -127 -11v-404l204 48v-150l-204 -25v-454q171 35 272 60l-14 -223q-42 -4 -203 -18q-146 -13 -205 -18l76 311l-139 -26q10 454 10 1030l475 111zM87 1395l217 41l-31 -1233l246 65l-51 -231l-385 -35z" />
    <glyph glyph-name="L_I.dlig" horiz-adv-x="714" 
d="M662 41l-142 -31l78 320l-125 -23v791l211 12zM608 1456l-3 -1q72 0 102 -35t29 -86q-2 -52 -42 -101q-41 -50 -123 -50q-83 0 -119 30t-36 77q-1 83 47 124.5t145 41.5zM85 1392l217 41l-31 -1233l246 65l-51 -231l-385 -34z" />
    <glyph glyph-name="L_O.dlig" horiz-adv-x="1044" 
d="M1006 1036l-4 -2q12 -151 2 -350q-10 -202 -42 -342q-31 -138 -83 -210q-51 -71 -107 -98q-55 -27 -125 -25q-68 1 -118 41l52 287l-170 -33q-33 176 -22 396q11 218 42 351t72 207t99 114q59 41 110 50q53 9 95 8q45 -2 63 -10q20 -9 51 -51q31 -41 52 -114
q21 -72 33 -219zM710 1197l-3 -1q-28 2 -49 -31t-34 -100q-27 -135 -36 -327q-9 -189 14 -348q22 -155 63 -169q38 -2 81 157t51 323q8 167 -10 329q-18 165 -77 167zM80 1389l217 41l-31 -1233l246 65l-51 -231l-385 -34z" />
    <glyph glyph-name="L_U.dlig" horiz-adv-x="1069" 
d="M621 0l3 1q-61 0 -102 35l60 301l-150 -29q-2 36 -2 139q0 90 8 436q8 324 9 459q13 6 39 15t75 30q46 20 83 33l35 13q-35 -511 -35 -820q0 -317 21 -381t87 -64q117 0 117 471v731q101 40 176 60q0 -700 -2 -778t-2 -111q0 -45 -5 -123q-5 -72 -28 -157
q-24 -88 -67 -138q-44 -51 -124 -87q-81 -36 -196 -36zM91 1394l217 41l-31 -1233l246 65l-51 -231l-385 -35z" />
    <glyph glyph-name="M_A.dlig" horiz-adv-x="1349" 
d="M1165 1434l221 -1395l-188 -39l-51 297l-236 -49l-37 -211l-75 -17l-35 342l194 1027zM936 393l186 39l-78 541zM457 0h-118q-12 126 -47 290q-30 139 -63 255l-28 96l20 -604l-178 -37q21 368 33 1143l4 266l201 25l114 -830h4l117 793l201 37q12 -1019 37 -1397
l-181 -35l23 639q-112 -346 -139 -641z" />
    <glyph glyph-name="M_O.dlig" horiz-adv-x="1366" 
d="M1332 1036l2 -6q11 -147 0 -350q-10 -202 -42 -342q-31 -138 -83 -210q-52 -71 -108 -98q-55 -26 -127 -23q-122 6 -186 132v1016q57 169 150 224q91 55 220 50q23 -2 39 -9q19 -9 51 -51q31 -41 52 -114q22 -74 32 -219zM1042 1193l-3 -1q-28 2 -48 -30.5t-34 -100.5
q-27 -135 -36 -327q-9 -195 13 -348q22 -155 63 -169q38 -2 81 157t51 323q8 167 -10 329q-18 165 -77 167zM456 -7l-118 -1q-12 126 -47 290q-30 139 -63 255l-28 96l20 -604l-178 -36q21 366 33 1142l4 266l201 25l114 -830h4l117 793l201 37q12 -1019 37 -1397l-181 -34
l23 638q-112 -345 -139 -640z" />
    <glyph glyph-name="M_Y.dlig" horiz-adv-x="1337" 
d="M979 606v1q-65 126 -197 339l25 426l33 14l221 -620q18 79 144 625q132 21 219 41q-101 -358 -220 -767q-139 -480 -180 -626l-213 -37zM457 1l-118 -1q-12 126 -47 291q-30 139 -63 255l-28 96l20 -604l-178 -37q21 367 33 1143l4 266l201 25l114 -830h4l117 793l201 37
q12 -1019 37 -1397l-181 -35l23 639q-112 -346 -139 -641z" />
    <glyph glyph-name="M_M.dlig" horiz-adv-x="1443" 
d="M1133 0h-118q-12 126 -47 290q-30 139 -63 255l-28 96l20 -604l-111 -23l-28 1395l198 25l115 -830h4l117 793l201 37q12 -1019 37 -1397l-181 -35l23 639q-112 -346 -139 -641zM456 0l-118 -1q-12 126 -47 290q-30 139 -63 255l-28 96l20 -604l-178 -36q21 366 33 1142
l4 266l201 25l114 -830h4l117 793l201 37q12 -1019 37 -1397l-181 -35l23 639q-112 -345 -139 -640z" />
    <glyph glyph-name="N_A.dlig" horiz-adv-x="1204" 
d="M1001 1434l222 -1395l-189 -39l-51 297l-235 -49l-37 -211l-119 -25l26 27v416l177 934zM772 393l186 39l-77 541zM53 1386l175 34l177 -962v942l200 31l-39 -1389l-202 -42q-19 130 -61 285q-36 133 -78 256l-32 94l51 -598l-191 -35v1384z" />
    <glyph glyph-name="N_I.dlig" horiz-adv-x="933" 
d="M539 1302l-1 -1q0 -73 61 -131l-33 -1128l-202 -42q-19 130 -61 285q-36 133 -78 256l-32 94l51 -598l-191 -35v1384l176 35l177 -962v942l174 26q-41 -53 -41 -125zM888 1109l-23 -1069l-188 -40v1097zM812 1455l-3 -1q72 0 102 -35t29 -86q-2 -52 -42 -101
q-41 -50 -123 -50q-83 0 -119 30t-36 77q-1 83 47 124.5t145 41.5z" />
    <glyph glyph-name="N_O.dlig" horiz-adv-x="1196" 
d="M1182 1036l-1 -4q12 -151 2 -350q-11 -202 -42 -342q-31 -138 -83 -210q-52 -71 -108 -98q-55 -26 -129 -23q-143 8 -204 180l50 1039q58 124 143 165q84 41 197 36q19 0 39 -9t51 -51q31 -41 52 -114q21 -72 33 -219zM889 1195l-3 -1q-28 2 -49 -31t-34 -100
q-27 -135 -36 -327q-9 -189 14 -348q22 -155 63 -169q38 -2 81 157t51 323q8 167 -10 329q-18 165 -77 167zM48 1380l175 34l177 -962v942l200 31l-39 -1389l-202 -42q-19 130 -61 285q-36 133 -78 256l-32 94l51 -598l-191 -34v1383z" />
    <glyph glyph-name="N_N.dlig" horiz-adv-x="1161" 
d="M645 1393l177 26l140 -968l36 942l201 22l-94 -1386l-203 -34q-14 128 -51 287q-23 96 -69 257l-28 96l26 -598l-190 -29zM54 1386l175 34l177 -962v942l200 31l-39 -1389l-202 -42q-19 130 -61 285q-36 133 -78 256l-32 94l51 -598l-191 -35v1384z" />
    <glyph glyph-name="O_A.dlig" horiz-adv-x="1161" 
d="M981 1434l221 -1395l-188 -39l-51 297l-236 -49l-37 -211l-178 -37l27 147q156 197 155 500q0 104 -22 205l102 537zM752 393l186 39l-78 541zM638 1036v-4q0 -31 1.5 -98t1.5 -129.5t-3 -122.5q-10 -202 -42 -342q-31 -138 -83 -210q-52 -71 -108 -98q-55 -26 -127 -23
q-285 13 -252 721q24 512 159 607q137 96 254 93q45 -2 63 -10q20 -9 51 -51q32 -43 53 -114q32 -110 32 -219zM346 1195q-32 2 -56 -48t-40 -153t-24 -258q-10 -192 12 -348q22 -155 63 -169q38 -2 81 157t51 323q8 167 -10 329q-18 164 -77 167z" />
    <glyph glyph-name="O_O.dlig" horiz-adv-x="1232" 
d="M707 688l-1 1q0 277 -48 444q58 197 159 249q101 53 218 48q19 0 39 -9q21 -10 92 -103q72 -94 45 -630q-19 -411 -98 -520q-78 -108 -134 -135q-54 -26 -128 -23q-164 8 -222 240q78 160 78 438zM919 1201l-3 -1q-28 2 -49 -31t-34 -100q-27 -135 -36 -327
q-9 -189 14 -348q22 -155 63 -169q38 -2 81 157t51 323q8 167 -10 329q-18 165 -77 167zM634 1036v-4q0 -31 1.5 -98t1.5 -129.5t-3 -122.5q-10 -202 -42 -342q-31 -138 -83 -210q-52 -71 -108 -98q-55 -26 -127 -23q-285 13 -252 721q24 512 159 607q137 96 254 93
q45 -2 63 -10q20 -9 51 -51q32 -43 53 -114q32 -110 32 -219zM342 1195q-32 2 -56 -48t-40 -153t-24 -258q-10 -192 12 -348q22 -155 63 -169q38 -2 81 157t51 323q8 167 -10 329q-18 164 -77 167z" />
    <glyph glyph-name="P_A.dlig" horiz-adv-x="1083" 
d="M680 1060v-1q0 97 -14 189l26 140l207 45l221 -1395l-188 -38l-51 296l-236 -49l-37 -211l-178 -36l129 687q55 55 88 164q33 108 33 209zM670 392l186 39l-78 541zM643 1166v-2q0 -158 -120 -404q-121 -249 -265 -459q-6 -73 -6 -261l-197 -40l54 1318q46 46 126 80
q82 35 152 35q256 -1 256 -267zM444 1158q0 90 -63 90q-33 0 -74 -30l-47 -603q184 334 184 543z" />
    <glyph glyph-name="P_E.dlig" horiz-adv-x="1075" 
d="M709 1137l-1 2q0 111 -43 204l397 93l-14 -222q-24 -1 -130 -11q-107 -10 -127 -11v-404l204 48v-150l-204 -25v-454q171 35 272 60l-14 -223q-237 -16 -480 -42q0 1 1 28.5t3 93.5t4 139q8 255 9 556q123 113 123 318zM642 1169v-2q0 -158 -120 -404
q-121 -249 -265 -459q-6 -74 -6 -261l-197 -41l54 1319q46 46 126 80q82 35 152 35q256 -1 256 -267zM443 1161q0 90 -63 90q-34 0 -74 -30l-47 -603q184 334 184 543z" />
    <glyph glyph-name="P_I.dlig" horiz-adv-x="966" 
d="M643 1167v-3q0 -158 -120 -404q-121 -249 -265 -459q-6 -73 -6 -261l-197 -40l54 1318q46 46 126 80q82 35 152 35q131 0 195 -70q-9 -27 -9 -51q-1 -85 70 -138v-7zM444 1158q0 90 -63 90q-33 0 -74 -30l-47 -603q184 334 184 543zM909 1107l-22 -1069l-189 -40v1097z
M834 1453l-2 -1q72 0 102 -35t29 -86q-2 -52 -42 -101q-41 -50 -124 -50q-84 0 -120 30t-36 77q0 166 193 166z" />
    <glyph glyph-name="P_O.dlig" horiz-adv-x="1148" 
d="M360 1436v1q244 0 244 -269q0 -156 -116 -405q-116 -247 -255 -459q-4 -65 -4 -264l-190 -39l49 1319q46 46 125 81t147 35zM412 1162l1 1q0 90 -58 90q-38 0 -72 -28l-47 -605q82 155 129 284t47 258zM953 1429l1 -1q18 0 39 -8q19 -7 88 -105q69 -97 45 -630
q-19 -413 -96 -520q-77 -108 -130 -134q-52 -26 -122 -23q-272 13 -241 723q0 7 0.5 15.5t1 14t0.5 9.5q113 246 111 395q0 55 -8 90q57 109 134 144q76 35 177 30zM926 689l-2 3q10 173 -8 342q-18 165 -75 168q-26 2 -45 -31t-32 -101q-26 -140 -35 -327q-9 -190 12 -349
t60 -171q19 -1 38.5 38t40.5 119q41 157 46 309z" />
    <glyph glyph-name="P_U.dlig" horiz-adv-x="1230" 
d="M360 1432h-2q258 0 258 -267q0 -156 -120 -402q-118 -242 -266 -460q-6 -73 -6 -260l-196 -43l55 1319q43 45 124 79q80 34 153 34zM352 1249q-33 0 -73 -28l-48 -605q181 336 183 543q0 90 -62 90zM1208 541h1q0 -45 -5 -123q-5 -72 -28 -157q-24 -88 -67 -138
q-44 -51 -124 -87q-81 -36 -195 -36q-191 0 -192 385q0 246 10 539q93 275 11 420q75 36 174 70l55 19q-35 -510 -35 -819q0 -316 21 -381t85 -65q117 0 117 471v731q101 40 176 60q0 -700 -2 -778t-2 -111z" />
    <glyph glyph-name="P_P.dlig" horiz-adv-x="1056" 
d="M1073 1167l1 -4q0 -158 -120 -404q-121 -249 -265 -459q-6 -74 -6 -261l-197 -40l25 636q89 50 143 171q54 122 54 283t-74 294q100 51 183 51q256 0 256 -267zM875 1157q0 90 -63 90q-34 0 -74 -30l-47 -603q184 334 184 543zM644 1163v-2q0 -158 -120 -404
q-121 -249 -265 -459q-6 -74 -6 -261l-197 -40l54 1318q46 46 126 80q82 35 152 35q256 -1 256 -267zM445 1155q0 90 -63 90q-34 0 -74 -30l-47 -603q184 334 184 543z" />
    <glyph glyph-name="P_Y.dlig" horiz-adv-x="1103" 
d="M711 1141l-1 33l145 -408q18 79 144 625q129 21 220 41q-218 -770 -400 -1392l-213 -37l168 604q-26 53 -110 198q52 177 47 336zM642 1167v-2q0 -158 -120 -404q-121 -249 -265 -459q-6 -74 -6 -261l-197 -41l54 1319q46 46 126 80q82 35 152 35q256 -1 256 -267z
M443 1159q0 90 -63 90q-34 0 -74 -30l-47 -603q184 334 184 543z" />
    <glyph glyph-name="Q_U.dlig" horiz-adv-x="1220" 
d="M788 0l-3 3q-109 0 -156 113q102 268 102 630q0 363 -76 615l185 72q-35 -511 -35 -820q0 -317 21 -381t86 -64q119 0 119 471v731q101 40 176 60q0 -700 -2 -778t-2 -111q0 -45 -5 -123q-5 -72 -28 -157q-24 -88 -67 -138q-44 -51 -124 -87q-81 -36 -191 -36zM454 69h-1
q90 -96 211 -163l-150 -193q-149 149 -235 300h-4q-286 0 -252 721q24 512 159 607q137 96 254 93q45 -2 63 -10q21 -10 92 -103q72 -94 46 -604q-25 -511 -183 -648zM342 1203q-32 2 -56 -48t-40 -153t-24 -258q-10 -192 12 -348q22 -155 63 -169q38 -2 81 157t51 323
q8 167 -10 329q-18 164 -77 167z" />
    <glyph glyph-name="T_A.dlig" horiz-adv-x="1099" 
d="M387 41l-194 -41v1174l-193 -23v205l604 65l-43 -200l-174 -23v-1157zM879 1434l221 -1395l-189 -39l-51 297l-235 -49l-37 -211l-178 -37l262 1389zM649 393l187 39l-78 541z" />
    <glyph glyph-name="T_E.dlig" horiz-adv-x="1003" 
d="M977 1212l-1 1q-25 -1 -129 -11t-128 -11v-404l205 48v-150l-205 -25v-454q171 35 272 60l-14 -223q-236 -17 -479 -42q0 49 9 303t9 855l80 17v165l395 93zM386 42l-194 -41v1174l-192 -23v205l548 78v-213l-162 -23v-1157z" />
    <glyph glyph-name="T_I.dlig" horiz-adv-x="882" 
d="M446 1314q0 -59 25 -108l-68 -8v-1157l-194 -41v1174l-193 -23v205l455 63q-25 -46 -25 -105zM803 1110l-23 -1069l-188 -41v1098zM727 1456l-3 -1q72 0 102 -35t29 -86q-2 -52 -42 -101q-41 -50 -123 -50q-83 0 -119 30t-36 77q-1 83 47 124.5t145 41.5z" />
    <glyph glyph-name="T_O.dlig" horiz-adv-x="1101" 
d="M1068 1036l1 -3q11 -147 0 -350t-42 -342q-31 -138 -83 -210q-52 -71 -108 -98q-55 -26 -127 -23q-285 13 -252 721q12 269 69 436l66 9l-2 118q98 142 303 135q19 0 39 -9t51 -51q32 -43 53 -114q22 -74 32 -219zM777 1196l-1 -1q-28 2 -48 -30.5t-34 -100.5
q-26 -132 -37 -327q-11 -192 12 -348q22 -155 63 -169q38 -2 81 157t51 323q8 167 -10 329q-18 165 -77 167zM387 36l-194 -40v1173l-193 -23v205l549 78v-213l-162 -23v-1157z" />
    <glyph glyph-name="T_U.dlig" horiz-adv-x="1153" 
d="M702 0l-1 1q-193 0 -192 385q0 131 14 780l74 17v186l162 64q-35 -511 -35 -820q0 -317 21 -381t86 -64q119 0 119 471v731q101 40 176 60q0 -700 -2 -778t-2 -111q0 -45 -5 -123q-5 -72 -28 -157q-24 -88 -67 -138q-44 -51 -124 -87q-81 -36 -196 -36zM386 42l-194 -41
v1174l-192 -23v205l548 78v-213l-162 -23v-1157z" />
    <glyph glyph-name="T_T.dlig" horiz-adv-x="1044" 
d="M858 41l-194 -41v1174l-66 -9l-6 207l428 62v-213l-162 -23v-1157zM387 41l-194 -41v1174l-193 -23v205l549 78v-213l-162 -23v-1157z" />
    <glyph glyph-name="T_Y.dlig" horiz-adv-x="1255" 
d="M856 606q-57 110 -165 287q-107 175 -150 254l65 12l8 184l103 43l221 -620q18 79 144 625q132 21 219 41q-101 -358 -220 -767q-139 -480 -180 -626l-213 -37zM387 41l-194 -41v1174l-193 -23v205l549 78v-213l-162 -23v-1157z" />
    <glyph glyph-name="V_E.dlig" horiz-adv-x="1048" 
d="M1049 1212l-2 1q-24 -1 -130 -11q-107 -10 -127 -11v-404l204 48v-150l-204 -25v-454q171 35 272 60l-14 -223q-237 -17 -480 -42q0 25 18 282q19 264 20 565l88 504l369 82zM328 458l170 942l157 35l-262 -1395l-186 -39l-220 1376l199 56z" />
    <glyph glyph-name="V_I.dlig" horiz-adv-x="952" 
d="M563 1296v1q0 -71 43 -138l-211 -1120l-186 -39l-220 1376l199 56l142 -975l170 942l86 18q-23 -52 -23 -121zM889 1111l-23 -1069l-188 -41v1098zM813 1457l-3 -1q72 0 102 -35t29 -86q-2 -52 -42 -101q-41 -50 -123 -50q-83 0 -119 30t-36 77q-1 83 47 124.5t145 41.5z
" />
    <glyph glyph-name="V_O.dlig" horiz-adv-x="1124" 
d="M1129 1036l2 -4q11 -147 0 -350q-11 -202 -42 -342q-31 -138 -83 -210q-51 -71 -107 -98q-54 -26 -128 -23q-188 8 -237 312l205 1058q80 53 216 50q19 0 39 -9t51 -51q31 -41 52 -114q22 -74 32 -219zM840 1195l-3 -1q-28 2 -49 -31t-34 -100q-27 -135 -36 -327
q-9 -189 14 -348q22 -155 63 -169q38 -2 81 157t51 323q8 167 -10 329q-18 165 -77 167zM329 451l170 942l157 35l-262 -1395l-186 -38l-220 1375l199 56z" />
    <glyph glyph-name="V_U.dlig" horiz-adv-x="1212" 
d="M764 0v1q-193 0 -193 385q0 146 2 264l175 754l73 29q-35 -511 -35 -820q0 -317 21 -381t87 -64q119 0 119 471v731q101 40 176 60q0 -700 -2 -778t-2 -111q0 -45 -5 -123q-4 -67 -29 -157q-24 -88 -67 -138q-44 -51 -124 -87q-81 -36 -196 -36zM330 458l170 942l157 35
l-262 -1395l-186 -39l-220 1376l199 56z" />
    <glyph glyph-name="V_V.dlig" horiz-adv-x="1212" 
d="M903 457l170 942l158 35l-262 -1395l-187 -39l-159 987l96 432l43 13zM330 457l170 942l157 35l-262 -1395l-186 -39l-220 1376l199 56z" />
    <glyph glyph-name="V_Y.dlig" horiz-adv-x="1196" 
d="M856 606q-73 141 -215 371l72 407l4 2l221 -620q18 79 144 625q132 21 219 41q-101 -358 -220 -767q-139 -480 -180 -626l-213 -37zM330 457l170 942l157 35l-262 -1395l-186 -39l-220 1376l199 56z" />
    </font>
</defs>
</svg>
